<svg xmlns="http://www.w3.org/2000/svg" xmlns:xlink="http://www.w3.org/1999/xlink" width="500" zoomAndPan="magnify" viewBox="0 0 375 374.999991" height="500" preserveAspectRatio="xMidYMid meet" version="1.0"><defs><clipPath id="c7acd4a8aa"><path d="M 181 121 L 368 121 L 368 350 L 181 350 Z M 181 121 " clip-rule="nonzero"/></clipPath><clipPath id="33277edb98"><path d="M 238.949219 97.972656 L 406.449219 139.960938 L 347.53125 375.003906 L 180.03125 333.015625 Z M 238.949219 97.972656 " clip-rule="nonzero"/></clipPath><clipPath id="a41fa70c7e"><path d="M 406.15625 139.886719 L 238.65625 97.898438 L 179.734375 332.941406 L 347.234375 374.929688 Z M 406.15625 139.886719 " clip-rule="nonzero"/></clipPath><clipPath id="8f25e4170c"><path d="M 301.453125 72.992188 L 343.210938 72.992188 L 343.210938 136.449219 L 301.453125 136.449219 Z M 301.453125 72.992188 " clip-rule="nonzero"/></clipPath><clipPath id="f7e221315b"><path d="M 318.703125 72.992188 L 325.960938 72.992188 C 335.488281 72.992188 343.210938 80.714844 343.210938 90.242188 L 343.210938 119.046875 C 343.210938 128.574219 335.488281 136.296875 325.960938 136.296875 L 318.703125 136.296875 C 309.175781 136.296875 301.453125 128.574219 301.453125 119.046875 L 301.453125 90.242188 C 301.453125 80.714844 309.175781 72.992188 318.703125 72.992188 Z M 318.703125 72.992188 " clip-rule="nonzero"/></clipPath><clipPath id="d05a33fed4"><path d="M 10.847656 72.992188 L 52.609375 72.992188 L 52.609375 136.449219 L 10.847656 136.449219 Z M 10.847656 72.992188 " clip-rule="nonzero"/></clipPath><clipPath id="4d7b28d401"><path d="M 28.097656 72.992188 L 35.359375 72.992188 C 44.886719 72.992188 52.609375 80.714844 52.609375 90.242188 L 52.609375 119.046875 C 52.609375 128.574219 44.886719 136.296875 35.359375 136.296875 L 28.097656 136.296875 C 18.574219 136.296875 10.847656 128.574219 10.847656 119.046875 L 10.847656 90.242188 C 10.847656 80.714844 18.574219 72.992188 28.097656 72.992188 Z M 28.097656 72.992188 " clip-rule="nonzero"/></clipPath></defs><path fill="#8cb3e4" d="M 310.917969 53.484375 C 291.9375 30.136719 258.722656 18.75 212.21875 19.890625 L 141.804688 19.890625 C 95.113281 18.941406 61.898438 30.136719 42.917969 53.484375 C 28.683594 71.324219 26.027344 92.011719 26.214844 106.058594 C 26.214844 106.628906 26.214844 107.386719 26.214844 107.957031 C 26.214844 109.476562 26.40625 110.613281 26.40625 111.941406 C 26.40625 112.890625 26.59375 113.652344 26.59375 114.410156 C 26.785156 116.496094 27.164062 118.207031 27.355469 119.535156 C 27.355469 120.105469 27.542969 120.484375 27.542969 120.863281 C 27.542969 121.242188 27.734375 121.621094 27.734375 122 C 30.582031 149.332031 55.253906 178.5625 83.15625 187.671875 C 89.230469 189.570312 95.304688 190.519531 101.1875 190.519531 C 117.320312 190.519531 132.3125 183.308594 144.652344 169.074219 C 151.675781 160.722656 159.078125 155.40625 166.859375 152.9375 C 167.425781 152.75 167.996094 152.558594 168.566406 152.371094 C 169.324219 152.179688 170.085938 151.992188 170.84375 151.800781 C 171.222656 151.609375 171.792969 151.609375 172.171875 151.609375 C 172.550781 151.421875 173.121094 151.421875 173.5 151.421875 C 174.070312 151.421875 174.640625 151.230469 175.210938 151.230469 C 175.777344 151.230469 176.347656 151.230469 177.105469 151.230469 L 177.296875 151.230469 C 178.054688 151.230469 178.625 151.230469 179.386719 151.230469 C 180.714844 151.230469 182.230469 151.421875 183.558594 151.800781 C 184.320312 151.992188 185.078125 152.179688 185.648438 152.371094 C 186.21875 152.558594 186.597656 152.75 187.167969 152.75 C 194.757812 155.21875 202.351562 160.722656 209.5625 168.882812 C 221.710938 183.117188 236.703125 190.332031 252.839844 190.332031 C 258.722656 190.332031 264.796875 189.382812 270.867188 187.484375 C 298.769531 178.5625 323.445312 149.144531 326.101562 122 L 326.101562 121.8125 C 326.289062 120.671875 326.859375 118.015625 327.238281 114.21875 C 327.429688 113.460938 327.429688 112.511719 327.429688 111.753906 C 327.429688 110.425781 327.621094 109.285156 327.621094 107.765625 C 327.621094 107.199219 327.621094 106.628906 327.621094 105.867188 C 328 92.011719 325.34375 71.324219 310.917969 53.484375 Z M 309.777344 119.914062 C 307.878906 141.171875 287.761719 165.085938 265.554688 172.109375 C 254.355469 175.714844 237.84375 176.472656 222.46875 159.582031 C 222.089844 159.203125 221.710938 158.824219 221.332031 158.253906 C 211.273438 146.675781 200.261719 139.273438 188.683594 136.238281 C 187.734375 136.046875 186.789062 135.855469 185.839844 135.667969 C 184.890625 135.476562 184.128906 135.289062 183.179688 135.289062 C 182.613281 135.289062 181.851562 135.097656 181.28125 135.097656 C 180.714844 135.097656 179.953125 134.910156 179.386719 134.910156 C 178.4375 134.910156 177.675781 134.910156 176.917969 134.910156 L 176.726562 134.910156 C 175.96875 134.910156 175.019531 134.910156 174.261719 134.910156 C 173.691406 134.910156 173.121094 134.910156 172.363281 135.097656 C 171.792969 135.097656 171.035156 135.289062 170.464844 135.289062 C 169.515625 135.476562 168.757812 135.476562 167.808594 135.667969 C 166.859375 135.855469 165.910156 136.046875 164.960938 136.238281 C 164.199219 136.425781 163.441406 136.617188 162.683594 136.996094 C 151.863281 140.222656 141.804688 147.433594 132.3125 158.253906 C 131.933594 158.632812 131.554688 159.203125 131.175781 159.582031 C 115.800781 176.285156 99.289062 175.714844 88.089844 172.109375 C 66.074219 165.085938 45.953125 141.171875 44.058594 119.914062 L 43.867188 118.773438 C 43.867188 118.394531 36.65625 86.886719 55.632812 63.542969 C 71.199219 44.375 100.046875 35.074219 141.613281 36.210938 L 212.601562 36.210938 C 253.785156 35.074219 282.636719 44.375 298.199219 63.542969 C 317.371094 87.078125 310.15625 118.394531 309.96875 118.773438 Z M 309.777344 119.914062 " fill-opacity="1" fill-rule="nonzero"/><g clip-path="url(#c7acd4a8aa)"><g clip-path="url(#33277edb98)"><g clip-path="url(#a41fa70c7e)"><path fill="#ffdb99" d="M 328.703125 124.570312 C 322.304688 137.730469 318.695312 152.132812 317.871094 166.6875 C 317.023438 181.328125 318.792969 196.078125 323.203125 210.125 C 327.542969 224.0625 334.4375 237.269531 343.734375 248.53125 C 352.816406 259.554688 366.765625 269.703125 367.527344 285.203125 C 367.910156 292.40625 364.925781 299.585938 359.777344 304.492188 C 353.984375 310.148438 346.09375 312.179688 338.121094 311.273438 C 318.980469 309.117188 306.792969 293.03125 291.558594 283.289062 C 287.699219 280.863281 283.691406 278.675781 279.363281 277.40625 C 276.40625 276.484375 272.117188 275.410156 271.367188 279.503906 C 270.675781 282.976562 272.046875 286.964844 273.351562 290.117188 C 274.550781 293.332031 276.351562 296.335938 278.382812 299.125 C 282.410156 304.871094 287.425781 309.953125 291.558594 315.636719 C 296.3125 322.113281 300.402344 330.15625 296.667969 338.148438 C 293.101562 345.824219 284.3125 348.539062 276.53125 349.414062 C 268.363281 350.371094 260.066406 349.296875 252.050781 347.832031 C 243.605469 346.261719 235.160156 344.328125 226.757812 342.585938 C 216.875 340.566406 206.996094 338.542969 197.09375 336.609375 C 192.335938 335.597656 187.554688 334.671875 182.796875 333.660156 C 180.03125 333.058594 181.105469 328.773438 183.871094 329.375 C 203.03125 333.265625 222.152344 336.964844 241.269531 341.03125 C 249.136719 342.730469 256.960938 344.597656 264.933594 345.140625 C 268.964844 345.421875 272.972656 345.425781 277.027344 344.890625 C 280.691406 344.441406 284.574219 343.5 287.726562 341.46875 C 290.75 339.582031 293.109375 336.710938 293.648438 333.109375 C 294.164062 329.230469 292.644531 325.476562 290.71875 322.261719 C 287.121094 316.257812 282.277344 311.214844 277.910156 305.746094 C 273.410156 300.0625 269.46875 293.972656 267.78125 286.898438 C 266.882812 283.210938 266.136719 278.558594 268.515625 275.234375 C 271.050781 271.679688 275.507812 271.703125 279.34375 272.757812 C 297.820312 277.570312 309.128906 294.253906 325.585938 302.753906 C 332.679688 306.445312 341.425781 308.640625 349.273438 306.050781 C 355.449219 303.953125 360.425781 298.640625 362.335938 292.46875 C 366.847656 277.742188 353.820312 266.09375 344.867188 256.378906 C 334.753906 245.460938 327.003906 232.765625 321.652344 218.847656 C 316.34375 205.125 313.546875 190.480469 313.40625 175.773438 C 313.179688 161.046875 315.523438 146.238281 320.699219 132.5 C 322.011719 129.089844 323.40625 125.703125 325.035156 122.46875 C 326.152344 119.832031 329.96875 122.066406 328.703125 124.570312 Z M 328.703125 124.570312 " fill-opacity="1" fill-rule="nonzero"/></g></g></g><g clip-path="url(#8f25e4170c)"><g clip-path="url(#f7e221315b)"><path fill="#ffdb99" d="M 301.453125 72.992188 L 343.210938 72.992188 L 343.210938 136.285156 L 301.453125 136.285156 Z M 301.453125 72.992188 " fill-opacity="1" fill-rule="nonzero"/></g></g><g clip-path="url(#d05a33fed4)"><g clip-path="url(#4d7b28d401)"><path fill="#ffdb99" d="M 10.847656 72.992188 L 52.609375 72.992188 L 52.609375 136.285156 L 10.847656 136.285156 Z M 10.847656 72.992188 " fill-opacity="1" fill-rule="nonzero"/></g></g></svg>