<svg xmlns="http://www.w3.org/2000/svg" xmlns:xlink="http://www.w3.org/1999/xlink" width="500" zoomAndPan="magnify" viewBox="0 0 375 374.999991" height="500" preserveAspectRatio="xMidYMid meet" version="1.0"><defs><clipPath id="50a81e102c"><path d="M 48.464844 0 L 326.535156 0 L 326.535156 375 L 48.464844 375 Z M 48.464844 0 " clip-rule="nonzero"/></clipPath><clipPath id="873f9f6ab1"><path d="M 53.714844 0 L 321.285156 0 C 324.1875 0 326.535156 2.351562 326.535156 5.25 L 326.535156 369.75 C 326.535156 372.648438 324.1875 375 321.285156 375 L 53.714844 375 C 50.8125 375 48.464844 372.648438 48.464844 369.75 L 48.464844 5.25 C 48.464844 2.351562 50.8125 0 53.714844 0 Z M 53.714844 0 " clip-rule="nonzero"/></clipPath><clipPath id="db0d092ac9"><path d="M 97.777344 53.484375 L 277.664062 53.484375 L 277.664062 310 L 97.777344 310 Z M 97.777344 53.484375 " clip-rule="nonzero"/></clipPath></defs><g clip-path="url(#50a81e102c)"><g clip-path="url(#873f9f6ab1)"><path fill="#8cb3e4" d="M 48.464844 0 L 326.535156 0 L 326.535156 374.746094 L 48.464844 374.746094 Z M 48.464844 0 " fill-opacity="1" fill-rule="nonzero"/></g></g><path stroke-linecap="round" transform="matrix(2.398457, -0.000000000000001487, 0.000000000000001487, 2.398457, 83.744824, 336.83693)" fill="none" stroke-linejoin="miter" d="M 1.500517 1.499574 L 85.017764 1.499574 " stroke="#ffdb99" stroke-width="3" stroke-opacity="1" stroke-miterlimit="4"/><g clip-path="url(#db0d092ac9)"><path fill="#ffdb99" d="M 187.496094 53.484375 C 137.960938 53.484375 97.777344 93.664062 97.777344 143.199219 C 97.777344 210.488281 187.496094 309.820312 187.496094 309.820312 C 187.496094 309.820312 277.214844 210.488281 277.214844 143.199219 C 277.214844 93.664062 237.03125 53.484375 187.496094 53.484375 Z M 187.496094 175.242188 C 169.808594 175.242188 155.453125 160.886719 155.453125 143.199219 C 155.453125 125.511719 169.808594 111.160156 187.496094 111.160156 C 205.183594 111.160156 219.539062 125.511719 219.539062 143.199219 C 219.539062 160.886719 205.183594 175.242188 187.496094 175.242188 Z M 187.496094 175.242188 " fill-opacity="1" fill-rule="nonzero"/></g><path stroke-linecap="round" transform="matrix(2.398457, 0, 0, 2.398457, 81.263217, 23.14037)" fill="none" stroke-linejoin="miter" d="M 2.499355 2.500086 L 13.824998 2.500086 " stroke="#ffdb99" stroke-width="5" stroke-opacity="1" stroke-miterlimit="4"/><path stroke-linecap="round" transform="matrix(2.398457, 0.000000000000001914, -0.000000000000001914, 2.398457, 102.082073, 350.809782)" fill="none" stroke-linejoin="miter" d="M 1.499971 1.499493 L 69.727437 1.499493 " stroke="#ffdb99" stroke-width="3" stroke-opacity="1" stroke-miterlimit="4"/></svg>