<svg xmlns="http://www.w3.org/2000/svg" xmlns:xlink="http://www.w3.org/1999/xlink" width="500" zoomAndPan="magnify" viewBox="0 0 375 374.999991" height="500" preserveAspectRatio="xMidYMid meet" version="1.0"><defs><clipPath id="028cb530aa"><path d="M 144 261 L 258 261 L 258 374.160156 L 144 374.160156 Z M 144 261 " clip-rule="nonzero"/></clipPath><clipPath id="f02bb147fc"><path d="M 144 317 L 201 317 L 201 374.160156 L 144 374.160156 Z M 144 317 " clip-rule="nonzero"/></clipPath><clipPath id="39e5e864e6"><path d="M 0.0351562 212 L 133 212 L 133 372 L 0.0351562 372 Z M 0.0351562 212 " clip-rule="nonzero"/></clipPath><clipPath id="56772f8abc"><path d="M 106 0.0351562 L 120 0.0351562 L 120 27 L 106 27 Z M 106 0.0351562 " clip-rule="nonzero"/></clipPath></defs><path fill="#8cb3e4" d="M 250.375 340.535156 C 249.492188 340.53125 248.640625 340.359375 247.824219 340.015625 C 247.007812 339.667969 246.292969 339.179688 245.671875 338.546875 L 180.15625 272.964844 C 179.851562 272.65625 179.578125 272.324219 179.335938 271.964844 C 179.097656 271.601562 178.894531 271.222656 178.730469 270.820312 C 178.5625 270.421875 178.441406 270.007812 178.355469 269.582031 C 178.269531 269.15625 178.230469 268.726562 178.230469 268.296875 C 178.230469 267.863281 178.269531 267.433594 178.355469 267.007812 C 178.441406 266.582031 178.5625 266.167969 178.730469 265.769531 C 178.894531 265.367188 179.097656 264.988281 179.335938 264.628906 C 179.578125 264.265625 179.851562 263.933594 180.15625 263.625 L 273.828125 169.953125 C 274.132812 169.648438 274.46875 169.375 274.828125 169.136719 C 275.191406 168.894531 275.570312 168.691406 275.972656 168.527344 C 276.371094 168.363281 276.785156 168.238281 277.210938 168.152344 C 277.632812 168.070312 278.0625 168.027344 278.496094 168.027344 C 278.929688 168.027344 279.359375 168.070312 279.785156 168.152344 C 280.210938 168.238281 280.621094 168.363281 281.023438 168.527344 C 281.421875 168.691406 281.804688 168.894531 282.164062 169.136719 C 282.527344 169.375 282.859375 169.648438 283.167969 169.953125 L 348.75 235.535156 C 349.363281 236.152344 349.835938 236.863281 350.167969 237.667969 C 350.5 238.46875 350.667969 239.304688 350.671875 240.175781 C 350.675781 241.054688 350.511719 241.902344 350.179688 242.71875 C 349.847656 243.53125 349.371094 244.253906 348.75 244.878906 L 255.078125 338.546875 C 254.460938 339.179688 253.742188 339.667969 252.925781 340.015625 C 252.109375 340.359375 251.261719 340.53125 250.375 340.535156 Z M 194.199219 268.328125 L 250.375 324.503906 L 334.707031 240.175781 L 278.265625 183.996094 Z M 194.199219 268.328125 " fill-opacity="1" fill-rule="nonzero"/><g clip-path="url(#028cb530aa)"><path fill="#8cb3e4" d="M 150.875 374.453125 C 150.613281 374.453125 150.351562 374.4375 150.089844 374.402344 C 149.828125 374.371094 149.570312 374.324219 149.316406 374.261719 C 149.058594 374.199219 148.808594 374.121094 148.5625 374.027344 C 148.316406 373.933594 148.078125 373.828125 147.84375 373.707031 C 147.609375 373.585938 147.386719 373.449219 147.167969 373.300781 C 146.949219 373.152344 146.742188 372.992188 146.542969 372.820312 C 146.347656 372.648438 146.160156 372.464844 145.984375 372.269531 C 145.808594 372.074219 145.644531 371.867188 145.492188 371.652344 C 145.339844 371.4375 145.199219 371.214844 145.074219 370.984375 C 144.949219 370.753906 144.839844 370.515625 144.742188 370.269531 C 144.644531 370.027344 144.5625 369.777344 144.496094 369.523438 C 144.429688 369.269531 144.378906 369.011719 144.339844 368.75 C 144.304688 368.488281 144.285156 368.226562 144.277344 367.964844 C 144.273438 367.703125 144.28125 367.441406 144.308594 367.179688 C 144.335938 366.917969 144.375 366.65625 144.433594 366.402344 C 144.488281 366.144531 144.5625 365.890625 144.648438 365.644531 L 178.566406 266.273438 C 178.65625 266.011719 178.765625 265.753906 178.890625 265.503906 C 179.011719 265.253906 179.152344 265.011719 179.308594 264.78125 C 179.460938 264.550781 179.628906 264.328125 179.8125 264.117188 C 179.996094 263.90625 180.191406 263.707031 180.398438 263.519531 C 180.605469 263.335938 180.824219 263.160156 181.054688 263.003906 C 181.285156 262.84375 181.523438 262.699219 181.769531 262.570312 C 182.019531 262.445312 182.273438 262.332031 182.535156 262.234375 C 182.796875 262.136719 183.0625 262.058594 183.335938 261.996094 C 183.605469 261.933594 183.882812 261.886719 184.160156 261.859375 C 184.4375 261.832031 184.714844 261.820312 184.996094 261.828125 C 185.273438 261.835938 185.550781 261.863281 185.828125 261.902344 C 186.101562 261.945312 186.375 262.003906 186.644531 262.082031 C 186.910156 262.160156 187.171875 262.253906 187.429688 262.363281 C 187.6875 262.472656 187.933594 262.597656 188.175781 262.738281 C 188.417969 262.878906 188.648438 263.035156 188.867188 263.207031 C 189.089844 263.375 189.296875 263.558594 189.496094 263.757812 L 255.078125 329.339844 C 255.886719 330.144531 256.449219 331.09375 256.769531 332.191406 C 257.085938 333.285156 257.121094 334.390625 256.867188 335.5 C 256.609375 336.613281 256.097656 337.59375 255.332031 338.441406 C 254.566406 339.292969 253.644531 339.902344 252.5625 340.269531 L 153.195312 374.1875 C 152.4375 374.414062 151.664062 374.503906 150.875 374.453125 Z M 187.640625 280.515625 L 161.539062 357.164062 L 238.519531 331.0625 Z M 187.640625 280.515625 " fill-opacity="1" fill-rule="nonzero"/></g><g clip-path="url(#f02bb147fc)"><path fill="#8cb3e4" d="M 150.875 374.453125 C 150.613281 374.453125 150.351562 374.4375 150.089844 374.402344 C 149.828125 374.371094 149.570312 374.324219 149.316406 374.261719 C 149.058594 374.199219 148.808594 374.121094 148.5625 374.027344 C 148.316406 373.933594 148.078125 373.828125 147.84375 373.707031 C 147.609375 373.585938 147.386719 373.449219 147.167969 373.300781 C 146.949219 373.152344 146.742188 372.992188 146.542969 372.820312 C 146.347656 372.648438 146.160156 372.464844 145.984375 372.269531 C 145.808594 372.074219 145.644531 371.867188 145.492188 371.652344 C 145.339844 371.4375 145.199219 371.214844 145.074219 370.984375 C 144.949219 370.753906 144.839844 370.515625 144.742188 370.269531 C 144.644531 370.027344 144.5625 369.777344 144.496094 369.523438 C 144.429688 369.269531 144.378906 369.011719 144.339844 368.75 C 144.304688 368.488281 144.285156 368.226562 144.277344 367.964844 C 144.273438 367.703125 144.28125 367.441406 144.308594 367.179688 C 144.335938 366.917969 144.375 366.65625 144.433594 366.402344 C 144.488281 366.144531 144.5625 365.890625 144.648438 365.644531 L 159.355469 322.320312 C 159.601562 321.589844 159.964844 320.925781 160.441406 320.324219 C 160.917969 319.722656 161.484375 319.222656 162.136719 318.816406 C 162.789062 318.410156 163.488281 318.128906 164.242188 317.96875 C 164.992188 317.808594 165.746094 317.777344 166.507812 317.878906 C 168.671875 318.15625 170.796875 318.605469 172.886719 319.234375 C 174.972656 319.859375 176.996094 320.65625 178.949219 321.621094 C 180.90625 322.582031 182.769531 323.703125 184.539062 324.976562 C 186.308594 326.25 187.960938 327.660156 189.496094 329.207031 C 192.589844 332.316406 195.105469 335.839844 197.042969 339.773438 C 198.980469 343.707031 200.242188 347.847656 200.824219 352.195312 C 200.925781 352.957031 200.898438 353.710938 200.734375 354.464844 C 200.574219 355.214844 200.292969 355.914062 199.886719 356.566406 C 199.484375 357.222656 198.980469 357.785156 198.378906 358.261719 C 197.777344 358.742188 197.113281 359.101562 196.386719 359.351562 L 153.0625 374.054688 C 152.355469 374.3125 151.625 374.445312 150.875 374.453125 Z M 170.019531 332.253906 L 161.539062 357.164062 L 186.449219 348.683594 C 185.792969 346.78125 184.933594 344.976562 183.867188 343.269531 C 182.800781 341.5625 181.554688 339.996094 180.132812 338.574219 C 178.707031 337.148438 177.140625 335.90625 175.433594 334.839844 C 173.726562 333.773438 171.921875 332.910156 170.019531 332.253906 Z M 170.019531 332.253906 " fill-opacity="1" fill-rule="nonzero"/></g><path fill="#8cb3e4" d="M 344.046875 249.582031 L 269.125 174.589844 L 292.574219 151.207031 C 293.042969 150.761719 293.53125 150.339844 294.039062 149.941406 C 294.546875 149.542969 295.074219 149.171875 295.617188 148.824219 C 296.164062 148.472656 296.722656 148.152344 297.296875 147.855469 C 297.871094 147.5625 298.457031 147.296875 299.058594 147.054688 C 299.65625 146.816406 300.269531 146.605469 300.886719 146.425781 C 301.507812 146.242188 302.132812 146.089844 302.769531 145.96875 C 303.402344 145.847656 304.042969 145.757812 304.683594 145.695312 C 305.328125 145.632812 305.972656 145.601562 306.617188 145.601562 C 307.265625 145.601562 307.910156 145.632812 308.550781 145.695312 C 309.195312 145.757812 309.832031 145.847656 310.46875 145.96875 C 311.101562 146.089844 311.730469 146.242188 312.347656 146.425781 C 312.96875 146.605469 313.578125 146.816406 314.179688 147.054688 C 314.777344 147.296875 315.367188 147.5625 315.941406 147.855469 C 316.515625 148.152344 317.074219 148.472656 317.617188 148.824219 C 318.160156 149.171875 318.6875 149.542969 319.195312 149.941406 C 319.707031 150.339844 320.195312 150.761719 320.664062 151.207031 L 367.496094 198.042969 C 367.957031 198.5 368.394531 198.984375 368.804688 199.488281 C 369.21875 199.988281 369.605469 200.511719 369.964844 201.050781 C 370.328125 201.59375 370.660156 202.152344 370.96875 202.722656 C 371.273438 203.296875 371.550781 203.886719 371.800781 204.484375 C 372.046875 205.085938 372.265625 205.699219 372.457031 206.320312 C 372.644531 206.945312 372.800781 207.574219 372.929688 208.210938 C 373.054688 208.847656 373.152344 209.492188 373.214844 210.140625 C 373.277344 210.785156 373.308594 211.433594 373.308594 212.085938 C 373.308594 212.734375 373.277344 213.386719 373.214844 214.03125 C 373.152344 214.679688 373.054688 215.320312 372.929688 215.960938 C 372.800781 216.597656 372.644531 217.226562 372.457031 217.851562 C 372.265625 218.472656 372.046875 219.085938 371.800781 219.683594 C 371.550781 220.285156 371.273438 220.875 370.96875 221.449219 C 370.660156 222.019531 370.328125 222.578125 369.964844 223.121094 C 369.605469 223.660156 369.21875 224.183594 368.804688 224.683594 C 368.394531 225.1875 367.957031 225.667969 367.496094 226.128906 Z M 287.871094 174.589844 L 344.046875 230.832031 L 358.15625 216.789062 C 358.46875 216.480469 358.746094 216.144531 358.988281 215.78125 C 359.234375 215.421875 359.4375 215.035156 359.605469 214.632812 C 359.777344 214.230469 359.902344 213.8125 359.988281 213.386719 C 360.074219 212.957031 360.117188 212.523438 360.117188 212.085938 C 360.117188 211.648438 360.074219 211.214844 359.988281 210.785156 C 359.902344 210.359375 359.777344 209.941406 359.605469 209.539062 C 359.4375 209.132812 359.234375 208.75 358.988281 208.386719 C 358.746094 208.027344 358.46875 207.691406 358.15625 207.382812 L 311.386719 160.546875 C 311.082031 160.242188 310.746094 159.96875 310.386719 159.730469 C 310.023438 159.488281 309.644531 159.285156 309.242188 159.121094 C 308.84375 158.957031 308.429688 158.832031 308.003906 158.746094 C 307.582031 158.664062 307.152344 158.621094 306.71875 158.621094 C 306.285156 158.621094 305.855469 158.664062 305.429688 158.746094 C 305.003906 158.832031 304.59375 158.957031 304.191406 159.121094 C 303.792969 159.285156 303.410156 159.488281 303.050781 159.730469 C 302.6875 159.96875 302.355469 160.242188 302.046875 160.546875 Z M 287.871094 174.589844 " fill-opacity="1" fill-rule="nonzero"/><path fill="#8cb3e4" d="M 250.375 340.535156 C 249.492188 340.53125 248.640625 340.359375 247.824219 340.015625 C 247.007812 339.667969 246.292969 339.179688 245.671875 338.546875 L 226.992188 319.867188 C 226.679688 319.558594 226.402344 319.222656 226.160156 318.859375 C 225.914062 318.5 225.710938 318.113281 225.539062 317.710938 C 225.371094 317.308594 225.246094 316.890625 225.160156 316.464844 C 225.074219 316.035156 225.03125 315.601562 225.03125 315.164062 C 225.03125 314.726562 225.074219 314.292969 225.160156 313.863281 C 225.246094 313.4375 225.371094 313.019531 225.539062 312.617188 C 225.710938 312.210938 225.914062 311.828125 226.160156 311.464844 C 226.402344 311.105469 226.679688 310.769531 226.992188 310.460938 L 320.664062 216.789062 C 320.96875 216.484375 321.304688 216.210938 321.664062 215.972656 C 322.023438 215.730469 322.40625 215.527344 322.804688 215.363281 C 323.207031 215.199219 323.621094 215.074219 324.046875 214.988281 C 324.46875 214.90625 324.898438 214.863281 325.332031 214.863281 C 325.765625 214.863281 326.195312 214.90625 326.621094 214.988281 C 327.046875 215.074219 327.457031 215.199219 327.859375 215.363281 C 328.257812 215.527344 328.640625 215.730469 329 215.972656 C 329.363281 216.210938 329.695312 216.484375 330.003906 216.789062 L 348.75 235.535156 C 349.363281 236.152344 349.835938 236.863281 350.167969 237.667969 C 350.5 238.46875 350.667969 239.304688 350.671875 240.175781 C 350.675781 241.054688 350.511719 241.902344 350.179688 242.71875 C 349.847656 243.53125 349.371094 244.253906 348.75 244.878906 L 255.078125 338.546875 C 254.460938 339.179688 253.742188 339.667969 252.925781 340.015625 C 252.109375 340.359375 251.261719 340.53125 250.375 340.535156 Z M 241.035156 315.164062 L 250.375 324.503906 L 334.707031 240.175781 L 325.367188 230.832031 Z M 241.035156 315.164062 " fill-opacity="1" fill-rule="nonzero"/><path fill="#8cb3e4" d="M 203.539062 293.699219 C 202.652344 293.722656 201.796875 293.574219 200.96875 293.253906 C 200.140625 292.929688 199.410156 292.460938 198.769531 291.84375 L 180.089844 273.097656 C 179.785156 272.789062 179.511719 272.457031 179.269531 272.097656 C 179.03125 271.734375 178.828125 271.355469 178.664062 270.953125 C 178.496094 270.554688 178.375 270.140625 178.289062 269.714844 C 178.203125 269.289062 178.164062 268.859375 178.164062 268.425781 C 178.164062 267.996094 178.203125 267.566406 178.289062 267.140625 C 178.375 266.714844 178.496094 266.300781 178.664062 265.902344 C 178.828125 265.5 179.03125 265.121094 179.269531 264.757812 C 179.511719 264.398438 179.785156 264.066406 180.089844 263.757812 L 273.828125 169.953125 C 274.132812 169.648438 274.46875 169.375 274.828125 169.136719 C 275.191406 168.894531 275.570312 168.691406 275.972656 168.527344 C 276.371094 168.363281 276.785156 168.238281 277.210938 168.152344 C 277.632812 168.070312 278.0625 168.027344 278.496094 168.027344 C 278.929688 168.027344 279.359375 168.070312 279.785156 168.152344 C 280.210938 168.238281 280.621094 168.363281 281.023438 168.527344 C 281.421875 168.691406 281.804688 168.894531 282.164062 169.136719 C 282.527344 169.375 282.859375 169.648438 283.167969 169.953125 L 301.914062 188.699219 C 302.527344 189.316406 303 190.027344 303.332031 190.832031 C 303.664062 191.632812 303.832031 192.46875 303.835938 193.339844 C 303.839844 194.21875 303.675781 195.066406 303.34375 195.882812 C 303.011719 196.695312 302.535156 197.417969 301.914062 198.042969 L 208.242188 291.84375 C 207.613281 292.453125 206.890625 292.917969 206.074219 293.238281 C 205.261719 293.5625 204.414062 293.714844 203.539062 293.699219 Z M 194.199219 268.328125 L 203.539062 277.667969 L 287.871094 193.339844 L 278.265625 183.996094 Z M 194.199219 268.328125 " fill-opacity="1" fill-rule="nonzero"/><g clip-path="url(#39e5e864e6)"><path fill="#8cb3e4" d="M 125.898438 371.339844 L 6.65625 371.339844 C 6.222656 371.339844 5.792969 371.296875 5.367188 371.210938 C 4.9375 371.128906 4.523438 371.003906 4.121094 370.835938 C 3.722656 370.667969 3.339844 370.464844 2.976562 370.222656 C 2.617188 369.980469 2.28125 369.707031 1.972656 369.398438 C 1.667969 369.09375 1.390625 368.757812 1.148438 368.394531 C 0.910156 368.035156 0.703125 367.652344 0.539062 367.25 C 0.371094 366.847656 0.246094 366.433594 0.160156 366.007812 C 0.0742188 365.582031 0.0351562 365.152344 0.0351562 364.714844 L 0.0351562 324.96875 C 0.0351562 324.535156 0.0742188 324.101562 0.160156 323.675781 C 0.246094 323.25 0.371094 322.835938 0.539062 322.433594 C 0.703125 322.03125 0.910156 321.648438 1.148438 321.289062 C 1.390625 320.925781 1.667969 320.589844 1.972656 320.285156 C 2.28125 319.976562 2.617188 319.703125 2.976562 319.460938 C 3.339844 319.21875 3.722656 319.015625 4.121094 318.847656 C 4.523438 318.679688 4.9375 318.554688 5.367188 318.472656 C 5.792969 318.386719 6.222656 318.34375 6.65625 318.34375 L 66.277344 318.34375 L 66.277344 291.84375 L 6.65625 291.84375 C 6.222656 291.84375 5.792969 291.804688 5.367188 291.71875 C 4.9375 291.632812 4.523438 291.507812 4.121094 291.339844 C 3.722656 291.175781 3.339844 290.96875 2.976562 290.730469 C 2.617188 290.488281 2.28125 290.210938 1.972656 289.90625 C 1.667969 289.597656 1.390625 289.261719 1.148438 288.902344 C 0.910156 288.539062 0.703125 288.15625 0.539062 287.757812 C 0.371094 287.355469 0.246094 286.941406 0.160156 286.511719 C 0.0742188 286.085938 0.0351562 285.65625 0.0351562 285.222656 L 0.0351562 245.472656 C 0.0351562 245.039062 0.0742188 244.609375 0.160156 244.179688 C 0.246094 243.753906 0.371094 243.339844 0.539062 242.9375 C 0.703125 242.535156 0.910156 242.15625 1.148438 241.792969 C 1.390625 241.429688 1.667969 241.097656 1.972656 240.789062 C 2.28125 240.480469 2.617188 240.207031 2.976562 239.964844 C 3.339844 239.722656 3.722656 239.519531 4.121094 239.351562 C 4.523438 239.1875 4.9375 239.0625 5.367188 238.976562 C 5.792969 238.890625 6.222656 238.847656 6.65625 238.847656 L 106.027344 238.847656 L 106.027344 218.976562 C 106.027344 218.539062 106.070312 218.109375 106.152344 217.683594 C 106.238281 217.257812 106.363281 216.84375 106.53125 216.441406 C 106.695312 216.039062 106.902344 215.65625 107.144531 215.292969 C 107.382812 214.933594 107.660156 214.597656 107.964844 214.289062 C 108.273438 213.984375 108.609375 213.707031 108.96875 213.46875 C 109.332031 213.226562 109.714844 213.019531 110.117188 212.855469 C 110.519531 212.6875 110.933594 212.5625 111.359375 212.476562 C 111.785156 212.394531 112.214844 212.351562 112.652344 212.351562 C 113.085938 212.351562 113.515625 212.394531 113.945312 212.476562 C 114.371094 212.5625 114.785156 212.6875 115.1875 212.855469 C 115.589844 213.019531 115.96875 213.226562 116.332031 213.46875 C 116.691406 213.707031 117.027344 213.984375 117.335938 214.289062 C 117.644531 214.597656 117.917969 214.933594 118.160156 215.292969 C 118.402344 215.65625 118.605469 216.039062 118.769531 216.441406 C 118.9375 216.84375 119.0625 217.257812 119.148438 217.683594 C 119.234375 218.109375 119.277344 218.539062 119.277344 218.976562 L 119.277344 245.472656 C 119.277344 245.910156 119.234375 246.339844 119.148438 246.765625 C 119.0625 247.191406 118.9375 247.605469 118.769531 248.007812 C 118.605469 248.410156 118.402344 248.792969 118.160156 249.152344 C 117.917969 249.515625 117.644531 249.851562 117.335938 250.15625 C 117.027344 250.464844 116.691406 250.738281 116.332031 250.980469 C 115.96875 251.222656 115.589844 251.425781 115.1875 251.59375 C 114.785156 251.761719 114.371094 251.886719 113.945312 251.972656 C 113.515625 252.054688 113.085938 252.097656 112.652344 252.097656 L 13.28125 252.097656 L 13.28125 278.597656 L 72.902344 278.597656 C 73.339844 278.597656 73.769531 278.640625 74.195312 278.722656 C 74.621094 278.808594 75.035156 278.933594 75.4375 279.101562 C 75.839844 279.265625 76.222656 279.472656 76.585938 279.710938 C 76.945312 279.953125 77.28125 280.230469 77.589844 280.535156 C 77.894531 280.84375 78.171875 281.179688 78.410156 281.539062 C 78.652344 281.902344 78.859375 282.285156 79.023438 282.6875 C 79.191406 283.085938 79.316406 283.5 79.402344 283.929688 C 79.484375 284.355469 79.527344 284.785156 79.527344 285.222656 L 79.527344 324.96875 C 79.527344 325.402344 79.484375 325.835938 79.402344 326.261719 C 79.316406 326.6875 79.191406 327.101562 79.023438 327.503906 C 78.859375 327.90625 78.652344 328.285156 78.410156 328.648438 C 78.171875 329.011719 77.894531 329.34375 77.589844 329.652344 C 77.28125 329.960938 76.945312 330.234375 76.585938 330.476562 C 76.222656 330.71875 75.839844 330.921875 75.4375 331.089844 C 75.035156 331.253906 74.621094 331.378906 74.195312 331.464844 C 73.769531 331.550781 73.339844 331.59375 72.902344 331.59375 L 13.28125 331.59375 L 13.28125 358.089844 L 125.898438 358.089844 C 126.335938 358.089844 126.765625 358.132812 127.191406 358.21875 C 127.621094 358.304688 128.035156 358.429688 128.433594 358.59375 C 128.835938 358.761719 129.21875 358.964844 129.582031 359.207031 C 129.941406 359.449219 130.277344 359.722656 130.585938 360.03125 C 130.890625 360.339844 131.167969 360.671875 131.410156 361.035156 C 131.648438 361.398438 131.855469 361.777344 132.019531 362.179688 C 132.1875 362.582031 132.3125 362.996094 132.398438 363.421875 C 132.480469 363.851562 132.523438 364.28125 132.523438 364.714844 C 132.523438 365.152344 132.480469 365.582031 132.398438 366.007812 C 132.3125 366.433594 132.1875 366.847656 132.019531 367.25 C 131.855469 367.652344 131.648438 368.035156 131.410156 368.394531 C 131.167969 368.757812 130.890625 369.09375 130.585938 369.398438 C 130.277344 369.707031 129.941406 369.980469 129.582031 370.222656 C 129.21875 370.464844 128.835938 370.667969 128.433594 370.835938 C 128.035156 371.003906 127.621094 371.128906 127.191406 371.214844 C 126.765625 371.296875 126.335938 371.339844 125.898438 371.339844 Z M 125.898438 371.339844 " fill-opacity="1" fill-rule="nonzero"/></g><path fill="#8cb3e4" d="M 139.148438 172.601562 L 86.152344 172.601562 C 85.71875 172.601562 85.285156 172.5625 84.859375 172.476562 C 84.433594 172.390625 84.019531 172.265625 83.617188 172.097656 C 83.214844 171.933594 82.835938 171.730469 82.472656 171.488281 C 82.109375 171.246094 81.777344 170.96875 81.46875 170.664062 C 81.160156 170.355469 80.886719 170.019531 80.644531 169.660156 C 80.402344 169.296875 80.199219 168.914062 80.03125 168.515625 C 79.867188 168.113281 79.742188 167.699219 79.65625 167.269531 C 79.570312 166.84375 79.527344 166.414062 79.527344 165.980469 L 79.527344 152.730469 C 79.519531 151.679688 79.277344 150.691406 78.800781 149.757812 C 78.320312 148.824219 77.660156 148.046875 76.8125 147.429688 C 75.835938 146.683594 74.886719 145.910156 73.960938 145.109375 C 73.035156 144.304688 72.132812 143.472656 71.257812 142.613281 C 70.382812 141.753906 69.535156 140.871094 68.714844 139.957031 C 67.894531 139.046875 67.101562 138.109375 66.339844 137.148438 C 65.574219 136.191406 64.84375 135.207031 64.140625 134.203125 C 63.4375 133.195312 62.765625 132.167969 62.128906 131.121094 C 61.488281 130.074219 60.882812 129.011719 60.308594 127.925781 C 59.738281 126.839844 59.199219 125.742188 58.691406 124.625 C 58.1875 123.503906 57.71875 122.375 57.28125 121.226562 C 56.847656 120.082031 56.445312 118.921875 56.082031 117.75 C 55.71875 116.578125 55.390625 115.398438 55.101562 114.207031 C 54.808594 113.015625 54.554688 111.816406 54.339844 110.609375 C 54.121094 109.402344 53.941406 108.1875 53.800781 106.96875 C 53.660156 105.75 53.554688 104.53125 53.488281 103.304688 C 53.421875 102.082031 53.390625 100.855469 53.402344 99.628906 C 53.410156 98.402344 53.457031 97.175781 53.539062 95.953125 C 53.625 94.730469 53.746094 93.511719 53.90625 92.292969 C 54.066406 91.078125 54.265625 89.867188 54.5 88.664062 C 54.734375 87.460938 55.003906 86.265625 55.3125 85.078125 C 55.621094 83.890625 55.964844 82.714844 56.347656 81.550781 C 56.726562 80.382812 57.144531 79.230469 57.59375 78.089844 C 58.046875 76.949219 58.535156 75.824219 59.054688 74.714844 C 59.578125 73.605469 60.132812 72.511719 60.722656 71.4375 C 61.308594 70.359375 61.929688 69.304688 62.585938 68.265625 C 63.238281 67.226562 63.925781 66.210938 64.640625 65.214844 C 65.359375 64.222656 66.105469 63.25 66.882812 62.300781 C 67.660156 61.351562 68.464844 60.425781 69.296875 59.527344 C 70.132812 58.628906 70.992188 57.753906 71.882812 56.910156 C 72.769531 56.0625 73.683594 55.246094 74.621094 54.453125 C 75.558594 53.664062 76.519531 52.90625 77.503906 52.171875 C 78.488281 51.441406 79.496094 50.742188 80.523438 50.074219 C 81.554688 49.40625 82.601562 48.769531 83.667969 48.167969 C 84.738281 47.5625 85.820312 46.992188 86.925781 46.457031 C 88.027344 45.917969 89.144531 45.417969 90.277344 44.949219 C 91.414062 44.480469 92.558594 44.046875 93.71875 43.652344 C 94.878906 43.253906 96.050781 42.894531 97.234375 42.570312 C 98.417969 42.246094 99.609375 41.957031 100.808594 41.707031 C 102.011719 41.453125 103.21875 41.238281 104.429688 41.0625 C 105.644531 40.886719 106.863281 40.746094 108.085938 40.644531 C 109.308594 40.542969 110.53125 40.480469 111.757812 40.453125 C 112.984375 40.429688 114.210938 40.441406 115.433594 40.492188 C 116.660156 40.539062 117.882812 40.628906 119.105469 40.753906 C 120.324219 40.878906 121.539062 41.039062 122.75 41.242188 C 123.957031 41.441406 125.160156 41.679688 126.355469 41.953125 C 127.550781 42.226562 128.738281 42.539062 129.914062 42.886719 C 131.089844 43.234375 132.253906 43.617188 133.40625 44.035156 C 134.558594 44.457031 135.699219 44.910156 136.824219 45.398438 C 137.949219 45.890625 139.054688 46.414062 140.148438 46.972656 C 141.238281 47.527344 142.3125 48.121094 143.371094 48.746094 C 144.425781 49.367188 145.460938 50.023438 146.476562 50.714844 C 147.492188 51.402344 148.484375 52.121094 149.453125 52.871094 C 150.425781 53.621094 151.371094 54.398438 152.296875 55.207031 C 153.21875 56.015625 154.113281 56.847656 154.984375 57.714844 C 155.859375 58.578125 156.703125 59.464844 157.515625 60.382812 C 158.332031 61.296875 159.121094 62.234375 159.878906 63.199219 C 160.636719 64.164062 161.367188 65.148438 162.0625 66.160156 C 162.761719 67.167969 163.425781 68.199219 164.058594 69.246094 C 164.695312 70.296875 165.296875 71.367188 165.863281 72.453125 C 166.429688 73.539062 166.964844 74.644531 167.464844 75.761719 C 167.964844 76.882812 168.429688 78.019531 168.859375 79.167969 C 169.289062 80.316406 169.683594 81.476562 170.042969 82.648438 C 170.398438 83.820312 170.722656 85.003906 171.007812 86.199219 C 171.292969 87.390625 171.539062 88.589844 171.75 89.800781 C 171.960938 91.007812 172.136719 92.222656 172.273438 93.441406 C 172.539062 95.992188 172.644531 98.550781 172.582031 101.117188 C 172.519531 103.683594 172.292969 106.238281 171.898438 108.773438 C 171.507812 111.308594 170.953125 113.8125 170.238281 116.277344 C 169.523438 118.742188 168.652344 121.152344 167.628906 123.503906 C 166.601562 125.855469 165.429688 128.132812 164.109375 130.335938 C 162.789062 132.539062 161.332031 134.644531 159.738281 136.65625 C 158.144531 138.671875 156.429688 140.574219 154.59375 142.367188 C 152.753906 144.15625 150.808594 145.824219 148.753906 147.363281 C 147.921875 147.988281 147.269531 148.769531 146.804688 149.699219 C 146.339844 150.632812 146.105469 151.621094 146.105469 152.664062 L 146.105469 165.914062 C 146.109375 166.363281 146.070312 166.8125 145.984375 167.257812 C 145.894531 167.699219 145.765625 168.128906 145.589844 168.546875 C 145.417969 168.964844 145.199219 169.359375 144.945312 169.730469 C 144.691406 170.105469 144.398438 170.449219 144.074219 170.761719 C 143.746094 171.074219 143.394531 171.351562 143.011719 171.59375 C 142.628906 171.832031 142.226562 172.035156 141.800781 172.191406 C 141.378906 172.351562 140.945312 172.464844 140.496094 172.535156 C 140.050781 172.601562 139.601562 172.625 139.148438 172.601562 Z M 92.777344 159.355469 L 132.523438 159.355469 L 132.523438 152.730469 C 132.53125 151.191406 132.710938 149.675781 133.066406 148.179688 C 133.425781 146.6875 133.949219 145.253906 134.636719 143.878906 C 135.328125 142.503906 136.164062 141.226562 137.152344 140.050781 C 138.136719 138.871094 139.246094 137.820312 140.472656 136.898438 C 141.214844 136.339844 141.9375 135.765625 142.640625 135.164062 C 143.347656 134.566406 144.03125 133.949219 144.699219 133.308594 C 145.367188 132.667969 146.015625 132.007812 146.644531 131.332031 C 147.273438 130.652344 147.882812 129.953125 148.46875 129.238281 C 149.054688 128.523438 149.621094 127.792969 150.164062 127.042969 C 150.707031 126.296875 151.226562 125.53125 151.722656 124.75 C 152.21875 123.972656 152.695312 123.175781 153.144531 122.367188 C 153.59375 121.5625 154.019531 120.738281 154.417969 119.90625 C 154.820312 119.074219 155.195312 118.226562 155.542969 117.371094 C 155.894531 116.515625 156.21875 115.648438 156.515625 114.773438 C 156.816406 113.898438 157.085938 113.015625 157.332031 112.125 C 157.578125 111.230469 157.796875 110.332031 157.988281 109.429688 C 158.179688 108.523438 158.34375 107.613281 158.480469 106.699219 C 158.617188 105.785156 158.726562 104.867188 158.808594 103.945312 C 158.894531 103.023438 158.945312 102.101562 158.972656 101.175781 C 159 100.253906 159 99.328125 158.972656 98.402344 C 158.945312 97.480469 158.886719 96.554688 158.804688 95.632812 C 158.722656 94.714844 158.609375 93.796875 158.472656 92.882812 C 158.332031 91.964844 158.167969 91.058594 157.976562 90.152344 C 157.78125 89.246094 157.5625 88.351562 157.316406 87.457031 C 157.070312 86.566406 156.796875 85.683594 156.496094 84.808594 C 156.199219 83.933594 155.871094 83.066406 155.519531 82.210938 C 155.167969 81.355469 154.792969 80.511719 154.390625 79.679688 C 153.988281 78.847656 153.5625 78.027344 153.113281 77.21875 C 152.660156 76.410156 152.1875 75.617188 151.6875 74.839844 C 151.191406 74.058594 150.667969 73.296875 150.125 72.546875 C 149.582031 71.800781 149.015625 71.066406 148.429688 70.355469 C 147.839844 69.640625 147.230469 68.945312 146.601562 68.265625 C 145.972656 67.589844 145.324219 66.929688 144.65625 66.292969 C 143.984375 65.652344 143.300781 65.035156 142.59375 64.4375 C 141.886719 63.839844 141.164062 63.261719 140.425781 62.707031 C 139.683594 62.152344 138.925781 61.621094 138.15625 61.113281 C 136.710938 60.15625 135.21875 59.285156 133.679688 58.496094 C 132.140625 57.707031 130.558594 57.007812 128.941406 56.394531 C 127.320312 55.785156 125.671875 55.265625 123.996094 54.835938 C 122.316406 54.410156 120.621094 54.078125 118.90625 53.839844 C 117.191406 53.605469 115.46875 53.464844 113.742188 53.417969 C 112.011719 53.375 110.28125 53.425781 108.558594 53.574219 C 106.832031 53.726562 105.125 53.96875 103.425781 54.3125 C 101.730469 54.652344 100.054688 55.085938 98.410156 55.613281 C 96.25 56.285156 94.148438 57.113281 92.113281 58.09375 C 90.074219 59.074219 88.117188 60.203125 86.246094 61.472656 C 84.375 62.742188 82.605469 64.144531 80.941406 65.675781 C 79.277344 67.207031 77.734375 68.851562 76.3125 70.609375 C 74.890625 72.371094 73.605469 74.222656 72.457031 76.171875 C 71.308594 78.121094 70.308594 80.144531 69.457031 82.242188 C 68.609375 84.339844 67.917969 86.484375 67.382812 88.683594 C 66.851562 90.882812 66.484375 93.109375 66.277344 95.359375 C 66.109375 97.324219 66.0625 99.289062 66.140625 101.257812 C 66.214844 103.222656 66.417969 105.179688 66.742188 107.121094 C 67.066406 109.066406 67.511719 110.980469 68.078125 112.867188 C 68.644531 114.75 69.324219 116.59375 70.125 118.394531 C 70.925781 120.195312 71.832031 121.9375 72.851562 123.625 C 73.871094 125.308594 74.992188 126.921875 76.214844 128.464844 C 77.441406 130.011719 78.753906 131.46875 80.164062 132.847656 C 81.570312 134.226562 83.058594 135.507812 84.628906 136.699219 C 85.890625 137.621094 87.027344 138.675781 88.039062 139.867188 C 89.050781 141.054688 89.914062 142.347656 90.621094 143.738281 C 91.328125 145.132812 91.863281 146.589844 92.230469 148.109375 C 92.59375 149.625 92.777344 151.167969 92.777344 152.730469 Z M 92.777344 159.355469 " fill-opacity="1" fill-rule="nonzero"/><path fill="#8cb3e4" d="M 125.898438 199.101562 L 99.402344 199.101562 C 98.75 199.101562 98.101562 199.070312 97.453125 199.007812 C 96.804688 198.941406 96.164062 198.847656 95.523438 198.71875 C 94.886719 198.59375 94.253906 198.433594 93.632812 198.246094 C 93.011719 198.058594 92.398438 197.835938 91.796875 197.589844 C 91.195312 197.339844 90.609375 197.0625 90.035156 196.753906 C 89.460938 196.449219 88.902344 196.113281 88.359375 195.753906 C 87.820312 195.390625 87.296875 195.003906 86.792969 194.589844 C 86.292969 194.175781 85.808594 193.742188 85.347656 193.28125 C 84.890625 192.820312 84.453125 192.339844 84.039062 191.835938 C 83.625 191.332031 83.238281 190.808594 82.878906 190.269531 C 82.515625 189.726562 82.183594 189.171875 81.875 188.597656 C 81.566406 188.023438 81.289062 187.433594 81.042969 186.832031 C 80.792969 186.230469 80.574219 185.621094 80.382812 184.996094 C 80.195312 184.375 80.035156 183.742188 79.910156 183.105469 C 79.78125 182.464844 79.6875 181.824219 79.625 181.175781 C 79.558594 180.527344 79.527344 179.878906 79.527344 179.226562 L 79.527344 165.980469 C 79.527344 165.542969 79.570312 165.113281 79.65625 164.6875 C 79.742188 164.261719 79.867188 163.84375 80.03125 163.445312 C 80.199219 163.042969 80.402344 162.660156 80.644531 162.296875 C 80.886719 161.9375 81.160156 161.601562 81.46875 161.292969 C 81.777344 160.988281 82.109375 160.710938 82.472656 160.46875 C 82.835938 160.230469 83.214844 160.023438 83.617188 159.859375 C 84.019531 159.691406 84.433594 159.566406 84.859375 159.480469 C 85.285156 159.398438 85.71875 159.355469 86.152344 159.355469 L 139.148438 159.355469 C 139.585938 159.355469 140.015625 159.398438 140.441406 159.480469 C 140.867188 159.566406 141.28125 159.691406 141.683594 159.859375 C 142.085938 160.023438 142.46875 160.230469 142.828125 160.46875 C 143.191406 160.710938 143.527344 160.988281 143.832031 161.292969 C 144.140625 161.601562 144.414062 161.9375 144.65625 162.296875 C 144.898438 162.660156 145.101562 163.042969 145.269531 163.445312 C 145.4375 163.84375 145.5625 164.257812 145.648438 164.6875 C 145.730469 165.113281 145.773438 165.542969 145.773438 165.980469 L 145.773438 179.226562 C 145.773438 179.878906 145.742188 180.527344 145.679688 181.175781 C 145.613281 181.824219 145.519531 182.464844 145.390625 183.105469 C 145.265625 183.742188 145.105469 184.375 144.917969 184.996094 C 144.730469 185.621094 144.511719 186.230469 144.261719 186.832031 C 144.011719 187.433594 143.734375 188.023438 143.425781 188.597656 C 143.121094 189.171875 142.785156 189.726562 142.425781 190.269531 C 142.0625 190.808594 141.675781 191.332031 141.261719 191.835938 C 140.851562 192.339844 140.414062 192.820312 139.953125 193.28125 C 139.492188 193.742188 139.011719 194.175781 138.507812 194.589844 C 138.003906 195.003906 137.484375 195.390625 136.941406 195.753906 C 136.398438 196.113281 135.84375 196.449219 135.269531 196.753906 C 134.695312 197.0625 134.105469 197.339844 133.503906 197.589844 C 132.902344 197.835938 132.292969 198.058594 131.667969 198.246094 C 131.046875 198.433594 130.414062 198.59375 129.777344 198.71875 C 129.140625 198.847656 128.496094 198.941406 127.847656 199.007812 C 127.199219 199.070312 126.550781 199.101562 125.898438 199.101562 Z M 92.777344 172.601562 L 92.777344 179.226562 C 92.777344 179.664062 92.820312 180.09375 92.90625 180.519531 C 92.988281 180.945312 93.113281 181.359375 93.28125 181.761719 C 93.449219 182.164062 93.652344 182.546875 93.894531 182.910156 C 94.136719 183.269531 94.410156 183.605469 94.71875 183.914062 C 95.023438 184.21875 95.359375 184.496094 95.722656 184.734375 C 96.082031 184.976562 96.464844 185.183594 96.867188 185.347656 C 97.269531 185.515625 97.683594 185.640625 98.109375 185.726562 C 98.535156 185.808594 98.96875 185.851562 99.402344 185.851562 L 125.898438 185.851562 C 126.335938 185.851562 126.765625 185.808594 127.191406 185.726562 C 127.621094 185.640625 128.035156 185.515625 128.433594 185.347656 C 128.835938 185.183594 129.21875 184.976562 129.582031 184.734375 C 129.941406 184.496094 130.277344 184.21875 130.585938 183.914062 C 130.890625 183.605469 131.167969 183.269531 131.410156 182.910156 C 131.648438 182.546875 131.855469 182.164062 132.019531 181.761719 C 132.1875 181.359375 132.3125 180.945312 132.398438 180.519531 C 132.480469 180.09375 132.523438 179.664062 132.523438 179.226562 L 132.523438 172.601562 Z M 92.777344 172.601562 " fill-opacity="1" fill-rule="nonzero"/><g clip-path="url(#56772f8abc)"><path fill="#8cb3e4" d="M 112.652344 26.863281 C 112.214844 26.863281 111.785156 26.820312 111.359375 26.734375 C 110.933594 26.652344 110.519531 26.523438 110.117188 26.359375 C 109.714844 26.191406 109.332031 25.988281 108.96875 25.746094 C 108.609375 25.503906 108.273438 25.230469 107.964844 24.921875 C 107.660156 24.613281 107.382812 24.28125 107.144531 23.917969 C 106.902344 23.558594 106.695312 23.175781 106.53125 22.773438 C 106.363281 22.371094 106.238281 21.957031 106.152344 21.53125 C 106.070312 21.105469 106.027344 20.671875 106.027344 20.238281 L 106.027344 6.988281 C 106.027344 6.554688 106.070312 6.125 106.152344 5.695312 C 106.238281 5.269531 106.363281 4.855469 106.53125 4.453125 C 106.695312 4.050781 106.902344 3.671875 107.144531 3.308594 C 107.382812 2.945312 107.660156 2.613281 107.964844 2.304688 C 108.273438 1.996094 108.609375 1.722656 108.96875 1.480469 C 109.332031 1.238281 109.714844 1.035156 110.117188 0.867188 C 110.519531 0.703125 110.933594 0.578125 111.359375 0.492188 C 111.785156 0.40625 112.214844 0.363281 112.652344 0.363281 C 113.085938 0.363281 113.515625 0.40625 113.945312 0.492188 C 114.371094 0.578125 114.785156 0.703125 115.1875 0.867188 C 115.589844 1.035156 115.96875 1.238281 116.332031 1.480469 C 116.691406 1.722656 117.027344 1.996094 117.335938 2.304688 C 117.644531 2.613281 117.917969 2.945312 118.160156 3.308594 C 118.402344 3.671875 118.605469 4.050781 118.769531 4.453125 C 118.9375 4.855469 119.0625 5.269531 119.148438 5.695312 C 119.234375 6.125 119.277344 6.554688 119.277344 6.988281 L 119.277344 20.238281 C 119.277344 20.671875 119.234375 21.105469 119.148438 21.53125 C 119.0625 21.957031 118.9375 22.371094 118.769531 22.773438 C 118.605469 23.175781 118.402344 23.558594 118.160156 23.917969 C 117.917969 24.28125 117.644531 24.613281 117.335938 24.921875 C 117.027344 25.230469 116.691406 25.503906 116.332031 25.746094 C 115.96875 25.988281 115.589844 26.191406 115.1875 26.359375 C 114.785156 26.523438 114.371094 26.652344 113.945312 26.734375 C 113.515625 26.820312 113.085938 26.863281 112.652344 26.863281 Z M 112.652344 26.863281 " fill-opacity="1" fill-rule="nonzero"/></g><path fill="#8cb3e4" d="M 56.410156 50.113281 C 55.539062 50.113281 54.703125 49.945312 53.902344 49.609375 C 53.097656 49.277344 52.386719 48.804688 51.769531 48.195312 L 42.363281 38.851562 C 42.054688 38.542969 41.78125 38.207031 41.539062 37.84375 C 41.296875 37.480469 41.089844 37.097656 40.925781 36.695312 C 40.757812 36.292969 40.632812 35.875 40.546875 35.449219 C 40.460938 35.019531 40.417969 34.585938 40.417969 34.152344 C 40.421875 33.714844 40.460938 33.28125 40.546875 32.855469 C 40.632812 32.425781 40.757812 32.011719 40.925781 31.605469 C 41.09375 31.203125 41.296875 30.820312 41.542969 30.457031 C 41.785156 30.09375 42.058594 29.757812 42.367188 29.449219 C 42.675781 29.140625 43.011719 28.867188 43.375 28.625 C 43.738281 28.378906 44.121094 28.175781 44.523438 28.007812 C 44.929688 27.839844 45.34375 27.714844 45.773438 27.628906 C 46.199219 27.542969 46.632812 27.503906 47.070312 27.5 C 47.503906 27.5 47.9375 27.542969 48.367188 27.628906 C 48.792969 27.714844 49.210938 27.839844 49.613281 28.007812 C 50.015625 28.171875 50.398438 28.378906 50.761719 28.621094 C 51.125 28.863281 51.460938 29.136719 51.769531 29.445312 L 61.113281 38.851562 C 61.417969 39.160156 61.691406 39.496094 61.929688 39.855469 C 62.171875 40.214844 62.371094 40.597656 62.539062 40.996094 C 62.703125 41.398438 62.828125 41.8125 62.910156 42.234375 C 62.996094 42.660156 63.039062 43.089844 63.039062 43.523438 C 63.039062 43.957031 62.996094 44.386719 62.910156 44.8125 C 62.828125 45.238281 62.703125 45.648438 62.539062 46.050781 C 62.371094 46.449219 62.171875 46.832031 61.929688 47.191406 C 61.691406 47.550781 61.417969 47.886719 61.113281 48.195312 C 60.488281 48.8125 59.765625 49.289062 58.953125 49.625 C 58.136719 49.957031 57.289062 50.121094 56.410156 50.113281 Z M 56.410156 50.113281 " fill-opacity="1" fill-rule="nonzero"/><path fill="#8cb3e4" d="M 33.15625 106.359375 L 19.90625 106.359375 C 19.472656 106.359375 19.042969 106.316406 18.613281 106.230469 C 18.1875 106.144531 17.773438 106.019531 17.371094 105.851562 C 16.96875 105.6875 16.589844 105.484375 16.226562 105.242188 C 15.863281 105 15.53125 104.726562 15.222656 104.417969 C 14.914062 104.109375 14.640625 103.773438 14.398438 103.414062 C 14.15625 103.050781 13.953125 102.671875 13.785156 102.269531 C 13.621094 101.867188 13.496094 101.453125 13.410156 101.027344 C 13.324219 100.597656 13.28125 100.167969 13.28125 99.734375 C 13.28125 99.296875 13.324219 98.867188 13.410156 98.441406 C 13.496094 98.015625 13.621094 97.601562 13.785156 97.199219 C 13.953125 96.796875 14.15625 96.414062 14.398438 96.050781 C 14.640625 95.691406 14.914062 95.355469 15.222656 95.050781 C 15.53125 94.742188 15.863281 94.464844 16.226562 94.226562 C 16.589844 93.984375 16.96875 93.777344 17.371094 93.613281 C 17.773438 93.445312 18.1875 93.320312 18.613281 93.234375 C 19.042969 93.152344 19.472656 93.109375 19.90625 93.109375 L 33.15625 93.109375 C 33.589844 93.109375 34.023438 93.152344 34.449219 93.234375 C 34.875 93.320312 35.289062 93.445312 35.691406 93.613281 C 36.09375 93.777344 36.476562 93.984375 36.835938 94.226562 C 37.199219 94.464844 37.53125 94.742188 37.839844 95.050781 C 38.148438 95.355469 38.421875 95.691406 38.664062 96.050781 C 38.90625 96.414062 39.109375 96.796875 39.277344 97.199219 C 39.441406 97.601562 39.570312 98.015625 39.652344 98.441406 C 39.738281 98.867188 39.78125 99.296875 39.78125 99.734375 C 39.78125 100.167969 39.738281 100.597656 39.652344 101.027344 C 39.570312 101.453125 39.441406 101.867188 39.277344 102.269531 C 39.109375 102.671875 38.90625 103.050781 38.664062 103.414062 C 38.421875 103.773438 38.148438 104.109375 37.839844 104.417969 C 37.53125 104.726562 37.199219 105 36.835938 105.242188 C 36.476562 105.484375 36.09375 105.6875 35.691406 105.851562 C 35.289062 106.019531 34.875 106.144531 34.449219 106.230469 C 34.023438 106.316406 33.589844 106.359375 33.15625 106.359375 Z M 33.15625 106.359375 " fill-opacity="1" fill-rule="nonzero"/><path fill="#8cb3e4" d="M 47.066406 171.941406 C 46.1875 171.945312 45.339844 171.78125 44.523438 171.449219 C 43.710938 171.117188 42.988281 170.640625 42.363281 170.019531 C 42.054688 169.710938 41.777344 169.375 41.53125 169.011719 C 41.289062 168.652344 41.082031 168.269531 40.914062 167.863281 C 40.746094 167.460938 40.621094 167.042969 40.535156 166.617188 C 40.449219 166.1875 40.40625 165.753906 40.40625 165.316406 C 40.40625 164.878906 40.449219 164.445312 40.535156 164.015625 C 40.621094 163.589844 40.746094 163.171875 40.914062 162.769531 C 41.082031 162.363281 41.289062 161.980469 41.53125 161.617188 C 41.777344 161.257812 42.054688 160.921875 42.363281 160.613281 L 51.769531 151.273438 C 52.066406 150.925781 52.398438 150.613281 52.757812 150.335938 C 53.121094 150.054688 53.507812 149.816406 53.917969 149.617188 C 54.328125 149.417969 54.753906 149.265625 55.199219 149.152344 C 55.640625 149.042969 56.089844 148.980469 56.546875 148.960938 C 57.003906 148.945312 57.457031 148.972656 57.90625 149.050781 C 58.355469 149.125 58.792969 149.246094 59.21875 149.414062 C 59.644531 149.578125 60.046875 149.789062 60.429688 150.039062 C 60.8125 150.289062 61.164062 150.574219 61.488281 150.898438 C 61.808594 151.21875 62.097656 151.570312 62.347656 151.953125 C 62.597656 152.335938 62.804688 152.738281 62.972656 153.164062 C 63.136719 153.589844 63.257812 154.027344 63.335938 154.476562 C 63.410156 154.925781 63.441406 155.378906 63.421875 155.835938 C 63.40625 156.292969 63.339844 156.742188 63.230469 157.183594 C 63.121094 157.628906 62.964844 158.054688 62.765625 158.464844 C 62.566406 158.878906 62.328125 159.261719 62.050781 159.625 C 61.769531 159.988281 61.457031 160.316406 61.113281 160.613281 L 51.769531 170.019531 C 51.144531 170.640625 50.425781 171.117188 49.609375 171.449219 C 48.796875 171.78125 47.949219 171.945312 47.066406 171.941406 Z M 47.066406 171.941406 " fill-opacity="1" fill-rule="nonzero"/><path fill="#8cb3e4" d="M 178.234375 171.941406 C 177.355469 171.945312 176.507812 171.78125 175.691406 171.449219 C 174.875 171.117188 174.15625 170.640625 173.53125 170.019531 L 164.191406 160.613281 C 163.84375 160.316406 163.53125 159.988281 163.253906 159.625 C 162.972656 159.261719 162.734375 158.878906 162.535156 158.464844 C 162.335938 158.054688 162.183594 157.628906 162.070312 157.1875 C 161.960938 156.742188 161.898438 156.292969 161.878906 155.835938 C 161.863281 155.378906 161.890625 154.925781 161.96875 154.476562 C 162.042969 154.027344 162.164062 153.589844 162.332031 153.164062 C 162.496094 152.738281 162.707031 152.335938 162.957031 151.953125 C 163.207031 151.570312 163.492188 151.21875 163.816406 150.898438 C 164.136719 150.574219 164.488281 150.289062 164.871094 150.039062 C 165.253906 149.789062 165.65625 149.578125 166.082031 149.414062 C 166.507812 149.246094 166.945312 149.125 167.394531 149.050781 C 167.84375 148.972656 168.296875 148.945312 168.753906 148.960938 C 169.210938 148.980469 169.660156 149.042969 170.101562 149.152344 C 170.546875 149.265625 170.972656 149.417969 171.382812 149.617188 C 171.796875 149.816406 172.179688 150.054688 172.542969 150.335938 C 172.90625 150.613281 173.234375 150.925781 173.53125 151.273438 L 182.9375 160.613281 C 183.25 160.921875 183.527344 161.257812 183.769531 161.617188 C 184.011719 161.980469 184.21875 162.363281 184.386719 162.769531 C 184.554688 163.171875 184.683594 163.589844 184.769531 164.015625 C 184.855469 164.445312 184.898438 164.878906 184.898438 165.316406 C 184.898438 165.753906 184.855469 166.1875 184.769531 166.617188 C 184.683594 167.042969 184.554688 167.460938 184.386719 167.863281 C 184.21875 168.269531 184.011719 168.652344 183.769531 169.011719 C 183.527344 169.375 183.25 169.710938 182.9375 170.019531 C 182.3125 170.640625 181.59375 171.117188 180.777344 171.449219 C 179.960938 171.78125 179.113281 171.945312 178.234375 171.941406 Z M 178.234375 171.941406 " fill-opacity="1" fill-rule="nonzero"/><path fill="#8cb3e4" d="M 205.394531 106.359375 L 192.144531 106.359375 C 191.710938 106.359375 191.28125 106.316406 190.851562 106.230469 C 190.425781 106.144531 190.011719 106.019531 189.609375 105.851562 C 189.207031 105.6875 188.828125 105.484375 188.464844 105.242188 C 188.105469 105 187.769531 104.726562 187.460938 104.417969 C 187.152344 104.109375 186.878906 103.773438 186.636719 103.414062 C 186.394531 103.050781 186.191406 102.671875 186.027344 102.269531 C 185.859375 101.867188 185.734375 101.453125 185.648438 101.027344 C 185.5625 100.597656 185.519531 100.167969 185.519531 99.734375 C 185.519531 99.296875 185.5625 98.867188 185.648438 98.441406 C 185.734375 98.015625 185.859375 97.601562 186.027344 97.199219 C 186.191406 96.796875 186.394531 96.414062 186.636719 96.050781 C 186.878906 95.691406 187.152344 95.355469 187.460938 95.050781 C 187.769531 94.742188 188.105469 94.464844 188.464844 94.226562 C 188.828125 93.984375 189.207031 93.777344 189.609375 93.613281 C 190.011719 93.445312 190.425781 93.320312 190.851562 93.234375 C 191.28125 93.152344 191.710938 93.109375 192.144531 93.109375 L 205.394531 93.109375 C 205.828125 93.109375 206.261719 93.152344 206.6875 93.234375 C 207.113281 93.320312 207.527344 93.445312 207.929688 93.613281 C 208.332031 93.777344 208.714844 93.984375 209.074219 94.226562 C 209.4375 94.464844 209.773438 94.742188 210.078125 95.050781 C 210.386719 95.355469 210.660156 95.691406 210.902344 96.050781 C 211.144531 96.414062 211.347656 96.796875 211.515625 97.199219 C 211.683594 97.601562 211.808594 98.015625 211.890625 98.441406 C 211.976562 98.867188 212.019531 99.296875 212.019531 99.734375 C 212.019531 100.167969 211.976562 100.597656 211.890625 101.027344 C 211.808594 101.453125 211.683594 101.867188 211.515625 102.269531 C 211.347656 102.671875 211.144531 103.050781 210.902344 103.414062 C 210.660156 103.773438 210.386719 104.109375 210.078125 104.417969 C 209.773438 104.726562 209.4375 105 209.074219 105.242188 C 208.714844 105.484375 208.332031 105.6875 207.929688 105.851562 C 207.527344 106.019531 207.113281 106.144531 206.6875 106.230469 C 206.261719 106.316406 205.828125 106.359375 205.394531 106.359375 Z M 205.394531 106.359375 " fill-opacity="1" fill-rule="nonzero"/><path fill="#8cb3e4" d="M 168.894531 50.113281 C 168.011719 50.121094 167.164062 49.957031 166.351562 49.625 C 165.535156 49.289062 164.816406 48.8125 164.191406 48.195312 C 163.882812 47.886719 163.613281 47.550781 163.371094 47.191406 C 163.132812 46.832031 162.929688 46.449219 162.765625 46.050781 C 162.597656 45.648438 162.472656 45.238281 162.390625 44.8125 C 162.304688 44.386719 162.265625 43.957031 162.265625 43.523438 C 162.265625 43.089844 162.304688 42.660156 162.390625 42.234375 C 162.472656 41.8125 162.597656 41.398438 162.765625 40.996094 C 162.929688 40.597656 163.132812 40.214844 163.371094 39.855469 C 163.613281 39.496094 163.882812 39.160156 164.191406 38.851562 L 173.53125 29.445312 C 173.839844 29.136719 174.175781 28.863281 174.539062 28.621094 C 174.902344 28.378906 175.285156 28.171875 175.6875 28.007812 C 176.09375 27.839844 176.507812 27.714844 176.9375 27.628906 C 177.363281 27.542969 177.796875 27.5 178.234375 27.5 C 178.667969 27.503906 179.101562 27.542969 179.53125 27.628906 C 179.957031 27.714844 180.375 27.839844 180.777344 28.007812 C 181.179688 28.175781 181.5625 28.378906 181.925781 28.625 C 182.289062 28.867188 182.625 29.140625 182.933594 29.449219 C 183.242188 29.757812 183.519531 30.09375 183.761719 30.457031 C 184.003906 30.820312 184.207031 31.203125 184.375 31.605469 C 184.542969 32.011719 184.667969 32.425781 184.753906 32.855469 C 184.839844 33.28125 184.882812 33.714844 184.882812 34.152344 C 184.882812 34.585938 184.839844 35.019531 184.753906 35.449219 C 184.671875 35.875 184.542969 36.292969 184.378906 36.695312 C 184.210938 37.097656 184.007812 37.480469 183.765625 37.84375 C 183.519531 38.207031 183.246094 38.542969 182.9375 38.851562 L 173.53125 48.195312 C 172.914062 48.804688 172.203125 49.277344 171.402344 49.609375 C 170.597656 49.945312 169.761719 50.113281 168.894531 50.113281 Z M 168.894531 50.113281 " fill-opacity="1" fill-rule="nonzero"/><path fill="#8cb3e4" d="M 139.148438 106.359375 C 138.714844 106.359375 138.285156 106.316406 137.855469 106.230469 C 137.429688 106.144531 137.015625 106.019531 136.613281 105.851562 C 136.210938 105.6875 135.832031 105.484375 135.46875 105.242188 C 135.105469 105 134.773438 104.726562 134.464844 104.417969 C 134.15625 104.109375 133.882812 103.773438 133.640625 103.414062 C 133.398438 103.050781 133.195312 102.671875 133.027344 102.269531 C 132.863281 101.867188 132.738281 101.453125 132.652344 101.027344 C 132.566406 100.597656 132.523438 100.167969 132.523438 99.734375 C 132.523438 99.082031 132.492188 98.433594 132.429688 97.785156 C 132.367188 97.136719 132.269531 96.496094 132.144531 95.855469 C 132.015625 95.21875 131.859375 94.585938 131.667969 93.964844 C 131.480469 93.339844 131.261719 92.730469 131.011719 92.128906 C 130.761719 91.527344 130.484375 90.9375 130.179688 90.363281 C 129.871094 89.789062 129.535156 89.234375 129.175781 88.691406 C 128.8125 88.152344 128.425781 87.628906 128.011719 87.125 C 127.601562 86.621094 127.164062 86.140625 126.703125 85.679688 C 126.242188 85.21875 125.761719 84.785156 125.257812 84.371094 C 124.753906 83.957031 124.234375 83.570312 123.691406 83.207031 C 123.152344 82.847656 122.59375 82.511719 122.019531 82.207031 C 121.445312 81.898438 120.859375 81.621094 120.257812 81.371094 C 119.65625 81.125 119.042969 80.902344 118.421875 80.714844 C 117.796875 80.527344 117.167969 80.367188 116.527344 80.242188 C 115.890625 80.113281 115.246094 80.019531 114.597656 79.957031 C 113.953125 79.890625 113.300781 79.859375 112.652344 79.859375 C 112.214844 79.859375 111.785156 79.816406 111.359375 79.730469 C 110.933594 79.648438 110.519531 79.523438 110.117188 79.355469 C 109.714844 79.1875 109.332031 78.984375 108.96875 78.742188 C 108.609375 78.5 108.273438 78.226562 107.964844 77.917969 C 107.660156 77.613281 107.382812 77.277344 107.144531 76.914062 C 106.902344 76.554688 106.695312 76.171875 106.53125 75.769531 C 106.363281 75.367188 106.238281 74.953125 106.152344 74.527344 C 106.070312 74.101562 106.027344 73.667969 106.027344 73.234375 C 106.027344 72.800781 106.070312 72.367188 106.152344 71.941406 C 106.238281 71.515625 106.363281 71.101562 106.53125 70.699219 C 106.695312 70.296875 106.902344 69.917969 107.144531 69.554688 C 107.382812 69.191406 107.660156 68.859375 107.964844 68.550781 C 108.273438 68.242188 108.609375 67.96875 108.96875 67.726562 C 109.332031 67.484375 109.714844 67.28125 110.117188 67.113281 C 110.519531 66.949219 110.933594 66.824219 111.359375 66.738281 C 111.785156 66.652344 112.214844 66.609375 112.652344 66.609375 C 113.734375 66.609375 114.816406 66.664062 115.898438 66.769531 C 116.976562 66.875 118.050781 67.035156 119.113281 67.246094 C 120.175781 67.457031 121.226562 67.722656 122.265625 68.035156 C 123.304688 68.351562 124.324219 68.714844 125.328125 69.132812 C 126.328125 69.546875 127.308594 70.011719 128.265625 70.519531 C 129.222656 71.03125 130.152344 71.589844 131.054688 72.191406 C 131.953125 72.796875 132.824219 73.441406 133.664062 74.128906 C 134.503906 74.816406 135.304688 75.542969 136.074219 76.3125 C 136.839844 77.078125 137.566406 77.882812 138.253906 78.71875 C 138.945312 79.558594 139.589844 80.429688 140.191406 81.332031 C 140.792969 82.234375 141.351562 83.164062 141.863281 84.121094 C 142.375 85.074219 142.835938 86.054688 143.253906 87.058594 C 143.667969 88.058594 144.03125 89.078125 144.347656 90.117188 C 144.664062 91.15625 144.925781 92.207031 145.136719 93.269531 C 145.347656 94.335938 145.507812 95.40625 145.613281 96.488281 C 145.722656 97.566406 145.773438 98.648438 145.773438 99.734375 C 145.773438 100.167969 145.730469 100.597656 145.648438 101.027344 C 145.5625 101.453125 145.4375 101.867188 145.269531 102.269531 C 145.101562 102.671875 144.898438 103.050781 144.65625 103.414062 C 144.414062 103.773438 144.140625 104.109375 143.832031 104.417969 C 143.527344 104.726562 143.191406 105 142.828125 105.242188 C 142.46875 105.484375 142.085938 105.6875 141.683594 105.851562 C 141.28125 106.019531 140.867188 106.144531 140.441406 106.230469 C 140.015625 106.316406 139.585938 106.359375 139.148438 106.359375 Z M 139.148438 106.359375 " fill-opacity="1" fill-rule="nonzero"/><path stroke-linecap="round" transform="matrix(2.398242, 0, 0, 2.398242, 0.0335015, 358.452106)" fill="none" stroke-linejoin="miter" d="M 2.999305 3.000669 L 52.980568 3.000669 " stroke="#ffdb99" stroke-width="6" stroke-opacity="1" stroke-miterlimit="4"/><path stroke-linecap="round" transform="matrix(2.398242, 0.00000000000000204, -0.00000000000000204, 2.398242, 0.0335017, 278.830441)" fill="none" stroke-linejoin="miter" d="M 2.999305 2.999278 L 30.4087 2.999278 " stroke="#ffdb99" stroke-width="6" stroke-opacity="1" stroke-miterlimit="4"/><path stroke-linecap="round" transform="matrix(2.398242, 0.00000000000000204, -0.00000000000000204, 2.398242, 0.0335017, 318.641259)" fill="none" stroke-linejoin="miter" d="M 2.999305 2.99998 L 30.4087 2.99998 " stroke="#ffdb99" stroke-width="6" stroke-opacity="1" stroke-miterlimit="4"/><path stroke-linecap="round" transform="matrix(2.398242, 0.000000000000001358, -0.000000000000001358, 2.398242, 0.0335017, 239.019637)" fill="none" stroke-linejoin="miter" d="M 2.999305 3.0002 L 47.182051 3.0002 " stroke="#ffdb99" stroke-width="6" stroke-opacity="1" stroke-miterlimit="4"/><path stroke-linecap="round" transform="matrix(0, -2.398242, 2.398242, 0, -0.0183841, 372.48018)" fill="none" stroke-linejoin="miter" d="M 3.000123 2.999766 L 18.812484 2.999766 " stroke="#ffdb99" stroke-width="6" stroke-opacity="1" stroke-miterlimit="4"/><path stroke-linecap="round" transform="matrix(0, -2.398242, 2.398242, 0, -0.0183841, 292.242228)" fill="none" stroke-linejoin="miter" d="M 3.000261 2.999766 L 18.812621 2.999766 " stroke="#ffdb99" stroke-width="6" stroke-opacity="1" stroke-miterlimit="4"/><path stroke-linecap="round" transform="matrix(0, -2.398242, 2.398242, 0, 65.749673, 332.067665)" fill="none" stroke-linejoin="miter" d="M 3.000769 3.00038 L 18.8115 3.00038 " stroke="#ffdb99" stroke-width="6" stroke-opacity="1" stroke-miterlimit="4"/><path stroke-linecap="round" transform="matrix(0, -2.398242, 2.398242, 0, 105.988519, 252.206263)" fill="none" stroke-linejoin="miter" d="M 2.999924 3.000145 L 13.4568 3.000145 " stroke="#ffdb99" stroke-width="6" stroke-opacity="1" stroke-miterlimit="4"/></svg>