<svg xmlns="http://www.w3.org/2000/svg" xmlns:xlink="http://www.w3.org/1999/xlink" width="500" zoomAndPan="magnify" viewBox="0 0 375 374.999991" height="500" preserveAspectRatio="xMidYMid meet" version="1.0"><defs><clipPath id="e52e7c25d2"><path d="M 15.113281 0 L 360 0 L 360 374.160156 L 15.113281 374.160156 Z M 15.113281 0 " clip-rule="nonzero"/></clipPath><clipPath id="7fa6fd780a"><path d="M 87.761719 0 L 289 0 L 289 201 L 87.761719 201 Z M 87.761719 0 " clip-rule="nonzero"/></clipPath><clipPath id="5721497b94"><path d="M 188.136719 0 C 132.699219 0 87.761719 44.90625 87.761719 100.304688 C 87.761719 155.699219 132.699219 200.609375 188.136719 200.609375 C 243.574219 200.609375 288.515625 155.699219 288.515625 100.304688 C 288.515625 44.90625 243.574219 0 188.136719 0 Z M 188.136719 0 " clip-rule="nonzero"/></clipPath></defs><g clip-path="url(#e52e7c25d2)"><path fill="#8cb3e4" d="M 359.84375 341.121094 L 359.84375 337.335938 C 359.84375 314.078125 355.28125 291.503906 346.289062 270.238281 C 337.609375 249.714844 325.183594 231.285156 309.363281 215.460938 C 293.539062 199.640625 275.109375 187.21875 254.582031 178.535156 C 253.234375 177.964844 251.875 177.414062 250.511719 176.875 C 253.09375 174.765625 255.582031 172.519531 257.960938 170.132812 C 267.109375 160.988281 274.292969 150.332031 279.3125 138.460938 C 284.515625 126.160156 287.152344 113.105469 287.152344 99.660156 C 287.152344 86.214844 284.515625 73.164062 279.3125 60.863281 C 274.292969 48.992188 267.109375 38.335938 257.960938 29.1875 C 248.816406 20.042969 238.160156 12.859375 226.289062 7.839844 C 213.988281 2.636719 200.933594 0 187.488281 0 C 174.042969 0 160.988281 2.636719 148.691406 7.839844 C 136.820312 12.859375 126.164062 20.042969 117.015625 29.1875 C 107.871094 38.335938 100.6875 48.992188 95.667969 60.863281 C 90.464844 73.164062 87.828125 86.214844 87.828125 99.660156 C 87.828125 113.105469 90.464844 126.160156 95.667969 138.460938 C 100.6875 150.332031 107.871094 160.988281 117.015625 170.132812 C 119.398438 172.519531 121.886719 174.761719 124.46875 176.875 C 123.101562 177.414062 121.742188 177.964844 120.394531 178.535156 C 99.867188 187.21875 81.4375 199.640625 65.617188 215.460938 C 49.796875 231.285156 37.371094 249.714844 28.691406 270.238281 C 19.695312 291.503906 15.136719 314.078125 15.136719 337.335938 L 15.136719 341.121094 C 15.136719 358.8125 28.714844 373.390625 45.996094 374.984375 L 331.328125 374.6875 L 331.429688 374.675781 C 334.398438 374.371094 337.277344 373.488281 339.910156 372.082031 C 351.65625 366.71875 359.84375 354.859375 359.84375 341.121094 Z M 114.035156 130.691406 C 109.875 120.863281 107.769531 110.425781 107.769531 99.660156 C 107.769531 88.898438 109.875 78.460938 114.035156 68.628906 C 118.046875 59.136719 123.796875 50.613281 131.117188 43.289062 C 138.441406 35.96875 146.964844 30.222656 156.457031 26.207031 C 166.289062 22.050781 176.726562 19.941406 187.488281 19.941406 C 198.25 19.941406 208.691406 22.050781 218.519531 26.207031 C 228.015625 30.222656 236.539062 35.96875 243.859375 43.289062 C 251.183594 50.613281 256.929688 59.136719 260.945312 68.632812 C 265.101562 78.460938 267.210938 88.898438 267.210938 99.660156 C 267.210938 110.425781 265.101562 120.863281 260.945312 130.691406 C 256.929688 140.183594 251.183594 148.710938 243.859375 156.03125 C 236.539062 163.351562 228.015625 169.101562 218.519531 173.117188 C 208.691406 177.273438 198.25 179.382812 187.488281 179.382812 C 176.726562 179.382812 166.289062 177.273438 156.457031 173.117188 C 146.964844 169.101562 138.441406 163.351562 131.117188 156.03125 C 123.796875 148.710938 118.046875 140.183594 114.035156 130.691406 Z M 339.898438 341.121094 C 339.898438 348.878906 333.589844 355.191406 325.832031 355.191406 L 49.148438 355.191406 C 41.390625 355.191406 35.078125 348.878906 35.078125 341.121094 L 35.078125 337.335938 C 35.078125 316.757812 39.109375 296.800781 47.054688 278.007812 C 54.730469 259.859375 65.722656 243.558594 79.71875 229.5625 C 93.714844 215.566406 110.011719 204.578125 128.164062 196.898438 C 132.164062 195.207031 136.273438 193.675781 140.378906 192.339844 C 141.8125 191.871094 143.269531 191.421875 144.710938 191 C 145.25 190.84375 145.757812 190.644531 146.246094 190.410156 C 147.054688 190.777344 147.867188 191.136719 148.6875 191.484375 C 160.988281 196.6875 174.042969 199.324219 187.488281 199.324219 C 200.933594 199.324219 213.988281 196.6875 226.289062 191.484375 C 227.109375 191.136719 227.921875 190.777344 228.730469 190.410156 C 229.21875 190.644531 229.730469 190.84375 230.269531 191 C 235.851562 192.632812 241.417969 194.617188 246.816406 196.902344 C 264.964844 204.578125 281.265625 215.566406 295.261719 229.5625 C 309.257812 243.558594 320.246094 259.859375 327.921875 278.007812 C 335.871094 296.800781 339.898438 316.757812 339.898438 337.332031 Z M 339.898438 341.121094 " fill-opacity="1" fill-rule="nonzero"/></g><g clip-path="url(#7fa6fd780a)"><g clip-path="url(#5721497b94)"><path stroke-linecap="butt" transform="matrix(2.398456, 0, 0, 2.398456, 87.76078, 0)" fill="none" stroke-linejoin="miter" d="M 41.850223 -0 C 18.7364 -0 0.000391591 18.722979 0.000391591 41.820516 C 0.000391591 64.916424 18.7364 83.641031 41.850223 83.641031 C 64.964046 83.641031 83.701683 64.916424 83.701683 41.820516 C 83.701683 18.722979 64.964046 -0 41.850223 -0 Z M 41.850223 -0 " stroke="#ffdb99" stroke-width="18.136662" stroke-opacity="1" stroke-miterlimit="4"/></g></g></svg>