<svg xmlns="http://www.w3.org/2000/svg" xmlns:xlink="http://www.w3.org/1999/xlink" width="500" zoomAndPan="magnify" viewBox="0 0 375 374.999991" height="500" preserveAspectRatio="xMidYMid meet" version="1.0"><defs><clipPath id="9dbe4b2153"><path d="M 66 19.21875 L 306 19.21875 L 306 355.027344 L 66 355.027344 Z M 66 19.21875 " clip-rule="nonzero"/></clipPath><clipPath id="831b9a86ca"><path d="M 320 78 L 374.554688 78 L 374.554688 133 L 320 133 Z M 320 78 " clip-rule="nonzero"/></clipPath><clipPath id="639b244031"><path d="M 144.808594 211.269531 L 224.453125 211.269531 L 224.453125 252.167969 L 144.808594 252.167969 Z M 144.808594 211.269531 " clip-rule="nonzero"/></clipPath><clipPath id="32265b0569"><path d="M 147.054688 211.269531 L 222.84375 211.269531 C 223.441406 211.269531 224.011719 211.507812 224.433594 211.929688 C 224.855469 212.351562 225.09375 212.921875 225.09375 213.519531 L 225.09375 250.761719 C 225.09375 251.355469 224.855469 251.929688 224.433594 252.351562 C 224.011719 252.773438 223.441406 253.011719 222.84375 253.011719 L 147.054688 253.011719 C 146.460938 253.011719 145.886719 252.773438 145.464844 252.351562 C 145.042969 251.929688 144.808594 251.355469 144.808594 250.761719 L 144.808594 213.519531 C 144.808594 212.921875 145.042969 212.351562 145.464844 211.929688 C 145.886719 211.507812 146.460938 211.269531 147.054688 211.269531 Z M 147.054688 211.269531 " clip-rule="nonzero"/></clipPath></defs><g clip-path="url(#9dbe4b2153)"><path fill="#8cb3e4" d="M 276.9375 355.90625 L 94.84375 355.90625 C 93.914062 355.90625 92.992188 355.859375 92.066406 355.765625 C 91.144531 355.675781 90.230469 355.539062 89.320312 355.359375 C 88.410156 355.175781 87.511719 354.949219 86.625 354.679688 C 85.738281 354.410156 84.867188 354.097656 84.011719 353.742188 C 83.152344 353.386719 82.316406 352.992188 81.5 352.554688 C 80.683594 352.117188 79.886719 351.640625 79.117188 351.125 C 78.347656 350.609375 77.601562 350.058594 76.886719 349.472656 C 76.167969 348.882812 75.484375 348.261719 74.828125 347.605469 C 74.171875 346.949219 73.550781 346.261719 72.960938 345.546875 C 72.375 344.828125 71.820312 344.085938 71.308594 343.316406 C 70.792969 342.542969 70.316406 341.75 69.878906 340.933594 C 69.441406 340.117188 69.042969 339.277344 68.6875 338.421875 C 68.335938 337.566406 68.023438 336.695312 67.753906 335.808594 C 67.480469 334.921875 67.257812 334.023438 67.074219 333.113281 C 66.894531 332.203125 66.757812 331.289062 66.664062 330.363281 C 66.574219 329.441406 66.527344 328.519531 66.527344 327.589844 L 66.527344 47.769531 C 66.527344 46.84375 66.574219 45.917969 66.664062 44.996094 C 66.757812 44.074219 66.894531 43.15625 67.074219 42.246094 C 67.257812 41.339844 67.480469 40.441406 67.753906 39.554688 C 68.023438 38.667969 68.335938 37.792969 68.6875 36.9375 C 69.042969 36.082031 69.441406 35.246094 69.878906 34.425781 C 70.316406 33.609375 70.792969 32.816406 71.308594 32.042969 C 71.820312 31.273438 72.375 30.53125 72.960938 29.8125 C 73.550781 29.097656 74.171875 28.410156 74.828125 27.753906 C 75.484375 27.101562 76.167969 26.476562 76.886719 25.890625 C 77.601562 25.300781 78.347656 24.75 79.117188 24.234375 C 79.886719 23.71875 80.683594 23.242188 81.5 22.804688 C 82.316406 22.367188 83.152344 21.972656 84.011719 21.617188 C 84.867188 21.261719 85.738281 20.949219 86.625 20.679688 C 87.511719 20.410156 88.410156 20.183594 89.320312 20.003906 C 90.230469 19.820312 91.144531 19.683594 92.066406 19.59375 C 92.992188 19.5 93.914062 19.453125 94.84375 19.453125 L 276.9375 19.453125 C 277.867188 19.453125 278.792969 19.5 279.714844 19.59375 C 280.636719 19.683594 281.550781 19.820312 282.460938 20.003906 C 283.371094 20.183594 284.269531 20.410156 285.15625 20.679688 C 286.042969 20.949219 286.914062 21.261719 287.769531 21.617188 C 288.628906 21.972656 289.464844 22.367188 290.28125 22.804688 C 291.101562 23.242188 291.894531 23.71875 292.664062 24.234375 C 293.433594 24.75 294.179688 25.300781 294.894531 25.890625 C 295.613281 26.476562 296.296875 27.101562 296.953125 27.753906 C 297.609375 28.410156 298.230469 29.097656 298.820312 29.8125 C 299.40625 30.53125 299.960938 31.273438 300.476562 32.042969 C 300.988281 32.816406 301.464844 33.609375 301.902344 34.425781 C 302.339844 35.246094 302.738281 36.082031 303.09375 36.9375 C 303.449219 37.792969 303.761719 38.667969 304.03125 39.554688 C 304.300781 40.441406 304.523438 41.339844 304.707031 42.246094 C 304.886719 43.15625 305.023438 44.074219 305.117188 44.996094 C 305.207031 45.917969 305.253906 46.84375 305.253906 47.769531 L 305.253906 327.597656 C 305.253906 328.523438 305.207031 329.449219 305.117188 330.371094 C 305.023438 331.292969 304.886719 332.210938 304.707031 333.121094 C 304.523438 334.027344 304.296875 334.925781 304.027344 335.8125 C 303.757812 336.699219 303.445312 337.570312 303.089844 338.425781 C 302.734375 339.285156 302.339844 340.121094 301.902344 340.9375 C 301.464844 341.753906 300.988281 342.550781 300.472656 343.320312 C 299.957031 344.089844 299.40625 344.832031 298.816406 345.550781 C 298.230469 346.265625 297.605469 346.953125 296.949219 347.609375 C 296.296875 348.261719 295.609375 348.886719 294.894531 349.472656 C 294.175781 350.0625 293.433594 350.613281 292.664062 351.128906 C 291.890625 351.644531 291.097656 352.117188 290.28125 352.554688 C 289.460938 352.992188 288.625 353.390625 287.769531 353.746094 C 286.914062 354.097656 286.042969 354.410156 285.15625 354.679688 C 284.269531 354.949219 283.371094 355.175781 282.460938 355.359375 C 281.550781 355.539062 280.636719 355.675781 279.714844 355.769531 C 278.792969 355.859375 277.867188 355.90625 276.9375 355.90625 Z M 94.84375 27.113281 C 94.164062 27.113281 93.492188 27.148438 92.816406 27.214844 C 92.144531 27.28125 91.476562 27.378906 90.8125 27.511719 C 90.148438 27.644531 89.492188 27.808594 88.84375 28.003906 C 88.195312 28.199219 87.558594 28.429688 86.933594 28.6875 C 86.308594 28.945312 85.699219 29.234375 85.101562 29.554688 C 84.503906 29.875 83.925781 30.222656 83.363281 30.597656 C 82.800781 30.972656 82.257812 31.375 81.734375 31.804688 C 81.210938 32.234375 80.710938 32.6875 80.230469 33.167969 C 79.753906 33.644531 79.300781 34.144531 78.871094 34.667969 C 78.441406 35.191406 78.039062 35.734375 77.660156 36.296875 C 77.285156 36.859375 76.9375 37.441406 76.621094 38.035156 C 76.300781 38.632812 76.011719 39.246094 75.753906 39.871094 C 75.492188 40.496094 75.265625 41.132812 75.070312 41.78125 C 74.871094 42.425781 74.707031 43.082031 74.578125 43.746094 C 74.445312 44.410156 74.34375 45.078125 74.277344 45.753906 C 74.210938 46.425781 74.179688 47.101562 74.179688 47.777344 L 74.179688 327.605469 C 74.179688 328.28125 74.210938 328.957031 74.277344 329.632812 C 74.34375 330.304688 74.445312 330.972656 74.578125 331.636719 C 74.707031 332.300781 74.871094 332.957031 75.070312 333.605469 C 75.265625 334.25 75.492188 334.886719 75.753906 335.511719 C 76.011719 336.136719 76.300781 336.75 76.621094 337.347656 C 76.9375 337.941406 77.285156 338.523438 77.660156 339.085938 C 78.039062 339.648438 78.441406 340.191406 78.871094 340.714844 C 79.300781 341.238281 79.753906 341.738281 80.230469 342.214844 C 80.710938 342.695312 81.210938 343.148438 81.734375 343.578125 C 82.257812 344.007812 82.800781 344.410156 83.363281 344.785156 C 83.925781 345.164062 84.503906 345.511719 85.101562 345.828125 C 85.699219 346.148438 86.308594 346.4375 86.933594 346.695312 C 87.558594 346.953125 88.195312 347.183594 88.84375 347.378906 C 89.492188 347.574219 90.148438 347.738281 90.8125 347.871094 C 91.476562 348.003906 92.144531 348.101562 92.816406 348.167969 C 93.492188 348.234375 94.164062 348.269531 94.84375 348.269531 L 276.9375 348.269531 C 277.617188 348.269531 278.292969 348.234375 278.964844 348.167969 C 279.636719 348.101562 280.308594 348.003906 280.96875 347.871094 C 281.632812 347.738281 282.289062 347.574219 282.9375 347.378906 C 283.585938 347.183594 284.222656 346.953125 284.847656 346.695312 C 285.472656 346.4375 286.082031 346.148438 286.679688 345.828125 C 287.277344 345.511719 287.855469 345.164062 288.417969 344.785156 C 288.980469 344.410156 289.523438 344.007812 290.046875 343.578125 C 290.570312 343.148438 291.070312 342.695312 291.550781 342.214844 C 292.027344 341.738281 292.484375 341.238281 292.910156 340.714844 C 293.339844 340.191406 293.742188 339.648438 294.121094 339.085938 C 294.496094 338.523438 294.84375 337.941406 295.164062 337.347656 C 295.480469 336.75 295.769531 336.136719 296.03125 335.511719 C 296.289062 334.886719 296.515625 334.25 296.710938 333.605469 C 296.910156 332.957031 297.074219 332.300781 297.207031 331.636719 C 297.335938 330.972656 297.4375 330.304688 297.503906 329.632812 C 297.570312 328.957031 297.601562 328.28125 297.601562 327.605469 L 297.601562 47.769531 C 297.601562 47.09375 297.570312 46.417969 297.503906 45.746094 C 297.4375 45.070312 297.335938 44.402344 297.207031 43.738281 C 297.074219 43.074219 296.910156 42.417969 296.710938 41.773438 C 296.515625 41.125 296.289062 40.488281 296.03125 39.863281 C 295.769531 39.238281 295.480469 38.625 295.164062 38.03125 C 294.84375 37.433594 294.496094 36.851562 294.121094 36.289062 C 293.742188 35.726562 293.339844 35.183594 292.910156 34.660156 C 292.484375 34.136719 292.027344 33.636719 291.550781 33.160156 C 291.070312 32.679688 290.570312 32.226562 290.046875 31.796875 C 289.523438 31.367188 288.980469 30.964844 288.417969 30.589844 C 287.855469 30.214844 287.277344 29.867188 286.679688 29.546875 C 286.082031 29.226562 285.472656 28.9375 284.847656 28.679688 C 284.222656 28.421875 283.585938 28.191406 282.9375 27.996094 C 282.289062 27.800781 281.632812 27.636719 280.96875 27.503906 C 280.308594 27.371094 279.636719 27.273438 278.964844 27.207031 C 278.292969 27.140625 277.617188 27.105469 276.9375 27.105469 Z M 94.84375 27.113281 " fill-opacity="1" fill-rule="nonzero"/></g><path fill="#8cb3e4" d="M 283.242188 310.4375 L 88.554688 310.4375 C 88.046875 310.4375 87.558594 310.339844 87.089844 310.144531 C 86.621094 309.949219 86.207031 309.675781 85.851562 309.316406 C 85.492188 308.957031 85.214844 308.542969 85.019531 308.074219 C 84.828125 307.605469 84.730469 307.117188 84.730469 306.609375 L 84.730469 68.757812 C 84.730469 68.25 84.828125 67.761719 85.019531 67.292969 C 85.214844 66.824219 85.492188 66.410156 85.851562 66.050781 C 86.207031 65.695312 86.621094 65.417969 87.089844 65.222656 C 87.558594 65.027344 88.046875 64.929688 88.554688 64.929688 L 283.242188 64.929688 C 283.75 64.929688 284.238281 65.027344 284.707031 65.222656 C 285.175781 65.417969 285.589844 65.695312 285.949219 66.050781 C 286.304688 66.410156 286.582031 66.824219 286.777344 67.292969 C 286.972656 67.761719 287.066406 68.25 287.066406 68.757812 L 287.066406 306.609375 C 287.066406 307.117188 286.972656 307.605469 286.777344 308.074219 C 286.582031 308.542969 286.304688 308.957031 285.949219 309.316406 C 285.589844 309.675781 285.175781 309.949219 284.707031 310.144531 C 284.238281 310.339844 283.75 310.4375 283.242188 310.4375 Z M 92.382812 302.785156 L 279.414062 302.785156 L 279.414062 72.585938 L 92.382812 72.585938 Z M 92.382812 302.785156 " fill-opacity="1" fill-rule="nonzero"/><path fill="#8cb3e4" d="M 214.457031 50.429688 L 157.324219 50.429688 C 156.816406 50.429688 156.328125 50.332031 155.859375 50.136719 C 155.390625 49.945312 154.976562 49.667969 154.617188 49.308594 C 154.261719 48.949219 153.984375 48.535156 153.789062 48.066406 C 153.59375 47.597656 153.5 47.109375 153.5 46.601562 C 153.5 46.09375 153.59375 45.605469 153.789062 45.136719 C 153.984375 44.667969 154.261719 44.253906 154.617188 43.898438 C 154.976562 43.539062 155.390625 43.261719 155.859375 43.066406 C 156.328125 42.875 156.816406 42.777344 157.324219 42.777344 L 214.457031 42.777344 C 214.964844 42.777344 215.453125 42.875 215.921875 43.066406 C 216.390625 43.261719 216.804688 43.539062 217.164062 43.898438 C 217.523438 44.253906 217.796875 44.667969 217.992188 45.136719 C 218.1875 45.605469 218.285156 46.09375 218.285156 46.601562 C 218.285156 47.109375 218.1875 47.597656 217.992188 48.066406 C 217.796875 48.535156 217.523438 48.949219 217.164062 49.308594 C 216.804688 49.667969 216.390625 49.945312 215.921875 50.136719 C 215.453125 50.332031 214.964844 50.429688 214.457031 50.429688 Z M 214.457031 50.429688 " fill-opacity="1" fill-rule="nonzero"/><path fill="#8cb3e4" d="M 143.257812 50.429688 L 136.703125 50.429688 C 136.195312 50.429688 135.707031 50.332031 135.238281 50.136719 C 134.769531 49.945312 134.355469 49.667969 134 49.308594 C 133.640625 48.949219 133.363281 48.535156 133.167969 48.066406 C 132.972656 47.597656 132.878906 47.109375 132.878906 46.601562 C 132.878906 46.09375 132.972656 45.605469 133.167969 45.136719 C 133.363281 44.667969 133.640625 44.253906 134 43.898438 C 134.355469 43.539062 134.769531 43.261719 135.238281 43.066406 C 135.707031 42.875 136.195312 42.777344 136.703125 42.777344 L 143.257812 42.777344 C 143.765625 42.777344 144.253906 42.875 144.722656 43.066406 C 145.191406 43.261719 145.605469 43.539062 145.964844 43.898438 C 146.324219 44.253906 146.597656 44.667969 146.792969 45.136719 C 146.988281 45.605469 147.085938 46.09375 147.085938 46.601562 C 147.085938 47.109375 146.988281 47.597656 146.792969 48.066406 C 146.597656 48.535156 146.324219 48.949219 145.964844 49.308594 C 145.605469 49.667969 145.191406 49.945312 144.722656 50.136719 C 144.253906 50.332031 143.765625 50.429688 143.257812 50.429688 Z M 143.257812 50.429688 " fill-opacity="1" fill-rule="nonzero"/><path fill="#8cb3e4" d="M 185.890625 343.832031 C 184.917969 343.835938 183.957031 343.738281 183.007812 343.550781 C 182.054688 343.363281 181.132812 343.082031 180.234375 342.710938 C 179.339844 342.339844 178.488281 341.886719 177.683594 341.347656 C 176.875 340.808594 176.128906 340.195312 175.441406 339.507812 C 174.757812 338.824219 174.144531 338.078125 173.605469 337.269531 C 173.066406 336.464844 172.613281 335.613281 172.238281 334.71875 C 171.867188 333.820312 171.589844 332.898438 171.398438 331.945312 C 171.210938 330.996094 171.113281 330.035156 171.113281 329.066406 C 171.113281 328.09375 171.210938 327.132812 171.398438 326.183594 C 171.585938 325.230469 171.867188 324.308594 172.238281 323.410156 C 172.609375 322.515625 173.066406 321.664062 173.605469 320.859375 C 174.144531 320.050781 174.753906 319.304688 175.441406 318.621094 C 176.128906 317.933594 176.875 317.320312 177.679688 316.78125 C 178.484375 316.242188 179.335938 315.789062 180.234375 315.417969 C 181.128906 315.046875 182.054688 314.765625 183.003906 314.578125 C 183.957031 314.386719 184.917969 314.292969 185.886719 314.292969 C 186.855469 314.292969 187.816406 314.386719 188.769531 314.578125 C 189.71875 314.765625 190.644531 315.046875 191.539062 315.417969 C 192.433594 315.789062 193.285156 316.246094 194.09375 316.785156 C 194.898438 317.324219 195.644531 317.9375 196.332031 318.621094 C 197.015625 319.308594 197.628906 320.054688 198.167969 320.859375 C 198.707031 321.667969 199.160156 322.519531 199.53125 323.414062 C 199.902344 324.3125 200.183594 325.234375 200.371094 326.1875 C 200.5625 327.136719 200.65625 328.097656 200.65625 329.066406 C 200.65625 330.035156 200.558594 330.996094 200.367188 331.949219 C 200.179688 332.898438 199.898438 333.820312 199.527344 334.714844 C 199.15625 335.613281 198.699219 336.460938 198.160156 337.269531 C 197.625 338.074219 197.011719 338.820312 196.324219 339.503906 C 195.640625 340.191406 194.894531 340.800781 194.089844 341.339844 C 193.285156 341.878906 192.433594 342.335938 191.539062 342.707031 C 190.640625 343.078125 189.71875 343.359375 188.769531 343.546875 C 187.816406 343.738281 186.859375 343.832031 185.890625 343.832031 Z M 185.890625 321.945312 C 185.421875 321.945312 184.957031 321.992188 184.5 322.082031 C 184.042969 322.171875 183.597656 322.308594 183.164062 322.488281 C 182.734375 322.664062 182.324219 322.882812 181.933594 323.144531 C 181.546875 323.402344 181.1875 323.699219 180.855469 324.027344 C 180.523438 324.359375 180.230469 324.71875 179.96875 325.105469 C 179.710938 325.496094 179.492188 325.90625 179.3125 326.335938 C 179.132812 326.769531 178.996094 327.214844 178.90625 327.671875 C 178.8125 328.128906 178.769531 328.59375 178.769531 329.058594 C 178.769531 329.527344 178.8125 329.988281 178.902344 330.449219 C 178.996094 330.90625 179.128906 331.351562 179.308594 331.785156 C 179.488281 332.214844 179.707031 332.625 179.964844 333.015625 C 180.226562 333.402344 180.519531 333.761719 180.851562 334.09375 C 181.179688 334.425781 181.539062 334.71875 181.929688 334.980469 C 182.316406 335.238281 182.726562 335.457031 183.15625 335.636719 C 183.589844 335.816406 184.035156 335.953125 184.492188 336.042969 C 184.953125 336.136719 185.414062 336.179688 185.882812 336.179688 C 186.347656 336.179688 186.8125 336.136719 187.269531 336.046875 C 187.726562 335.953125 188.171875 335.820312 188.605469 335.640625 C 189.039062 335.460938 189.449219 335.242188 189.835938 334.984375 C 190.226562 334.722656 190.585938 334.429688 190.914062 334.097656 C 191.246094 333.769531 191.539062 333.410156 191.800781 333.019531 C 192.0625 332.632812 192.28125 332.222656 192.460938 331.789062 C 192.636719 331.359375 192.773438 330.914062 192.863281 330.457031 C 192.957031 329.996094 193.003906 329.535156 193.003906 329.066406 C 193.003906 328.601562 192.957031 328.136719 192.863281 327.679688 C 192.773438 327.222656 192.640625 326.777344 192.460938 326.34375 C 192.28125 325.914062 192.0625 325.503906 191.804688 325.113281 C 191.542969 324.726562 191.25 324.367188 190.917969 324.035156 C 190.589844 323.707031 190.230469 323.410156 189.839844 323.152344 C 189.453125 322.890625 189.042969 322.671875 188.609375 322.492188 C 188.179688 322.3125 187.734375 322.175781 187.277344 322.085938 C 186.820312 321.992188 186.355469 321.949219 185.890625 321.945312 Z M 185.890625 321.945312 " fill-opacity="1" fill-rule="nonzero"/><path fill="#8cb3e4" d="M 159.515625 124.929688 C 158.875 124.644531 158.257812 124.3125 157.664062 123.933594 C 157.070312 123.554688 156.507812 123.132812 155.976562 122.671875 C 155.449219 122.207031 154.953125 121.707031 154.5 121.171875 C 154.042969 120.636719 153.628906 120.070312 153.257812 119.46875 C 152.886719 118.871094 152.5625 118.25 152.285156 117.605469 C 152.007812 116.957031 151.777344 116.292969 151.597656 115.613281 C 151.417969 114.933594 151.292969 114.242188 151.214844 113.542969 C 151.140625 112.84375 151.117188 112.140625 151.144531 111.4375 L 151.144531 89.390625 C 151.132812 88.6875 151.375 88.082031 151.867188 87.582031 C 152.351562 87.058594 152.945312 86.804688 153.65625 86.816406 C 153.996094 86.816406 154.324219 86.878906 154.636719 87.011719 C 154.949219 87.140625 155.226562 87.324219 155.46875 87.566406 C 155.710938 87.804688 155.894531 88.082031 156.027344 88.398438 C 156.15625 88.710938 156.222656 89.039062 156.222656 89.378906 L 156.222656 111.597656 C 156.15625 113.648438 156.667969 115.542969 157.753906 117.285156 C 158.761719 118.847656 160.109375 120.023438 161.796875 120.804688 C 163.496094 121.585938 165.285156 121.980469 167.15625 121.980469 C 169.027344 121.980469 170.8125 121.585938 172.511719 120.804688 C 174.199219 120.019531 175.546875 118.847656 176.554688 117.285156 C 177.640625 115.542969 178.152344 113.648438 178.085938 111.597656 L 178.085938 89.390625 C 178.074219 88.6875 178.316406 88.082031 178.808594 87.582031 C 179.292969 87.058594 179.886719 86.804688 180.597656 86.816406 C 180.9375 86.816406 181.265625 86.878906 181.578125 87.011719 C 181.894531 87.140625 182.171875 87.324219 182.410156 87.566406 C 182.652344 87.804688 182.835938 88.082031 182.96875 88.398438 C 183.097656 88.710938 183.164062 89.039062 183.164062 89.378906 L 183.164062 111.425781 C 183.214844 112.917969 183.039062 114.378906 182.640625 115.816406 C 182.242188 117.253906 181.636719 118.59375 180.824219 119.84375 C 179.300781 122.109375 177.292969 123.804688 174.808594 124.929688 C 173.609375 125.484375 172.363281 125.902344 171.074219 126.183594 C 169.78125 126.46875 168.476562 126.609375 167.15625 126.609375 C 165.832031 126.609375 164.527344 126.46875 163.238281 126.183594 C 161.945312 125.902344 160.703125 125.484375 159.5 124.929688 Z M 159.515625 124.929688 " fill-opacity="1" fill-rule="nonzero"/><path fill="#8cb3e4" d="M 167.164062 127.382812 C 164.382812 127.382812 161.726562 126.800781 159.199219 125.640625 C 158.523438 125.339844 157.875 124.988281 157.25 124.589844 C 156.625 124.191406 156.035156 123.746094 155.476562 123.257812 C 154.917969 122.773438 154.398438 122.246094 153.917969 121.683594 C 153.441406 121.117188 153.003906 120.519531 152.613281 119.890625 C 152.222656 119.261719 151.878906 118.605469 151.585938 117.925781 C 151.292969 117.246094 151.054688 116.546875 150.863281 115.832031 C 150.675781 115.117188 150.539062 114.390625 150.457031 113.652344 C 150.375 112.917969 150.351562 112.179688 150.378906 111.4375 L 150.378906 89.390625 C 150.371094 88.71875 150.554688 88.105469 150.921875 87.542969 C 151.292969 86.984375 151.785156 86.578125 152.40625 86.320312 C 153.023438 86.0625 153.664062 85.996094 154.320312 86.128906 C 154.976562 86.261719 155.542969 86.566406 156.011719 87.042969 C 156.675781 87.6875 157 88.46875 156.988281 89.390625 L 156.988281 111.609375 C 156.929688 113.515625 157.40625 115.277344 158.414062 116.894531 C 159.347656 118.332031 160.589844 119.414062 162.144531 120.140625 C 163.746094 120.871094 165.421875 121.234375 167.179688 121.234375 C 168.941406 121.234375 170.617188 120.871094 172.21875 120.140625 C 173.769531 119.414062 175.011719 118.335938 175.945312 116.898438 C 176.941406 115.285156 177.410156 113.527344 177.351562 111.628906 L 177.351562 89.390625 C 177.34375 88.71875 177.527344 88.105469 177.894531 87.542969 C 178.265625 86.984375 178.757812 86.578125 179.378906 86.320312 C 179.996094 86.0625 180.636719 85.996094 181.292969 86.128906 C 181.949219 86.261719 182.515625 86.566406 182.984375 87.042969 C 183.648438 87.6875 183.972656 88.46875 183.960938 89.390625 L 183.960938 111.4375 C 183.988281 112.179688 183.964844 112.914062 183.882812 113.652344 C 183.804688 114.386719 183.667969 115.113281 183.480469 115.828125 C 183.292969 116.546875 183.050781 117.242188 182.757812 117.921875 C 182.464844 118.601562 182.125 119.257812 181.734375 119.886719 C 181.34375 120.515625 180.910156 121.113281 180.429688 121.679688 C 179.953125 122.242188 179.433594 122.769531 178.878906 123.257812 C 178.320312 123.746094 177.730469 124.1875 177.105469 124.585938 C 176.484375 124.988281 175.835938 125.339844 175.160156 125.640625 C 172.621094 126.804688 169.957031 127.386719 167.164062 127.382812 Z M 153.652344 87.585938 C 153.160156 87.570312 152.75 87.746094 152.417969 88.109375 C 152.066406 88.460938 151.894531 88.886719 151.90625 89.386719 L 151.90625 111.433594 C 151.8125 114.320312 152.550781 116.976562 154.113281 119.402344 C 155.5625 121.554688 157.46875 123.167969 159.832031 124.242188 C 160.980469 124.769531 162.171875 125.164062 163.410156 125.433594 C 164.644531 125.703125 165.894531 125.839844 167.160156 125.839844 C 168.421875 125.839844 169.671875 125.703125 170.910156 125.433594 C 172.144531 125.164062 173.335938 124.769531 174.484375 124.242188 C 176.847656 123.167969 178.753906 121.554688 180.199219 119.402344 C 180.964844 118.214844 181.535156 116.945312 181.910156 115.585938 C 182.289062 114.226562 182.453125 112.84375 182.40625 111.433594 L 182.40625 89.390625 C 182.40625 89.03125 182.308594 88.703125 182.109375 88.402344 C 181.910156 88.101562 181.644531 87.882812 181.3125 87.746094 C 180.984375 87.605469 180.640625 87.570312 180.289062 87.636719 C 179.933594 87.703125 179.628906 87.863281 179.371094 88.113281 C 179.019531 88.464844 178.851562 88.890625 178.859375 89.390625 L 178.859375 111.609375 C 178.921875 113.8125 178.367188 115.847656 177.199219 117.714844 C 176.113281 119.398438 174.660156 120.664062 172.839844 121.507812 C 171.949219 121.917969 171.023438 122.226562 170.066406 122.4375 C 169.109375 122.644531 168.140625 122.75 167.160156 122.75 C 166.179688 122.75 165.207031 122.644531 164.25 122.4375 C 163.292969 122.226562 162.367188 121.917969 161.476562 121.507812 C 159.65625 120.664062 158.203125 119.394531 157.113281 117.710938 C 155.941406 115.84375 155.386719 113.808594 155.449219 111.605469 L 155.449219 89.390625 C 155.457031 88.890625 155.28125 88.46875 154.921875 88.125 C 154.578125 87.757812 154.15625 87.578125 153.652344 87.589844 Z M 153.652344 87.585938 " fill-opacity="1" fill-rule="nonzero"/><path fill="#8cb3e4" d="M 191.464844 125.644531 C 190.992188 125.195312 190.757812 124.644531 190.765625 123.992188 C 190.753906 123.414062 190.921875 122.894531 191.269531 122.429688 L 204.160156 106.5625 L 191.378906 90.824219 C 191.035156 90.363281 190.867188 89.839844 190.878906 89.265625 C 190.867188 88.9375 190.925781 88.617188 191.042969 88.3125 C 191.164062 88.007812 191.34375 87.738281 191.574219 87.507812 C 191.808594 87.273438 192.074219 87.097656 192.382812 86.976562 C 192.6875 86.855469 193.003906 86.800781 193.332031 86.8125 C 193.746094 86.808594 194.136719 86.902344 194.507812 87.085938 C 194.859375 87.257812 195.160156 87.5 195.398438 87.8125 L 207.175781 102.773438 L 218.953125 87.703125 C 219.160156 87.402344 219.429688 87.175781 219.757812 87.015625 C 220.085938 86.855469 220.429688 86.789062 220.792969 86.8125 C 221.46875 86.800781 222.042969 87.035156 222.523438 87.507812 C 223.019531 87.96875 223.261719 88.535156 223.25 89.210938 C 223.257812 89.726562 223.109375 90.191406 222.804688 90.605469 L 209.90625 106.511719 L 222.804688 122.363281 C 223.160156 122.78125 223.328125 123.265625 223.304688 123.8125 C 223.324219 124.507812 223.089844 125.101562 222.609375 125.601562 C 222.476562 125.726562 222.335938 125.839844 222.179688 125.9375 C 222.027344 126.035156 221.863281 126.113281 221.691406 126.175781 C 221.519531 126.238281 221.34375 126.28125 221.160156 126.304688 C 220.980469 126.328125 220.796875 126.332031 220.617188 126.316406 C 220.433594 126.300781 220.257812 126.265625 220.082031 126.210938 C 219.90625 126.15625 219.742188 126.082031 219.582031 125.992188 C 219.425781 125.898438 219.277344 125.792969 219.144531 125.671875 C 219.007812 125.546875 218.886719 125.410156 218.78125 125.261719 L 206.839844 110.25 L 195.0625 125.324219 C 194.570312 125.976562 193.921875 126.308594 193.105469 126.324219 C 192.460938 126.332031 191.914062 126.105469 191.464844 125.644531 Z M 191.464844 125.644531 " fill-opacity="1" fill-rule="nonzero"/><path fill="#8cb3e4" d="M 220.785156 127.105469 C 220.261719 127.105469 219.765625 126.988281 219.304688 126.742188 C 218.839844 126.5 218.457031 126.164062 218.160156 125.730469 L 206.847656 111.5 L 195.664062 125.808594 C 195.53125 125.992188 195.382812 126.160156 195.214844 126.3125 C 195.046875 126.460938 194.863281 126.59375 194.664062 126.703125 C 194.46875 126.8125 194.261719 126.902344 194.046875 126.96875 C 193.828125 127.035156 193.609375 127.078125 193.382812 127.09375 C 193.15625 127.113281 192.933594 127.105469 192.710938 127.078125 C 192.484375 127.046875 192.265625 126.992188 192.054688 126.914062 C 191.84375 126.835938 191.640625 126.738281 191.449219 126.613281 C 191.261719 126.492188 191.085938 126.351562 190.925781 126.191406 C 190.296875 125.597656 189.988281 124.867188 190 124 C 189.988281 123.253906 190.207031 122.578125 190.65625 121.980469 L 203.183594 106.5625 L 190.789062 91.308594 C 190.332031 90.703125 190.109375 90.023438 190.121094 89.265625 C 190.097656 88.363281 190.40625 87.597656 191.046875 86.96875 C 191.296875 86.726562 191.578125 86.53125 191.890625 86.378906 C 192.199219 86.226562 192.527344 86.125 192.871094 86.074219 C 193.214844 86.023438 193.554688 86.027344 193.898438 86.085938 C 194.242188 86.140625 194.566406 86.25 194.875 86.410156 C 195.332031 86.636719 195.714844 86.953125 196.019531 87.359375 L 207.179688 101.539062 L 218.355469 87.230469 C 218.496094 87.0625 218.652344 86.90625 218.824219 86.765625 C 218.996094 86.628906 219.183594 86.507812 219.378906 86.410156 C 219.578125 86.308594 219.78125 86.230469 219.996094 86.171875 C 220.210938 86.113281 220.425781 86.078125 220.648438 86.066406 C 220.867188 86.050781 221.089844 86.0625 221.308594 86.09375 C 221.527344 86.128906 221.738281 86.183594 221.945312 86.257812 C 222.152344 86.335938 222.351562 86.433594 222.539062 86.550781 C 222.726562 86.667969 222.898438 86.804688 223.058594 86.957031 C 223.714844 87.566406 224.035156 88.320312 224.023438 89.214844 C 224.027344 89.894531 223.832031 90.507812 223.429688 91.058594 L 210.902344 106.515625 L 223.402344 121.882812 C 223.875 122.433594 224.101562 123.074219 224.082031 123.796875 C 224.097656 124.695312 223.792969 125.46875 223.167969 126.113281 C 222.519531 126.800781 221.726562 127.128906 220.785156 127.105469 Z M 206.832031 109.027344 L 219.375 124.804688 C 219.582031 125.132812 219.863281 125.363281 220.226562 125.496094 C 220.589844 125.632812 220.957031 125.640625 221.328125 125.527344 C 221.695312 125.414062 221.992188 125.199219 222.21875 124.882812 C 222.441406 124.566406 222.546875 124.214844 222.53125 123.828125 C 222.554688 123.472656 222.453125 123.160156 222.226562 122.890625 L 208.925781 106.527344 L 222.207031 90.140625 C 222.398438 89.867188 222.492188 89.5625 222.484375 89.226562 C 222.496094 88.769531 222.335938 88.386719 221.996094 88.078125 C 221.664062 87.746094 221.261719 87.585938 220.792969 87.59375 C 220.28125 87.542969 219.878906 87.730469 219.585938 88.152344 L 207.179688 104.035156 L 194.796875 88.308594 C 194.628906 88.082031 194.417969 87.910156 194.160156 87.789062 C 193.828125 87.613281 193.472656 87.550781 193.097656 87.601562 C 192.722656 87.652344 192.394531 87.808594 192.117188 88.066406 C 191.78125 88.402344 191.625 88.808594 191.644531 89.28125 C 191.628906 89.691406 191.746094 90.058594 191.992188 90.386719 L 205.148438 106.5625 L 191.867188 122.898438 C 191.632812 123.21875 191.523438 123.582031 191.53125 123.976562 C 191.527344 124.417969 191.683594 124.785156 192.003906 125.085938 C 192.171875 125.261719 192.371094 125.390625 192.597656 125.472656 C 192.824219 125.554688 193.058594 125.585938 193.300781 125.5625 C 193.539062 125.535156 193.761719 125.460938 193.96875 125.332031 C 194.175781 125.207031 194.34375 125.039062 194.472656 124.835938 Z M 206.832031 109.027344 " fill-opacity="1" fill-rule="nonzero"/><path fill="#8cb3e4" d="M 165.222656 197.699219 C 164.578125 197.410156 163.960938 197.078125 163.367188 196.699219 C 162.773438 196.320312 162.210938 195.898438 161.679688 195.433594 C 161.148438 194.972656 160.65625 194.46875 160.199219 193.933594 C 159.746094 193.398438 159.332031 192.828125 158.960938 192.230469 C 158.589844 191.632812 158.265625 191.007812 157.984375 190.363281 C 157.707031 189.714844 157.480469 189.050781 157.300781 188.367188 C 157.121094 187.6875 156.992188 186.996094 156.917969 186.296875 C 156.839844 185.597656 156.816406 184.894531 156.847656 184.191406 L 156.847656 162.144531 C 156.835938 161.4375 157.078125 160.832031 157.574219 160.328125 C 158.054688 159.808594 158.648438 159.554688 159.355469 159.5625 C 159.695312 159.5625 160.023438 159.628906 160.339844 159.757812 C 160.65625 159.890625 160.933594 160.074219 161.171875 160.316406 C 161.414062 160.558594 161.597656 160.835938 161.730469 161.152344 C 161.859375 161.464844 161.925781 161.792969 161.925781 162.136719 L 161.925781 184.328125 C 161.859375 186.382812 162.367188 188.28125 163.453125 190.027344 C 164.460938 191.589844 165.8125 192.757812 167.5 193.539062 C 169.199219 194.320312 170.984375 194.707031 172.855469 194.707031 C 174.726562 194.707031 176.511719 194.320312 178.214844 193.539062 C 179.902344 192.757812 181.25 191.589844 182.257812 190.027344 C 183.34375 188.28125 183.851562 186.382812 183.789062 184.328125 L 183.789062 162.136719 C 183.777344 161.425781 184.019531 160.820312 184.515625 160.316406 C 184.996094 159.796875 185.589844 159.542969 186.296875 159.550781 C 186.640625 159.550781 186.96875 159.617188 187.28125 159.746094 C 187.597656 159.878906 187.875 160.0625 188.117188 160.304688 C 188.355469 160.546875 188.542969 160.824219 188.671875 161.140625 C 188.800781 161.453125 188.867188 161.78125 188.867188 162.125 L 188.867188 184.167969 C 188.914062 185.65625 188.742188 187.121094 188.339844 188.554688 C 187.941406 189.992188 187.335938 191.335938 186.523438 192.585938 C 185 194.859375 182.992188 196.5625 180.496094 197.691406 C 179.296875 198.242188 178.050781 198.660156 176.761719 198.941406 C 175.472656 199.226562 174.164062 199.367188 172.84375 199.367188 C 171.523438 199.367188 170.21875 199.222656 168.925781 198.941406 C 167.636719 198.660156 166.390625 198.242188 165.191406 197.691406 Z M 165.222656 197.699219 " fill-opacity="1" fill-rule="nonzero"/><path fill="#8cb3e4" d="M 172.867188 200.136719 C 170.09375 200.132812 167.445312 199.550781 164.921875 198.398438 C 162.300781 197.210938 160.183594 195.425781 158.574219 193.042969 C 157.722656 191.730469 157.085938 190.320312 156.660156 188.8125 C 156.238281 187.304688 156.050781 185.769531 156.097656 184.207031 L 156.097656 162.144531 C 156.085938 161.472656 156.265625 160.855469 156.632812 160.296875 C 157 159.734375 157.496094 159.320312 158.113281 159.0625 C 158.734375 158.800781 159.375 158.738281 160.03125 158.871094 C 160.691406 159.003906 161.257812 159.308594 161.730469 159.785156 C 162.394531 160.429688 162.722656 161.21875 162.707031 162.144531 L 162.707031 184.339844 C 162.648438 186.238281 163.117188 188 164.117188 189.617188 C 165.046875 191.054688 166.289062 192.132812 167.84375 192.855469 C 169.441406 193.585938 171.121094 193.949219 172.878906 193.949219 C 174.636719 193.949219 176.316406 193.585938 177.914062 192.855469 C 179.46875 192.132812 180.714844 191.050781 181.644531 189.613281 C 182.644531 187.996094 183.113281 186.234375 183.054688 184.335938 L 183.054688 162.140625 C 183.042969 161.46875 183.222656 160.851562 183.589844 160.292969 C 183.957031 159.730469 184.453125 159.316406 185.070312 159.058594 C 185.691406 158.796875 186.332031 158.734375 186.988281 158.867188 C 187.648438 159 188.214844 159.304688 188.6875 159.78125 C 189.351562 160.429688 189.675781 161.214844 189.660156 162.140625 L 189.660156 184.1875 C 189.707031 185.75 189.519531 187.285156 189.097656 188.792969 C 188.675781 190.296875 188.039062 191.707031 187.1875 193.019531 C 185.578125 195.402344 183.464844 197.1875 180.847656 198.375 C 178.3125 199.542969 175.65625 200.128906 172.867188 200.136719 Z M 159.355469 160.339844 C 158.863281 160.328125 158.453125 160.503906 158.121094 160.863281 C 157.769531 161.21875 157.601562 161.648438 157.613281 162.144531 L 157.613281 184.191406 C 157.519531 187.078125 158.257812 189.734375 159.824219 192.160156 C 161.269531 194.316406 163.171875 195.925781 165.535156 196.996094 C 166.683594 197.527344 167.878906 197.925781 169.113281 198.195312 C 170.347656 198.464844 171.597656 198.601562 172.863281 198.601562 C 174.128906 198.601562 175.378906 198.464844 176.613281 198.195312 C 177.851562 197.925781 179.042969 197.527344 180.191406 196.996094 C 182.554688 195.929688 184.460938 194.3125 185.90625 192.15625 C 187.46875 189.730469 188.203125 187.074219 188.113281 184.191406 L 188.113281 162.144531 C 188.125 161.644531 187.949219 161.21875 187.585938 160.871094 C 187.421875 160.699219 187.230469 160.566406 187.011719 160.472656 C 186.792969 160.378906 186.566406 160.332031 186.328125 160.332031 C 186.089844 160.332031 185.863281 160.378906 185.644531 160.472656 C 185.429688 160.566406 185.238281 160.699219 185.074219 160.871094 C 184.722656 161.226562 184.554688 161.65625 184.566406 162.152344 L 184.566406 184.347656 C 184.628906 186.554688 184.074219 188.597656 182.90625 190.46875 C 181.816406 192.152344 180.363281 193.417969 178.542969 194.257812 C 177.652344 194.667969 176.726562 194.976562 175.769531 195.1875 C 174.808594 195.394531 173.839844 195.5 172.859375 195.5 C 171.878906 195.5 170.910156 195.394531 169.953125 195.1875 C 168.992188 194.976562 168.070312 194.667969 167.175781 194.257812 C 165.359375 193.417969 163.90625 192.15625 162.820312 190.472656 C 161.648438 188.601562 161.09375 186.558594 161.15625 184.351562 L 161.15625 162.15625 C 161.167969 161.65625 160.992188 161.230469 160.625 160.882812 C 160.28125 160.515625 159.859375 160.335938 159.355469 160.339844 Z M 159.355469 160.339844 " fill-opacity="1" fill-rule="nonzero"/><path fill="#8cb3e4" d="M 200.15625 198.367188 C 199.65625 197.878906 199.414062 197.285156 199.429688 196.585938 L 199.429688 162.144531 C 199.417969 161.4375 199.660156 160.832031 200.15625 160.328125 C 200.636719 159.808594 201.234375 159.554688 201.941406 159.5625 C 202.28125 159.5625 202.609375 159.628906 202.921875 159.761719 C 203.238281 159.890625 203.515625 160.078125 203.753906 160.320312 C 203.996094 160.558594 204.183594 160.835938 204.3125 161.152344 C 204.441406 161.464844 204.507812 161.792969 204.507812 162.136719 L 204.507812 196.574219 C 204.519531 197.28125 204.265625 197.875 203.742188 198.355469 C 203.238281 198.851562 202.636719 199.09375 201.929688 199.082031 C 201.238281 199.09375 200.648438 198.855469 200.15625 198.367188 Z M 200.15625 198.367188 " fill-opacity="1" fill-rule="nonzero"/><path fill="#8cb3e4" d="M 201.941406 199.859375 C 201.03125 199.875 200.257812 199.558594 199.617188 198.910156 C 198.96875 198.269531 198.652344 197.496094 198.667969 196.585938 L 198.667969 162.144531 C 198.652344 161.230469 198.96875 160.445312 199.609375 159.792969 C 199.921875 159.484375 200.28125 159.246094 200.6875 159.078125 C 201.09375 158.910156 201.515625 158.828125 201.957031 158.828125 C 202.394531 158.828125 202.820312 158.910156 203.226562 159.078125 C 203.632812 159.246094 203.988281 159.484375 204.300781 159.792969 C 204.964844 160.441406 205.292969 161.226562 205.277344 162.152344 L 205.277344 196.59375 C 205.292969 197.515625 204.964844 198.296875 204.289062 198.929688 C 203.636719 199.5625 202.851562 199.875 201.941406 199.859375 Z M 200.695312 197.828125 C 200.863281 197.992188 201.058594 198.117188 201.277344 198.207031 C 201.496094 198.292969 201.722656 198.339844 201.960938 198.339844 C 202.195312 198.339844 202.425781 198.292969 202.644531 198.207031 C 202.863281 198.117188 203.054688 197.992188 203.226562 197.828125 C 203.585938 197.496094 203.757812 197.085938 203.742188 196.597656 L 203.742188 162.15625 C 203.757812 161.65625 203.582031 161.230469 203.214844 160.882812 C 202.960938 160.625 202.660156 160.460938 202.304688 160.386719 C 201.949219 160.316406 201.605469 160.351562 201.269531 160.492188 C 200.9375 160.632812 200.671875 160.855469 200.476562 161.160156 C 200.28125 161.464844 200.1875 161.796875 200.195312 162.15625 L 200.195312 196.597656 C 200.1875 197.078125 200.351562 197.488281 200.695312 197.828125 Z M 200.695312 197.828125 " fill-opacity="1" fill-rule="nonzero"/><path fill="#8cb3e4" d="M 260.582031 145.277344 L 111.183594 145.277344 C 110.679688 145.277344 110.191406 145.179688 109.722656 144.984375 C 109.253906 144.789062 108.839844 144.511719 108.480469 144.15625 C 108.121094 143.796875 107.84375 143.382812 107.648438 142.914062 C 107.457031 142.445312 107.359375 141.957031 107.359375 141.449219 C 107.359375 140.941406 107.457031 140.453125 107.648438 139.984375 C 107.84375 139.515625 108.121094 139.101562 108.480469 138.742188 C 108.839844 138.382812 109.253906 138.109375 109.722656 137.914062 C 110.191406 137.71875 110.679688 137.621094 111.183594 137.621094 L 260.582031 137.621094 C 261.089844 137.621094 261.578125 137.71875 262.046875 137.914062 C 262.515625 138.109375 262.929688 138.382812 263.285156 138.742188 C 263.644531 139.101562 263.921875 139.515625 264.117188 139.984375 C 264.3125 140.453125 264.40625 140.941406 264.40625 141.449219 C 264.40625 141.957031 264.3125 142.445312 264.117188 142.914062 C 263.921875 143.382812 263.644531 143.796875 263.285156 144.15625 C 262.929688 144.511719 262.515625 144.789062 262.046875 144.984375 C 261.578125 145.179688 261.089844 145.277344 260.582031 145.277344 Z M 260.582031 145.277344 " fill-opacity="1" fill-rule="nonzero"/><path fill="#8cb3e4" d="M 257.386719 287.515625 L 114.410156 287.515625 C 113.902344 287.515625 113.414062 287.417969 112.945312 287.226562 C 112.476562 287.03125 112.0625 286.753906 111.707031 286.394531 C 111.347656 286.035156 111.070312 285.621094 110.875 285.152344 C 110.679688 284.683594 110.585938 284.195312 110.585938 283.691406 C 110.585938 283.183594 110.679688 282.695312 110.875 282.226562 C 111.070312 281.757812 111.347656 281.34375 111.707031 280.984375 C 112.0625 280.625 112.476562 280.347656 112.945312 280.15625 C 113.414062 279.960938 113.902344 279.863281 114.410156 279.863281 L 257.386719 279.863281 C 257.894531 279.863281 258.382812 279.960938 258.851562 280.15625 C 259.320312 280.347656 259.734375 280.625 260.09375 280.984375 C 260.449219 281.34375 260.726562 281.757812 260.921875 282.226562 C 261.117188 282.695312 261.210938 283.183594 261.210938 283.691406 C 261.210938 284.195312 261.117188 284.683594 260.921875 285.152344 C 260.726562 285.621094 260.449219 286.035156 260.09375 286.394531 C 259.734375 286.753906 259.320312 287.03125 258.851562 287.226562 C 258.382812 287.417969 257.894531 287.515625 257.386719 287.515625 Z M 257.386719 287.515625 " fill-opacity="1" fill-rule="nonzero"/><path fill="#8cb3e4" d="M 233.910156 268.351562 L 137.867188 268.351562 C 137.359375 268.351562 136.871094 268.257812 136.402344 268.0625 C 135.933594 267.867188 135.519531 267.589844 135.160156 267.234375 C 134.800781 266.875 134.527344 266.460938 134.332031 265.992188 C 134.136719 265.523438 134.039062 265.035156 134.039062 264.527344 C 134.039062 264.019531 134.136719 263.53125 134.332031 263.0625 C 134.527344 262.59375 134.800781 262.179688 135.160156 261.820312 C 135.519531 261.460938 135.933594 261.1875 136.402344 260.992188 C 136.871094 260.796875 137.359375 260.699219 137.867188 260.699219 L 233.910156 260.699219 C 234.417969 260.699219 234.90625 260.796875 235.375 260.992188 C 235.84375 261.1875 236.257812 261.460938 236.617188 261.820312 C 236.976562 262.179688 237.25 262.59375 237.445312 263.0625 C 237.640625 263.53125 237.738281 264.019531 237.738281 264.527344 C 237.738281 265.035156 237.640625 265.523438 237.445312 265.992188 C 237.25 266.460938 236.976562 266.875 236.617188 267.234375 C 236.257812 267.589844 235.84375 267.867188 235.375 268.0625 C 234.90625 268.257812 234.417969 268.351562 233.910156 268.351562 Z M 233.910156 268.351562 " fill-opacity="1" fill-rule="nonzero"/><path fill="#8cb3e4" d="M 213.574219 251.449219 L 158.203125 251.449219 C 157.503906 251.445312 156.808594 251.378906 156.121094 251.242188 C 155.4375 251.101562 154.769531 250.898438 154.121094 250.632812 C 153.472656 250.363281 152.859375 250.035156 152.277344 249.644531 C 151.695312 249.253906 151.15625 248.8125 150.660156 248.316406 C 150.164062 247.820312 149.722656 247.28125 149.332031 246.699219 C 148.941406 246.117188 148.613281 245.503906 148.34375 244.855469 C 148.078125 244.207031 147.875 243.539062 147.738281 242.855469 C 147.597656 242.167969 147.53125 241.472656 147.527344 240.773438 L 147.527344 222.789062 C 147.53125 222.085938 147.597656 221.394531 147.738281 220.707031 C 147.875 220.019531 148.078125 219.351562 148.34375 218.703125 C 148.613281 218.058594 148.941406 217.441406 149.332031 216.859375 C 149.722656 216.277344 150.164062 215.738281 150.660156 215.242188 C 151.15625 214.746094 151.695312 214.304688 152.277344 213.914062 C 152.859375 213.527344 153.472656 213.199219 154.121094 212.929688 C 154.769531 212.660156 155.4375 212.457031 156.121094 212.320312 C 156.808594 212.183594 157.503906 212.113281 158.203125 212.113281 L 213.574219 212.113281 C 214.273438 212.113281 214.96875 212.183594 215.65625 212.320312 C 216.34375 212.457031 217.011719 212.660156 217.65625 212.929688 C 218.304688 213.195312 218.917969 213.523438 219.5 213.914062 C 220.085938 214.304688 220.625 214.746094 221.117188 215.242188 C 221.613281 215.738281 222.058594 216.277344 222.445312 216.859375 C 222.835938 217.441406 223.164062 218.058594 223.433594 218.703125 C 223.703125 219.351562 223.90625 220.019531 224.042969 220.707031 C 224.179688 221.394531 224.25 222.085938 224.25 222.789062 L 224.25 240.773438 C 224.25 241.472656 224.179688 242.167969 224.042969 242.855469 C 223.90625 243.542969 223.703125 244.207031 223.433594 244.855469 C 223.164062 245.503906 222.835938 246.117188 222.445312 246.699219 C 222.058594 247.285156 221.613281 247.824219 221.117188 248.316406 C 220.625 248.8125 220.085938 249.257812 219.5 249.644531 C 218.917969 250.035156 218.304688 250.363281 217.65625 250.632812 C 217.011719 250.902344 216.34375 251.105469 215.65625 251.242188 C 214.96875 251.378906 214.273438 251.449219 213.574219 251.449219 Z M 158.203125 219.765625 C 157.804688 219.765625 157.417969 219.84375 157.046875 219.996094 C 156.679688 220.148438 156.351562 220.367188 156.066406 220.652344 C 155.785156 220.933594 155.566406 221.261719 155.414062 221.632812 C 155.257812 222 155.183594 222.386719 155.183594 222.789062 L 155.183594 240.773438 C 155.183594 241.171875 155.257812 241.558594 155.414062 241.929688 C 155.566406 242.296875 155.785156 242.625 156.066406 242.910156 C 156.351562 243.191406 156.679688 243.410156 157.046875 243.5625 C 157.417969 243.71875 157.804688 243.792969 158.203125 243.796875 L 213.574219 243.796875 C 213.972656 243.792969 214.359375 243.71875 214.730469 243.5625 C 215.101562 243.410156 215.425781 243.191406 215.710938 242.910156 C 215.992188 242.625 216.210938 242.296875 216.363281 241.929688 C 216.519531 241.558594 216.597656 241.171875 216.597656 240.773438 L 216.597656 222.789062 C 216.597656 222.386719 216.519531 222 216.363281 221.632812 C 216.210938 221.261719 215.992188 220.933594 215.710938 220.652344 C 215.425781 220.367188 215.101562 220.148438 214.730469 219.996094 C 214.359375 219.84375 213.972656 219.765625 213.574219 219.765625 Z M 158.203125 219.765625 " fill-opacity="1" fill-rule="nonzero"/><path fill="#8cb3e4" d="M 324.484375 109.101562 L 260.582031 109.101562 C 260.074219 109.101562 259.585938 109.003906 259.117188 108.808594 C 258.648438 108.613281 258.234375 108.339844 257.875 107.980469 C 257.515625 107.621094 257.242188 107.207031 257.046875 106.738281 C 256.851562 106.269531 256.753906 105.78125 256.753906 105.273438 C 256.753906 104.765625 256.851562 104.277344 257.046875 103.808594 C 257.242188 103.339844 257.515625 102.925781 257.875 102.566406 C 258.234375 102.210938 258.648438 101.933594 259.117188 101.738281 C 259.585938 101.542969 260.074219 101.449219 260.582031 101.449219 L 324.484375 101.449219 C 324.992188 101.449219 325.480469 101.542969 325.949219 101.738281 C 326.417969 101.933594 326.828125 102.210938 327.1875 102.566406 C 327.546875 102.925781 327.824219 103.339844 328.019531 103.808594 C 328.210938 104.277344 328.308594 104.765625 328.308594 105.273438 C 328.308594 105.78125 328.210938 106.269531 328.019531 106.738281 C 327.824219 107.207031 327.546875 107.621094 327.1875 107.980469 C 326.828125 108.339844 326.417969 108.613281 325.949219 108.808594 C 325.480469 109.003906 324.992188 109.101562 324.484375 109.101562 Z M 324.484375 109.101562 " fill-opacity="1" fill-rule="nonzero"/><g clip-path="url(#831b9a86ca)"><path fill="#8cb3e4" d="M 371.164062 132.449219 L 324.484375 132.449219 C 323.976562 132.449219 323.488281 132.351562 323.019531 132.15625 C 322.550781 131.964844 322.136719 131.6875 321.777344 131.328125 C 321.417969 130.96875 321.140625 130.554688 320.949219 130.085938 C 320.753906 129.617188 320.65625 129.128906 320.65625 128.621094 L 320.65625 81.941406 C 320.65625 81.433594 320.753906 80.945312 320.949219 80.476562 C 321.140625 80.007812 321.417969 79.59375 321.777344 79.234375 C 322.136719 78.875 322.550781 78.597656 323.019531 78.40625 C 323.488281 78.210938 323.976562 78.113281 324.484375 78.113281 L 371.164062 78.113281 C 371.671875 78.113281 372.160156 78.210938 372.628906 78.40625 C 373.097656 78.597656 373.511719 78.875 373.871094 79.234375 C 374.230469 79.59375 374.507812 80.007812 374.699219 80.476562 C 374.894531 80.945312 374.992188 81.433594 374.992188 81.941406 L 374.992188 128.621094 C 374.992188 129.128906 374.894531 129.617188 374.699219 130.085938 C 374.507812 130.554688 374.230469 130.96875 373.871094 131.328125 C 373.511719 131.6875 373.097656 131.964844 372.628906 132.15625 C 372.160156 132.351562 371.671875 132.449219 371.164062 132.449219 Z M 328.308594 124.796875 L 367.339844 124.796875 L 367.339844 85.765625 L 328.308594 85.765625 Z M 328.308594 124.796875 " fill-opacity="1" fill-rule="nonzero"/></g><path fill="#8cb3e4" d="M 357.574219 102.28125 L 338.058594 102.28125 C 337.550781 102.28125 337.0625 102.183594 336.59375 101.988281 C 336.125 101.796875 335.710938 101.519531 335.355469 101.160156 C 334.996094 100.800781 334.71875 100.386719 334.523438 99.917969 C 334.328125 99.449219 334.234375 98.960938 334.234375 98.453125 C 334.234375 97.949219 334.328125 97.460938 334.523438 96.992188 C 334.71875 96.523438 334.996094 96.109375 335.355469 95.75 C 335.710938 95.390625 336.125 95.113281 336.59375 94.917969 C 337.0625 94.726562 337.550781 94.628906 338.058594 94.628906 L 357.574219 94.628906 C 358.082031 94.628906 358.570312 94.726562 359.039062 94.917969 C 359.507812 95.113281 359.921875 95.390625 360.28125 95.75 C 360.640625 96.109375 360.914062 96.523438 361.109375 96.992188 C 361.304688 97.460938 361.402344 97.949219 361.402344 98.453125 C 361.402344 98.960938 361.304688 99.449219 361.109375 99.917969 C 360.914062 100.386719 360.640625 100.800781 360.28125 101.160156 C 359.921875 101.519531 359.507812 101.796875 359.039062 101.988281 C 358.570312 102.183594 358.082031 102.28125 357.574219 102.28125 Z M 357.574219 102.28125 " fill-opacity="1" fill-rule="nonzero"/><path fill="#8cb3e4" d="M 357.574219 115.921875 L 338.058594 115.921875 C 337.550781 115.921875 337.0625 115.824219 336.59375 115.632812 C 336.125 115.4375 335.710938 115.160156 335.355469 114.800781 C 334.996094 114.441406 334.71875 114.03125 334.523438 113.5625 C 334.328125 113.09375 334.234375 112.605469 334.234375 112.097656 C 334.234375 111.589844 334.328125 111.101562 334.523438 110.632812 C 334.71875 110.164062 334.996094 109.75 335.355469 109.390625 C 335.710938 109.03125 336.125 108.753906 336.59375 108.5625 C 337.0625 108.367188 337.550781 108.269531 338.058594 108.269531 L 357.574219 108.269531 C 358.082031 108.269531 358.570312 108.367188 359.039062 108.5625 C 359.507812 108.753906 359.921875 109.03125 360.28125 109.390625 C 360.640625 109.75 360.914062 110.164062 361.109375 110.632812 C 361.304688 111.101562 361.402344 111.589844 361.402344 112.097656 C 361.402344 112.605469 361.304688 113.09375 361.109375 113.5625 C 360.914062 114.03125 360.640625 114.441406 360.28125 114.800781 C 359.921875 115.160156 359.507812 115.4375 359.039062 115.632812 C 358.570312 115.824219 358.082031 115.921875 357.574219 115.921875 Z M 357.574219 115.921875 " fill-opacity="1" fill-rule="nonzero"/><path fill="#8cb3e4" d="M 114.410156 182.28125 L 50.507812 182.28125 C 50 182.28125 49.511719 182.183594 49.042969 181.988281 C 48.574219 181.796875 48.164062 181.519531 47.804688 181.160156 C 47.445312 180.800781 47.167969 180.386719 46.972656 179.917969 C 46.78125 179.449219 46.683594 178.960938 46.683594 178.453125 C 46.683594 177.945312 46.78125 177.460938 46.972656 176.992188 C 47.167969 176.519531 47.445312 176.109375 47.804688 175.75 C 48.164062 175.390625 48.574219 175.113281 49.042969 174.917969 C 49.511719 174.726562 50 174.628906 50.507812 174.628906 L 114.410156 174.628906 C 114.917969 174.628906 115.40625 174.726562 115.875 174.917969 C 116.34375 175.113281 116.757812 175.390625 117.117188 175.75 C 117.476562 176.109375 117.75 176.519531 117.945312 176.992188 C 118.140625 177.460938 118.238281 177.945312 118.238281 178.453125 C 118.238281 178.960938 118.140625 179.449219 117.945312 179.917969 C 117.75 180.386719 117.476562 180.800781 117.117188 181.160156 C 116.757812 181.519531 116.34375 181.796875 115.875 181.988281 C 115.40625 182.183594 114.917969 182.28125 114.410156 182.28125 Z M 114.410156 182.28125 " fill-opacity="1" fill-rule="nonzero"/><path fill="#8cb3e4" d="M 50.507812 205.628906 L 3.828125 205.628906 C 3.320312 205.628906 2.832031 205.53125 2.363281 205.339844 C 1.894531 205.144531 1.480469 204.867188 1.121094 204.507812 C 0.761719 204.152344 0.484375 203.738281 0.292969 203.269531 C 0.0976562 202.800781 0 202.3125 0 201.804688 L 0 155.121094 C 0 154.613281 0.0976562 154.125 0.292969 153.65625 C 0.484375 153.1875 0.761719 152.773438 1.121094 152.414062 C 1.480469 152.054688 1.894531 151.78125 2.363281 151.585938 C 2.832031 151.390625 3.320312 151.292969 3.828125 151.292969 L 50.507812 151.292969 C 51.015625 151.292969 51.503906 151.390625 51.972656 151.585938 C 52.441406 151.78125 52.855469 152.054688 53.214844 152.414062 C 53.574219 152.773438 53.851562 153.1875 54.042969 153.65625 C 54.238281 154.125 54.335938 154.613281 54.335938 155.121094 L 54.335938 201.804688 C 54.335938 202.3125 54.238281 202.800781 54.042969 203.269531 C 53.851562 203.738281 53.574219 204.152344 53.214844 204.507812 C 52.855469 204.867188 52.441406 205.144531 51.972656 205.339844 C 51.503906 205.53125 51.015625 205.628906 50.507812 205.628906 Z M 7.652344 197.976562 L 46.683594 197.976562 L 46.683594 158.949219 L 7.652344 158.949219 Z M 7.652344 197.976562 " fill-opacity="1" fill-rule="nonzero"/><path fill="#8cb3e4" d="M 38.382812 175.457031 L 15.964844 175.457031 C 15.457031 175.457031 14.96875 175.363281 14.5 175.167969 C 14.03125 174.972656 13.617188 174.695312 13.257812 174.335938 C 12.898438 173.980469 12.621094 173.566406 12.429688 173.097656 C 12.234375 172.628906 12.136719 172.140625 12.136719 171.632812 C 12.136719 171.125 12.234375 170.636719 12.429688 170.167969 C 12.621094 169.699219 12.898438 169.285156 13.257812 168.925781 C 13.617188 168.566406 14.03125 168.292969 14.5 168.097656 C 14.96875 167.902344 15.457031 167.804688 15.964844 167.804688 L 38.382812 167.804688 C 38.890625 167.804688 39.378906 167.902344 39.847656 168.097656 C 40.316406 168.292969 40.730469 168.566406 41.089844 168.925781 C 41.449219 169.285156 41.722656 169.699219 41.917969 170.167969 C 42.113281 170.636719 42.210938 171.125 42.210938 171.632812 C 42.210938 172.140625 42.113281 172.628906 41.917969 173.097656 C 41.722656 173.566406 41.449219 173.980469 41.089844 174.335938 C 40.730469 174.695312 40.316406 174.972656 39.847656 175.167969 C 39.378906 175.363281 38.890625 175.457031 38.382812 175.457031 Z M 38.382812 175.457031 " fill-opacity="1" fill-rule="nonzero"/><path fill="#8cb3e4" d="M 38.382812 189.105469 L 15.964844 189.105469 C 15.457031 189.105469 14.96875 189.007812 14.5 188.8125 C 14.03125 188.617188 13.617188 188.339844 13.257812 187.984375 C 12.898438 187.625 12.621094 187.210938 12.429688 186.742188 C 12.234375 186.273438 12.136719 185.785156 12.136719 185.277344 C 12.136719 184.769531 12.234375 184.28125 12.429688 183.8125 C 12.621094 183.34375 12.898438 182.929688 13.257812 182.570312 C 13.617188 182.210938 14.03125 181.9375 14.5 181.742188 C 14.96875 181.546875 15.457031 181.449219 15.964844 181.449219 L 38.382812 181.449219 C 38.890625 181.449219 39.378906 181.546875 39.847656 181.742188 C 40.316406 181.9375 40.730469 182.210938 41.089844 182.570312 C 41.449219 182.929688 41.722656 183.34375 41.917969 183.8125 C 42.113281 184.28125 42.210938 184.769531 42.210938 185.277344 C 42.210938 185.785156 42.113281 186.273438 41.917969 186.742188 C 41.722656 187.210938 41.449219 187.625 41.089844 187.984375 C 40.730469 188.339844 40.316406 188.617188 39.847656 188.8125 C 39.378906 189.007812 38.890625 189.105469 38.382812 189.105469 Z M 38.382812 189.105469 " fill-opacity="1" fill-rule="nonzero"/><path stroke-linecap="round" transform="matrix(2.152615, 0, 0, 2.152615, 106.432169, 135.984836)" fill="none" stroke-linejoin="miter" d="M 2.49944 2.500378 L 72.820886 2.500378 " stroke="#ffdb99" stroke-width="5" stroke-opacity="1" stroke-miterlimit="4"/><g clip-path="url(#639b244031)"><g clip-path="url(#32265b0569)"><path stroke-linecap="butt" transform="matrix(2.152615, 0, 0, 2.152615, 144.806786, 211.269685)" fill="none" stroke-linejoin="miter" d="M 1.044265 -0.0000712048 L 36.25217 -0.0000712048 C 36.529812 -0.0000712048 36.794751 0.110623 36.990734 0.306605 C 37.186716 0.502588 37.29741 0.767527 37.29741 1.045169 L 37.29741 18.346074 C 37.29741 18.621901 37.186716 18.888656 36.990734 19.084638 C 36.794751 19.280621 36.529812 19.391315 36.25217 19.391315 L 1.044265 19.391315 C 0.768438 19.391315 0.501684 19.280621 0.305701 19.084638 C 0.109719 18.888656 0.000839704 18.621901 0.000839704 18.346074 L 0.000839704 1.045169 C 0.000839704 0.767527 0.109719 0.502588 0.305701 0.306605 C 0.501684 0.110623 0.768438 -0.0000712048 1.044265 -0.0000712048 Z M 1.044265 -0.0000712048 " stroke="#ffdb99" stroke-width="3.484134" stroke-opacity="1" stroke-miterlimit="4"/></g></g><path stroke-linecap="round" transform="matrix(2.152615, 0, 0, 2.152615, 103.888402, 278.559474)" fill="none" stroke-linejoin="miter" d="M 2.499811 2.500184 L 72.819443 2.500184 " stroke="#ffdb99" stroke-width="5" stroke-opacity="1" stroke-miterlimit="4"/><path stroke-linecap="round" transform="matrix(2.152615, 0, 0, 2.152615, 134.168492, 260.406662)" fill="none" stroke-linejoin="miter" d="M 2.500349 2.500401 L 47.050089 2.500401 " stroke="#ffdb99" stroke-width="5" stroke-opacity="1" stroke-miterlimit="4"/></svg>