<svg xmlns="http://www.w3.org/2000/svg" xmlns:xlink="http://www.w3.org/1999/xlink" width="500" zoomAndPan="magnify" viewBox="0 0 375 374.999991" height="500" preserveAspectRatio="xMidYMid meet" version="1.0"><defs><clipPath id="5385ff2416"><path d="M 194 11 L 374.726562 11 L 374.726562 238 L 194 238 Z M 194 11 " clip-rule="nonzero"/></clipPath></defs><path fill="#ffdb99" d="M 366.6875 10.332031 L 364.847656 220.105469 C 364.847656 224.945312 360.195312 228.832031 354.644531 228.785156 L 224.089844 227.621094 C 203.144531 227.433594 186.320312 212.609375 186.472656 194.503906 L 187.890625 32.765625 C 188.054688 14.660156 205.148438 0.183594 226.078125 0.3125 L 356.585938 1.5 C 362.230469 1.5 366.734375 5.492188 366.6875 10.332031 Z M 366.6875 10.332031 " fill-opacity="1" fill-rule="nonzero"/><g clip-path="url(#5385ff2416)"><path fill="#fefdf6" d="M 374.820312 21.445312 L 373.007812 228.332031 C 373.007812 233.171875 368.351562 237.058594 362.800781 237.011719 L 232.246094 235.847656 C 211.300781 235.660156 194.476562 220.835938 194.628906 202.730469 L 196.011719 43.902344 C 196.164062 25.796875 213.269531 11.320312 234.203125 11.449219 L 364.757812 12.613281 C 370.363281 12.648438 374.867188 16.625 374.820312 21.445312 Z M 374.820312 21.445312 " fill-opacity="1" fill-rule="nonzero"/></g><path fill="#ffdb99" d="M 366.421875 40.457031 L 364.734375 236.230469 C 364.734375 241.070312 360.078125 244.957031 354.515625 244.910156 L 223.9375 243.757812 C 202.992188 243.585938 186.15625 228.761719 186.320312 210.65625 L 187.738281 48.917969 C 187.558594 46.550781 187.628906 44.191406 187.953125 41.839844 C 188.277344 39.488281 188.847656 37.199219 189.660156 34.96875 C 190.476562 32.738281 191.515625 30.621094 192.78125 28.613281 C 194.050781 26.605469 195.511719 24.753906 197.175781 23.0625 C 200.855469 19.394531 205.101562 16.574219 209.90625 14.601562 C 209.042969 16.601562 208.3125 19.371094 209.566406 21.945312 C 212.953125 28.925781 228.265625 29.402344 235.621094 29.578125 C 257.484375 30.113281 299.945312 30.742188 355.285156 30.742188 C 356.753906 30.953125 358.160156 31.378906 359.503906 32.015625 C 360.847656 32.652344 362.066406 33.472656 363.160156 34.476562 C 364.882812 36.125 365.96875 38.117188 366.421875 40.457031 Z M 366.421875 40.457031 " fill-opacity="1" fill-rule="nonzero"/><path fill="#142f52" d="M 335.199219 134.929688 L 231.980469 134.929688 C 231.464844 134.929688 230.96875 134.832031 230.492188 134.632812 C 230.015625 134.4375 229.59375 134.15625 229.230469 133.789062 C 228.867188 133.425781 228.585938 133.007812 228.386719 132.53125 C 228.191406 132.054688 228.09375 131.558594 228.09375 131.042969 L 228.09375 70.769531 C 228.09375 70.253906 228.191406 69.757812 228.386719 69.28125 C 228.585938 68.804688 228.867188 68.386719 229.230469 68.019531 C 229.59375 67.65625 230.015625 67.375 230.492188 67.179688 C 230.96875 66.980469 231.464844 66.882812 231.980469 66.882812 L 335.199219 66.882812 C 335.457031 66.878906 335.714844 66.898438 335.964844 66.945312 C 336.21875 66.992188 336.464844 67.066406 336.703125 67.160156 C 336.941406 67.257812 337.171875 67.375 337.386719 67.515625 C 337.601562 67.660156 337.800781 67.820312 337.984375 68 C 338.164062 68.179688 338.328125 68.378906 338.472656 68.59375 C 338.617188 68.804688 338.738281 69.03125 338.835938 69.269531 C 338.9375 69.507812 339.011719 69.75 339.058594 70.003906 C 339.109375 70.257812 339.132812 70.511719 339.132812 70.769531 L 339.132812 131.042969 C 339.132812 131.300781 339.109375 131.554688 339.058594 131.808594 C 339.011719 132.058594 338.9375 132.304688 338.835938 132.542969 C 338.738281 132.78125 338.617188 133.003906 338.472656 133.21875 C 338.328125 133.433594 338.164062 133.628906 337.984375 133.8125 C 337.800781 133.992188 337.601562 134.152344 337.386719 134.292969 C 337.171875 134.433594 336.941406 134.554688 336.703125 134.648438 C 336.464844 134.746094 336.21875 134.816406 335.964844 134.863281 C 335.714844 134.910156 335.457031 134.933594 335.199219 134.929688 Z M 335.199219 134.929688 " fill-opacity="1" fill-rule="nonzero"/><path fill="#fefdf6" d="M 334.363281 182.878906 L 232.816406 182.878906 C 232.507812 182.878906 232.199219 182.851562 231.894531 182.789062 C 231.589844 182.730469 231.296875 182.640625 231.007812 182.519531 C 230.722656 182.402344 230.449219 182.257812 230.191406 182.085938 C 229.933594 181.910156 229.695312 181.714844 229.476562 181.496094 C 229.257812 181.277344 229.0625 181.039062 228.886719 180.78125 C 228.714844 180.523438 228.570312 180.25 228.453125 179.964844 C 228.332031 179.675781 228.242188 179.382812 228.183594 179.078125 C 228.121094 178.773438 228.09375 178.464844 228.09375 178.15625 L 228.09375 177.585938 C 228.09375 177.277344 228.121094 176.96875 228.183594 176.664062 C 228.242188 176.359375 228.332031 176.066406 228.453125 175.777344 C 228.570312 175.492188 228.714844 175.21875 228.890625 174.960938 C 229.0625 174.703125 229.257812 174.464844 229.476562 174.246094 C 229.695312 174.027344 229.933594 173.832031 230.191406 173.660156 C 230.449219 173.484375 230.722656 173.339844 231.007812 173.222656 C 231.296875 173.101562 231.589844 173.011719 231.894531 172.953125 C 232.199219 172.890625 232.507812 172.863281 232.816406 172.863281 L 334.363281 172.863281 C 334.671875 172.863281 334.980469 172.890625 335.285156 172.953125 C 335.589844 173.011719 335.882812 173.101562 336.171875 173.222656 C 336.457031 173.339844 336.730469 173.484375 336.988281 173.65625 C 337.246094 173.832031 337.484375 174.027344 337.703125 174.246094 C 337.921875 174.464844 338.117188 174.703125 338.292969 174.960938 C 338.464844 175.21875 338.609375 175.492188 338.726562 175.777344 C 338.847656 176.066406 338.9375 176.359375 338.996094 176.664062 C 339.058594 176.96875 339.085938 177.277344 339.085938 177.585938 L 339.085938 178.15625 C 339.089844 178.464844 339.058594 178.773438 339 179.078125 C 338.9375 179.382812 338.847656 179.679688 338.730469 179.964844 C 338.613281 180.253906 338.46875 180.527344 338.292969 180.785156 C 338.121094 181.042969 337.925781 181.28125 337.707031 181.5 C 337.488281 181.71875 337.25 181.914062 336.992188 182.089844 C 336.734375 182.261719 336.460938 182.40625 336.171875 182.523438 C 335.886719 182.640625 335.589844 182.730469 335.285156 182.792969 C 334.980469 182.851562 334.671875 182.882812 334.363281 182.878906 Z M 339.132812 201.859375 L 339.132812 201.289062 C 339.132812 200.976562 339.105469 200.671875 339.046875 200.367188 C 338.984375 200.058594 338.894531 199.765625 338.777344 199.476562 C 338.660156 199.191406 338.515625 198.917969 338.34375 198.660156 C 338.167969 198.398438 337.972656 198.160156 337.753906 197.941406 C 337.535156 197.71875 337.296875 197.523438 337.039062 197.351562 C 336.78125 197.179688 336.507812 197.03125 336.21875 196.914062 C 335.933594 196.792969 335.636719 196.703125 335.332031 196.644531 C 335.027344 196.582031 334.71875 196.550781 334.410156 196.550781 L 232.816406 196.550781 C 232.507812 196.554688 232.199219 196.585938 231.894531 196.644531 C 231.589844 196.707031 231.292969 196.796875 231.007812 196.917969 C 230.722656 197.035156 230.449219 197.183594 230.191406 197.355469 C 229.933594 197.527344 229.695312 197.722656 229.476562 197.945312 C 229.257812 198.164062 229.058594 198.402344 228.886719 198.660156 C 228.714844 198.917969 228.570312 199.191406 228.453125 199.480469 C 228.332031 199.765625 228.242188 200.0625 228.183594 200.367188 C 228.121094 200.671875 228.09375 200.976562 228.09375 201.289062 L 228.09375 201.859375 C 228.09375 202.167969 228.121094 202.476562 228.183594 202.78125 C 228.242188 203.085938 228.332031 203.378906 228.453125 203.667969 C 228.570312 203.953125 228.714844 204.226562 228.886719 204.484375 C 229.0625 204.742188 229.257812 204.980469 229.476562 205.199219 C 229.695312 205.417969 229.933594 205.613281 230.191406 205.785156 C 230.449219 205.960938 230.722656 206.105469 231.007812 206.222656 C 231.296875 206.34375 231.589844 206.429688 231.894531 206.492188 C 232.199219 206.550781 232.507812 206.582031 232.816406 206.582031 L 334.363281 206.582031 C 334.675781 206.585938 334.984375 206.558594 335.292969 206.5 C 335.597656 206.441406 335.894531 206.355469 336.183594 206.238281 C 336.476562 206.121094 336.75 205.976562 337.011719 205.804688 C 337.269531 205.632812 337.511719 205.433594 337.734375 205.214844 C 337.957031 204.996094 338.152344 204.757812 338.328125 204.496094 C 338.503906 204.238281 338.648438 203.964844 338.769531 203.675781 C 338.890625 203.390625 338.980469 203.09375 339.042969 202.785156 C 339.101562 202.480469 339.132812 202.171875 339.132812 201.859375 Z M 339.132812 201.859375 " fill-opacity="1" fill-rule="nonzero"/><path fill="#8cb3e4" d="M 157.277344 92.074219 L 253.433594 278.515625 C 255.65625 282.820312 253.433594 288.382812 248.445312 290.953125 L 132.410156 350.796875 C 113.792969 360.398438 92 355.125 83.703125 339.035156 L 9.558594 195.285156 C 1.261719 179.191406 9.617188 158.375 28.175781 148.742188 L 144.210938 88.898438 C 149.222656 86.359375 155.054688 87.769531 157.277344 92.074219 Z M 157.277344 92.074219 " fill-opacity="1" fill-rule="nonzero"/><path fill="#fefdf6" d="M 169.644531 98.078125 L 264.488281 281.925781 C 266.699219 286.21875 264.488281 291.792969 259.496094 294.351562 L 143.464844 354.207031 C 124.847656 363.796875 103.054688 358.535156 94.746094 342.445312 L 21.925781 201.324219 C 13.632812 185.230469 21.925781 164.414062 40.546875 154.78125 L 156.578125 94.9375 C 161.59375 92.398438 167.433594 93.808594 169.644531 98.078125 Z M 169.644531 98.078125 " fill-opacity="1" fill-rule="nonzero"/><path fill="#8cb3e4" d="M 171.078125 118.847656 L 260.824219 292.851562 C 263.046875 297.15625 260.824219 302.71875 255.832031 305.289062 L 139.800781 365.132812 C 121.183594 374.722656 99.386719 369.460938 91.089844 353.371094 L 16.949219 209.621094 C 15.683594 207.613281 14.644531 205.496094 13.832031 203.265625 C 13.023438 201.039062 12.453125 198.75 12.132812 196.398438 C 11.808594 194.050781 11.738281 191.691406 11.917969 189.328125 C 12.097656 186.960938 12.523438 184.640625 13.199219 182.367188 C 14.75 177.414062 17.1875 172.945312 20.519531 168.964844 C 20.527344 170.246094 20.804688 171.46875 21.351562 172.628906 C 21.894531 173.789062 22.65625 174.78125 23.636719 175.609375 C 29.863281 180.167969 43.652344 173.492188 50.238281 170.21875 C 69.832031 160.492188 107.671875 141.222656 156.671875 115.53125 C 158.070312 115.035156 159.511719 114.753906 160.996094 114.691406 C 162.480469 114.628906 163.9375 114.785156 165.375 115.160156 C 167.664062 115.785156 169.566406 117.015625 171.078125 118.847656 Z M 171.078125 118.847656 " fill-opacity="1" fill-rule="nonzero"/><path fill="#142f52" d="M 187.496094 216.984375 L 96.175781 265.101562 C 95.71875 265.339844 95.234375 265.484375 94.722656 265.53125 C 94.210938 265.578125 93.707031 265.523438 93.214844 265.371094 C 92.722656 265.21875 92.277344 264.976562 91.882812 264.648438 C 91.488281 264.320312 91.167969 263.925781 90.929688 263.472656 L 62.828125 210.144531 C 62.585938 209.6875 62.445312 209.203125 62.398438 208.6875 C 62.347656 208.171875 62.402344 207.667969 62.554688 207.175781 C 62.707031 206.683594 62.949219 206.238281 63.277344 205.839844 C 63.609375 205.445312 64 205.125 64.457031 204.882812 L 155.773438 156.769531 C 156.230469 156.53125 156.71875 156.386719 157.230469 156.339844 C 157.746094 156.292969 158.25 156.34375 158.742188 156.496094 C 159.234375 156.648438 159.679688 156.890625 160.078125 157.21875 C 160.472656 157.550781 160.792969 157.941406 161.035156 158.398438 L 189.125 211.726562 C 189.367188 212.183594 189.511719 212.667969 189.558594 213.183594 C 189.605469 213.695312 189.554688 214.199219 189.402344 214.695312 C 189.25 215.1875 189.007812 215.632812 188.675781 216.03125 C 188.347656 216.425781 187.953125 216.746094 187.496094 216.984375 Z M 187.496094 216.984375 " fill-opacity="1" fill-rule="nonzero"/><path fill="#fefdf6" d="M 209.113281 259.816406 L 119.273438 307.128906 C 119 307.273438 118.710938 307.390625 118.414062 307.480469 C 118.117188 307.566406 117.8125 307.625 117.503906 307.65625 C 117.195312 307.683594 116.886719 307.683594 116.578125 307.652344 C 116.269531 307.617188 115.964844 307.554688 115.667969 307.464844 C 115.371094 307.371094 115.085938 307.253906 114.816406 307.105469 C 114.542969 306.957031 114.285156 306.785156 114.046875 306.585938 C 113.808594 306.386719 113.589844 306.167969 113.394531 305.925781 C 113.199219 305.683594 113.03125 305.425781 112.886719 305.152344 L 112.617188 304.648438 C 112.46875 304.375 112.347656 304.089844 112.257812 303.789062 C 112.164062 303.492188 112.101562 303.1875 112.070312 302.875 C 112.039062 302.566406 112.039062 302.253906 112.070312 301.945312 C 112.097656 301.632812 112.160156 301.328125 112.25 301.027344 C 112.339844 300.730469 112.457031 300.441406 112.605469 300.167969 C 112.753906 299.890625 112.925781 299.632812 113.125 299.390625 C 113.324219 299.148438 113.542969 298.929688 113.785156 298.730469 C 114.027344 298.535156 114.285156 298.363281 114.5625 298.214844 L 204.402344 250.878906 C 204.675781 250.738281 204.960938 250.621094 205.261719 250.53125 C 205.558594 250.445312 205.859375 250.386719 206.171875 250.359375 C 206.480469 250.328125 206.789062 250.332031 207.097656 250.363281 C 207.40625 250.394531 207.707031 250.457031 208.003906 250.550781 C 208.300781 250.640625 208.585938 250.761719 208.859375 250.910156 C 209.132812 251.058594 209.386719 251.230469 209.625 251.429688 C 209.867188 251.625 210.082031 251.84375 210.277344 252.085938 C 210.472656 252.328125 210.644531 252.585938 210.789062 252.859375 L 211.058594 253.371094 C 211.207031 253.644531 211.328125 253.933594 211.421875 254.230469 C 211.515625 254.53125 211.578125 254.835938 211.609375 255.148438 C 211.644531 255.460938 211.644531 255.769531 211.617188 256.082031 C 211.585938 256.394531 211.527344 256.699219 211.4375 257 C 211.34375 257.300781 211.226562 257.589844 211.078125 257.863281 C 210.929688 258.140625 210.757812 258.402344 210.558594 258.640625 C 210.359375 258.882812 210.136719 259.105469 209.894531 259.300781 C 209.652344 259.5 209.390625 259.671875 209.113281 259.816406 Z M 222.136719 274.398438 L 221.867188 273.898438 C 221.726562 273.621094 221.558594 273.359375 221.367188 273.113281 C 221.171875 272.871094 220.957031 272.648438 220.71875 272.449219 C 220.480469 272.246094 220.226562 272.070312 219.953125 271.921875 C 219.679688 271.773438 219.394531 271.652344 219.097656 271.558594 C 218.800781 271.46875 218.496094 271.40625 218.1875 271.375 C 217.878906 271.34375 217.566406 271.34375 217.257812 271.375 C 216.949219 271.40625 216.644531 271.464844 216.347656 271.558594 C 216.050781 271.648438 215.765625 271.769531 215.492188 271.917969 L 125.648438 319.253906 C 125.375 319.398438 125.117188 319.566406 124.875 319.761719 C 124.632812 319.957031 124.414062 320.175781 124.214844 320.414062 C 124.015625 320.652344 123.84375 320.910156 123.695312 321.183594 C 123.546875 321.457031 123.429688 321.742188 123.335938 322.039062 C 123.246094 322.332031 123.183594 322.636719 123.148438 322.945312 C 123.117188 323.253906 123.117188 323.5625 123.144531 323.871094 C 123.175781 324.183594 123.234375 324.484375 123.320312 324.78125 C 123.410156 325.082031 123.527344 325.367188 123.671875 325.640625 L 123.941406 326.140625 C 124.082031 326.417969 124.246094 326.679688 124.441406 326.925781 C 124.632812 327.167969 124.851562 327.390625 125.085938 327.589844 C 125.324219 327.792969 125.582031 327.964844 125.855469 328.117188 C 126.128906 328.265625 126.414062 328.386719 126.710938 328.476562 C 127.007812 328.570312 127.308594 328.632812 127.621094 328.664062 C 127.929688 328.695312 128.238281 328.695312 128.550781 328.664062 C 128.859375 328.632812 129.164062 328.574219 129.460938 328.480469 C 129.757812 328.390625 130.042969 328.269531 130.316406 328.121094 L 220.15625 280.761719 C 220.433594 280.617188 220.691406 280.449219 220.933594 280.253906 C 221.175781 280.058594 221.394531 279.839844 221.59375 279.601562 C 221.792969 279.363281 221.964844 279.109375 222.113281 278.835938 C 222.261719 278.5625 222.382812 278.277344 222.476562 277.980469 C 222.566406 277.683594 222.628906 277.378906 222.660156 277.070312 C 222.691406 276.761719 222.695312 276.453125 222.664062 276.140625 C 222.636719 275.832031 222.578125 275.53125 222.488281 275.230469 C 222.398438 274.933594 222.28125 274.648438 222.136719 274.375 Z M 222.136719 274.398438 " fill-opacity="1" fill-rule="nonzero"/></svg>