<svg xmlns="http://www.w3.org/2000/svg" xmlns:xlink="http://www.w3.org/1999/xlink" width="500" zoomAndPan="magnify" viewBox="0 0 375 374.999991" height="500" preserveAspectRatio="xMidYMid meet" version="1.0"><path fill="#8cb3e4" d="M 374.980469 187.492188 C 374.980469 190.558594 374.90625 193.625 374.757812 196.691406 C 374.605469 199.753906 374.378906 202.816406 374.078125 205.867188 C 373.777344 208.921875 373.402344 211.964844 372.953125 215 C 372.503906 218.035156 371.976562 221.058594 371.378906 224.070312 C 370.78125 227.078125 370.109375 230.070312 369.363281 233.046875 C 368.617188 236.023438 367.800781 238.980469 366.910156 241.917969 C 366.019531 244.851562 365.054688 247.765625 364.023438 250.65625 C 362.988281 253.542969 361.882812 256.40625 360.710938 259.242188 C 359.535156 262.074219 358.292969 264.878906 356.980469 267.652344 C 355.667969 270.429688 354.289062 273.167969 352.84375 275.875 C 351.398438 278.578125 349.886719 281.25 348.308594 283.882812 C 346.730469 286.511719 345.089844 289.105469 343.382812 291.65625 C 341.679688 294.207031 339.914062 296.714844 338.085938 299.179688 C 336.257812 301.644531 334.371094 304.0625 332.425781 306.433594 C 330.476562 308.804688 328.472656 311.128906 326.414062 313.402344 C 324.351562 315.675781 322.238281 317.898438 320.066406 320.066406 C 317.898438 322.238281 315.675781 324.351562 313.402344 326.414062 C 311.128906 328.472656 308.804688 330.476562 306.433594 332.421875 C 304.0625 334.371094 301.644531 336.257812 299.179688 338.085938 C 296.714844 339.914062 294.207031 341.679688 291.65625 343.382812 C 289.105469 345.089844 286.511719 346.730469 283.882812 348.308594 C 281.25 349.886719 278.578125 351.398438 275.875 352.84375 C 273.167969 354.289062 270.429688 355.667969 267.652344 356.980469 C 264.878906 358.292969 262.074219 359.535156 259.242188 360.710938 C 256.40625 361.882812 253.542969 362.988281 250.65625 364.023438 C 247.765625 365.054688 244.851562 366.019531 241.917969 366.910156 C 238.980469 367.800781 236.023438 368.617188 233.046875 369.363281 C 230.070312 370.109375 227.078125 370.78125 224.070312 371.378906 C 221.058594 371.976562 218.035156 372.503906 215 372.953125 C 211.964844 373.402344 208.921875 373.777344 205.867188 374.078125 C 202.816406 374.378906 199.753906 374.605469 196.691406 374.757812 C 193.625 374.90625 190.558594 374.980469 187.492188 374.980469 C 184.421875 374.980469 181.355469 374.90625 178.292969 374.757812 C 175.226562 374.605469 172.167969 374.378906 169.113281 374.078125 C 166.058594 373.777344 163.015625 373.402344 159.980469 372.953125 C 156.945312 372.503906 153.921875 371.976562 150.914062 371.378906 C 147.902344 370.78125 144.910156 370.109375 141.933594 369.363281 C 138.957031 368.617188 136 367.800781 133.066406 366.910156 C 130.128906 366.019531 127.214844 365.054688 124.328125 364.023438 C 121.4375 362.988281 118.578125 361.882812 115.742188 360.710938 C 112.90625 359.535156 110.101562 358.292969 107.328125 356.980469 C 104.554688 355.667969 101.816406 354.289062 99.109375 352.84375 C 96.402344 351.398438 93.734375 349.886719 91.101562 348.308594 C 88.46875 346.730469 85.878906 345.089844 83.328125 343.382812 C 80.773438 341.679688 78.265625 339.914062 75.804688 338.085938 C 73.339844 336.257812 70.921875 334.371094 68.546875 332.421875 C 66.175781 330.476562 63.851562 328.472656 61.578125 326.414062 C 59.304688 324.351562 57.085938 322.238281 54.914062 320.066406 C 52.746094 317.898438 50.628906 315.675781 48.570312 313.402344 C 46.507812 311.128906 44.503906 308.804688 42.558594 306.433594 C 40.613281 304.0625 38.726562 301.644531 36.898438 299.179688 C 35.070312 296.714844 33.300781 294.207031 31.597656 291.65625 C 29.894531 289.105469 28.253906 286.511719 26.675781 283.882812 C 25.097656 281.25 23.585938 278.578125 22.140625 275.875 C 20.691406 273.167969 19.3125 270.429688 18 267.652344 C 16.6875 264.878906 15.445312 262.074219 14.273438 259.242188 C 13.097656 256.40625 11.992188 253.542969 10.960938 250.65625 C 9.925781 247.765625 8.964844 244.851562 8.074219 241.917969 C 7.183594 238.980469 6.363281 236.023438 5.617188 233.046875 C 4.875 230.070312 4.203125 227.078125 3.601562 224.070312 C 3.003906 221.058594 2.480469 218.035156 2.03125 215 C 1.578125 211.964844 1.203125 208.921875 0.902344 205.867188 C 0.601562 202.816406 0.375 199.753906 0.226562 196.691406 C 0.0742188 193.625 0 190.558594 0 187.492188 C 0 184.421875 0.0742188 181.355469 0.226562 178.292969 C 0.375 175.226562 0.601562 172.167969 0.902344 169.113281 C 1.203125 166.058594 1.578125 163.015625 2.03125 159.980469 C 2.480469 156.945312 3.003906 153.921875 3.601562 150.914062 C 4.203125 147.902344 4.875 144.910156 5.617188 141.933594 C 6.363281 138.957031 7.183594 136 8.074219 133.066406 C 8.964844 130.128906 9.925781 127.214844 10.960938 124.328125 C 11.992188 121.4375 13.097656 118.578125 14.273438 115.742188 C 15.445312 112.90625 16.6875 110.101562 18 107.328125 C 19.3125 104.554688 20.691406 101.816406 22.140625 99.109375 C 23.585938 96.402344 25.097656 93.734375 26.675781 91.101562 C 28.253906 88.46875 29.894531 85.878906 31.597656 83.328125 C 33.300781 80.773438 35.070312 78.265625 36.898438 75.804688 C 38.726562 73.339844 40.613281 70.921875 42.558594 68.546875 C 44.503906 66.175781 46.507812 63.851562 48.570312 61.578125 C 50.628906 59.304688 52.746094 57.085938 54.914062 54.914062 C 57.085938 52.746094 59.304688 50.628906 61.578125 48.570312 C 63.851562 46.507812 66.175781 44.503906 68.546875 42.558594 C 70.921875 40.613281 73.339844 38.726562 75.804688 36.898438 C 78.265625 35.070312 80.773438 33.300781 83.328125 31.597656 C 85.878906 29.894531 88.46875 28.253906 91.101562 26.675781 C 93.734375 25.097656 96.402344 23.585938 99.109375 22.140625 C 101.816406 20.691406 104.554688 19.3125 107.328125 18 C 110.101562 16.6875 112.90625 15.445312 115.742188 14.273438 C 118.578125 13.097656 121.4375 11.992188 124.328125 10.960938 C 127.214844 9.925781 130.128906 8.964844 133.066406 8.074219 C 136 7.183594 138.957031 6.363281 141.933594 5.617188 C 144.910156 4.875 147.902344 4.203125 150.914062 3.601562 C 153.921875 3.003906 156.945312 2.480469 159.980469 2.03125 C 163.015625 1.578125 166.058594 1.203125 169.113281 0.902344 C 172.167969 0.601562 175.226562 0.375 178.292969 0.226562 C 181.355469 0.0742188 184.421875 0 187.492188 0 C 190.558594 0 193.625 0.0742188 196.691406 0.226562 C 199.753906 0.375 202.816406 0.601562 205.867188 0.902344 C 208.921875 1.203125 211.964844 1.578125 215 2.03125 C 218.035156 2.480469 221.058594 3.003906 224.070312 3.601562 C 227.078125 4.203125 230.070312 4.875 233.046875 5.617188 C 236.023438 6.363281 238.980469 7.183594 241.917969 8.074219 C 244.851562 8.964844 247.765625 9.925781 250.65625 10.960938 C 253.542969 11.992188 256.40625 13.097656 259.242188 14.273438 C 262.074219 15.445312 264.878906 16.6875 267.652344 18 C 270.429688 19.3125 273.167969 20.691406 275.875 22.140625 C 278.578125 23.585938 281.25 25.097656 283.882812 26.675781 C 286.511719 28.253906 289.105469 29.894531 291.65625 31.597656 C 294.207031 33.300781 296.714844 35.070312 299.179688 36.898438 C 301.644531 38.726562 304.0625 40.613281 306.433594 42.558594 C 308.804688 44.503906 311.128906 46.507812 313.402344 48.570312 C 315.675781 50.628906 317.898438 52.746094 320.066406 54.914062 C 322.238281 57.085938 324.351562 59.304688 326.414062 61.578125 C 328.472656 63.851562 330.476562 66.175781 332.425781 68.546875 C 334.371094 70.921875 336.257812 73.339844 338.085938 75.804688 C 339.914062 78.265625 341.679688 80.773438 343.382812 83.328125 C 345.089844 85.878906 346.730469 88.46875 348.308594 91.101562 C 349.886719 93.734375 351.398438 96.402344 352.84375 99.109375 C 354.289062 101.816406 355.667969 104.554688 356.980469 107.328125 C 358.292969 110.101562 359.535156 112.90625 360.710938 115.742188 C 361.882812 118.578125 362.988281 121.4375 364.023438 124.328125 C 365.054688 127.214844 366.019531 130.128906 366.910156 133.066406 C 367.800781 136 368.617188 138.957031 369.363281 141.933594 C 370.109375 144.910156 370.78125 147.902344 371.378906 150.914062 C 371.976562 153.921875 372.503906 156.945312 372.953125 159.980469 C 373.402344 163.015625 373.777344 166.058594 374.078125 169.113281 C 374.378906 172.167969 374.605469 175.226562 374.757812 178.292969 C 374.90625 181.355469 374.980469 184.421875 374.980469 187.492188 Z M 374.980469 187.492188 " fill-opacity="1" fill-rule="nonzero"/><path fill="#ffdb99" d="M 140.992188 316.785156 L 38.746094 214.546875 L 79.484375 173.804688 L 140.992188 235.300781 L 295.472656 80.808594 L 336.222656 121.542969 Z M 140.992188 316.785156 " fill-opacity="1" fill-rule="nonzero"/><path stroke-linecap="round" transform="matrix(2.765157, -2.765157, 2.765157, 2.765157, 132.262817, 231.100062)" fill="none" stroke-linejoin="miter" d="M 1.999869 2.000411 L 55.605701 1.999705 " stroke="#f3eeeb" stroke-width="4" stroke-opacity="1" stroke-miterlimit="4"/><path stroke-linecap="round" transform="matrix(2.765157, -2.765157, 2.765157, 2.765157, 132.319186, 313.167402)" fill="none" stroke-linejoin="miter" d="M 1.999734 1.999939 L 70.010548 2.000645 " stroke="#f3eeeb" stroke-width="4" stroke-opacity="1" stroke-miterlimit="4"/><path stroke-linecap="round" transform="matrix(2.722732, 2.80694, -2.80694, 2.722732, 292.005924, 73.439527)" fill="none" stroke-linejoin="miter" d="M 1.999928 2.000489 L 16.575401 1.999637 " stroke="#f3eeeb" stroke-width="4" stroke-opacity="1" stroke-miterlimit="4"/><path stroke-linecap="round" transform="matrix(2.765157, 2.765157, -2.765157, 2.765157, 45.157257, 205.117955)" fill="none" stroke-linejoin="miter" d="M 2.000018 2.000382 L 37.367591 2.000382 " stroke="#f3eeeb" stroke-width="4" stroke-opacity="1" stroke-miterlimit="4"/><path stroke-linecap="round" transform="matrix(2.675545, -2.851954, 2.851954, 2.675545, 33.54157, 215.632135)" fill="none" stroke-linejoin="miter" d="M 1.99983 2.000541 L 15.734445 2.000022 " stroke="#f3eeeb" stroke-width="4" stroke-opacity="1" stroke-miterlimit="4"/><path stroke-linecap="round" transform="matrix(2.780702, 2.749523, -2.749523, 2.780702, 82.668133, 163.632644)" fill="none" stroke-linejoin="miter" d="M 1.999692 1.999697 L 23.084107 1.999903 " stroke="#f3eeeb" stroke-width="4" stroke-opacity="1" stroke-miterlimit="4"/></svg>