<svg xmlns="http://www.w3.org/2000/svg" xmlns:xlink="http://www.w3.org/1999/xlink" width="500" zoomAndPan="magnify" viewBox="0 0 375 374.999991" height="500" preserveAspectRatio="xMidYMid meet" version="1.0"><defs><clipPath id="4d0d5fbe25"><path d="M 139.964844 233.753906 L 187.214844 233.753906 L 187.214844 281.003906 L 139.964844 281.003906 Z M 139.964844 233.753906 " clip-rule="nonzero"/></clipPath><clipPath id="514afa0e79"><path d="M 163.730469 233.753906 C 150.605469 233.753906 139.964844 244.394531 139.964844 257.519531 C 139.964844 270.644531 150.605469 281.285156 163.730469 281.285156 C 176.855469 281.285156 187.496094 270.644531 187.496094 257.519531 C 187.496094 244.394531 176.855469 233.753906 163.730469 233.753906 Z M 163.730469 233.753906 " clip-rule="nonzero"/></clipPath></defs><path fill="#8cb3e4" d="M 187.5 93.75 C 161.65625 93.75 140.625 72.71875 140.625 46.875 C 140.625 21.03125 161.65625 0 187.5 0 C 213.34375 0 234.375 21.03125 234.375 46.875 C 234.375 72.71875 213.34375 93.75 187.5 93.75 Z M 187.5 15.625 C 170.265625 15.625 156.25 29.640625 156.25 46.875 C 156.25 64.109375 170.265625 78.125 187.5 78.125 C 204.734375 78.125 218.75 64.109375 218.75 46.875 C 218.75 29.640625 204.734375 15.625 187.5 15.625 Z M 187.5 15.625 " fill-opacity="1" fill-rule="nonzero"/><path fill="#8cb3e4" d="M 257.8125 214.375 C 253.5 214.375 250 210.875 250 206.5625 L 250 164.0625 C 250 142.53125 232.484375 125 210.9375 125 L 164.0625 125 C 142.515625 125 125 142.53125 125 164.0625 L 125 206.5625 C 125 210.875 121.5 214.375 117.1875 214.375 C 112.875 214.375 109.375 210.890625 109.375 206.5625 L 109.375 164.0625 C 109.375 133.90625 133.90625 109.375 164.0625 109.375 L 210.9375 109.375 C 241.09375 109.375 265.625 133.90625 265.625 164.0625 L 265.625 206.5625 C 265.625 210.890625 262.125 214.375 257.8125 214.375 Z M 257.8125 214.375 " fill-opacity="1" fill-rule="nonzero"/><path fill="#8cb3e4" d="M 187.5 375 C 96.609375 375 0 353.09375 0 312.5 L 0 156.25 C 0 151.9375 3.5 148.4375 7.8125 148.4375 C 12.125 148.4375 15.625 151.9375 15.625 156.25 L 15.625 312.5 C 15.625 332.078125 81.015625 359.375 187.5 359.375 C 293.984375 359.375 359.375 332.078125 359.375 312.5 L 359.375 156.25 C 359.375 151.9375 362.875 148.4375 367.1875 148.4375 C 371.5 148.4375 375 151.9375 375 156.25 L 375 312.5 C 375 353.09375 278.390625 375 187.5 375 Z M 187.5 375 " fill-opacity="1" fill-rule="nonzero"/><path fill="#8cb3e4" d="M 56.40625 357.65625 C 54.390625 357.65625 52.390625 356.890625 50.859375 355.34375 C 47.828125 352.28125 47.859375 347.328125 50.90625 344.296875 L 105.265625 290.390625 C 113.484375 282.1875 126.359375 282.203125 134.578125 290.40625 L 165.703125 320.125 C 166.890625 321.3125 168.15625 322.015625 169.328125 321.859375 C 170.671875 321.84375 171.984375 321.203125 173.140625 320.015625 L 219.1875 272.21875 C 227.546875 263.859375 239.953125 263.4375 248.15625 271.1875 L 325.453125 339.28125 C 328.703125 342.125 329.015625 347.078125 326.15625 350.3125 C 323.3125 353.546875 318.375 353.875 315.140625 351 L 237.640625 282.71875 C 234.96875 280.265625 232.171875 281.34375 230.34375 283.15625 L 184.375 330.875 C 180.25 335.09375 174.953125 337.421875 169.4375 337.46875 C 163.828125 337.625 158.78125 335.3125 154.78125 331.28125 L 123.65625 301.5625 C 121.328125 299.21875 118.484375 299.265625 116.296875 301.4375 L 61.921875 355.375 C 60.390625 356.90625 58.390625 357.65625 56.40625 357.65625 Z M 56.40625 357.65625 " fill-opacity="1" fill-rule="nonzero"/><path fill="#8cb3e4" d="M 164.0625 281.25 C 151.140625 281.25 140.625 270.734375 140.625 257.8125 C 140.625 244.890625 151.140625 234.375 164.0625 234.375 C 176.984375 234.375 187.5 244.890625 187.5 257.8125 C 187.5 270.734375 176.984375 281.25 164.0625 281.25 Z M 164.0625 250 C 159.765625 250 156.25 253.5 156.25 257.8125 C 156.25 262.125 159.765625 265.625 164.0625 265.625 C 168.359375 265.625 171.875 262.125 171.875 257.8125 C 171.875 253.5 168.359375 250 164.0625 250 Z M 164.0625 250 " fill-opacity="1" fill-rule="nonzero"/><path fill="#8cb3e4" d="M 187.5 218.75 C 146.09375 218.75 103.484375 214.203125 69.375 205.40625 C 68.65625 205.328125 67.953125 205.125 67.3125 204.859375 C 27.671875 194.34375 0 177.984375 0 156.25 C 0 135.890625 23.640625 118.96875 68.34375 107.28125 C 70.640625 106.65625 73.15625 107.171875 75.09375 108.65625 C 77 110.140625 78.125 112.421875 78.125 114.84375 L 78.125 191.546875 C 107.375 198.53125 145.140625 203.125 187.5 203.125 C 229.859375 203.125 267.625 198.53125 296.875 191.546875 L 296.875 114.84375 C 296.875 112.421875 298 110.140625 299.90625 108.65625 C 301.828125 107.171875 304.3125 106.65625 306.65625 107.28125 C 351.359375 118.96875 375 135.890625 375 156.25 C 375 179.0625 346.125 194.703125 308.203125 204.640625 C 307.21875 205.140625 306.125 205.421875 304.984375 205.46875 C 267.796875 214.765625 222.65625 218.75 187.5 218.75 Z M 312.5 125.15625 L 312.5 187.328125 C 341.875 178.46875 359.375 167.046875 359.375 156.234375 C 359.375 148.1875 346.875 135.625 312.5 125.15625 Z M 62.5 125.15625 C 28.125 135.625 15.625 148.1875 15.625 156.25 C 15.625 167.046875 33.125 178.46875 62.5 187.34375 Z M 62.5 125.15625 " fill-opacity="1" fill-rule="nonzero"/><g clip-path="url(#4d0d5fbe25)"><g clip-path="url(#514afa0e79)"><path stroke-linecap="butt" transform="matrix(0.75, 0, 0, 0.75, 139.965435, 233.75266)" fill="none" stroke-linejoin="miter" d="M 31.686714 0.00166187 C 14.186713 0.00166187 -0.000787679 14.189163 -0.000787679 31.689164 C -0.000787679 49.189165 14.186713 63.376666 31.686714 63.376666 C 49.186716 63.376666 63.374216 49.189165 63.374216 31.689164 C 63.374216 14.189163 49.186716 0.00166187 31.686714 0.00166187 Z M 31.686714 0.00166187 " stroke="#ffdb99" stroke-width="46" stroke-opacity="1" stroke-miterlimit="4"/></g></g></svg>