<svg xmlns="http://www.w3.org/2000/svg" xmlns:xlink="http://www.w3.org/1999/xlink" width="500" zoomAndPan="magnify" viewBox="0 0 375 374.999991" height="500" preserveAspectRatio="xMidYMid meet" version="1.0"><defs><clipPath id="c5c9126738"><path d="M 133 105 L 375 105 L 375 374.726562 L 133 374.726562 Z M 133 105 " clip-rule="nonzero"/></clipPath></defs><path fill="#ffdb99" d="M 109.761719 114.609375 C 109.761719 105.085938 117.464844 97.394531 126.964844 97.394531 C 136.464844 97.394531 144.183594 105.085938 144.183594 114.609375 C 144.183594 124.109375 136.464844 131.8125 126.964844 131.8125 C 117.464844 131.8125 109.761719 124.109375 109.761719 114.609375 Z M 75.332031 131.8125 C 65.816406 131.8125 58.125 124.109375 58.125 114.609375 C 58.125 105.085938 65.816406 97.394531 75.332031 97.394531 C 84.828125 97.394531 92.550781 105.085938 92.550781 114.609375 C 92.550781 124.109375 84.828125 131.8125 75.332031 131.8125 Z M 162.296875 119.878906 C 161.761719 118.203125 161.394531 116.460938 161.394531 114.609375 C 161.394531 105.085938 169.097656 97.394531 178.609375 97.394531 C 183.960938 97.394531 188.695312 99.902344 191.84375 103.746094 C 206.203125 98.398438 220.933594 96.097656 235.382812 96.476562 C 224.675781 64.460938 200.226562 37.304688 166.195312 24.363281 C 105.996094 1.449219 38.621094 31.730469 15.738281 91.910156 C 6.738281 115.566406 6.050781 140.277344 12.085938 163.042969 L 11.925781 163.011719 C 11.925781 163.011719 11.996094 163.113281 12.140625 163.308594 C 16.007812 177.800781 22.644531 191.457031 31.683594 203.492188 C 38.425781 228.652344 36.671875 260.882812 -0.0625 286.105469 C -0.0625 286.105469 66.351562 284.960938 127.804688 264.425781 C 126.21875 261.199219 124.65625 257.945312 123.34375 254.5 C 104.441406 204.777344 121.816406 150.289062 162.296875 119.878906 " fill-opacity="1" fill-rule="nonzero"/><g clip-path="url(#c5c9126738)"><path fill="#8cb3e4" d="M 299.480469 220.339844 C 289.976562 220.339844 282.269531 212.644531 282.269531 203.152344 C 282.269531 193.617188 289.976562 185.902344 299.480469 185.902344 C 309 185.902344 316.691406 193.617188 316.691406 203.152344 C 316.691406 212.644531 309 220.339844 299.480469 220.339844 Z M 247.84375 220.339844 C 242.328125 220.339844 237.476562 217.695312 234.328125 213.683594 C 232.042969 210.773438 230.632812 207.132812 230.632812 203.152344 C 230.632812 193.617188 238.347656 185.902344 247.84375 185.902344 C 248.695312 185.902344 249.53125 186.035156 250.355469 186.164062 C 258.664062 187.402344 265.054688 194.476562 265.054688 203.152344 C 265.054688 212.644531 257.347656 220.339844 247.84375 220.339844 Z M 195.351562 222.214844 L 194.0625 222.214844 C 184.195312 222.214844 175.949219 213.980469 175.949219 204.105469 C 175.949219 194.234375 184.195312 186 194.0625 186 L 195.335938 186 C 195.628906 185.980469 195.90625 185.902344 196.203125 185.902344 C 205.71875 185.902344 213.414062 193.617188 213.414062 203.152344 L 213.394531 203.386719 C 213.402344 203.625 213.464844 203.867188 213.464844 204.105469 C 213.464844 213.980469 205.234375 222.214844 195.351562 222.214844 Z M 343.121094 292.019531 C 352.164062 280.003906 358.796875 266.339844 362.675781 251.828125 C 362.808594 251.644531 362.882812 251.53125 362.882812 251.53125 L 362.734375 251.601562 C 368.761719 228.828125 368.074219 204.105469 359.082031 180.429688 C 341.742188 134.894531 298.96875 106.527344 253.097656 105.332031 C 238.636719 104.941406 223.925781 107.257812 209.5625 112.585938 C 209.238281 112.695312 208.925781 112.738281 208.605469 112.882812 C 198.09375 116.882812 188.5625 122.304688 180.019531 128.734375 C 139.523438 159.152344 122.15625 213.652344 141.054688 263.328125 C 142.351562 266.785156 143.917969 270.042969 145.519531 273.285156 C 151.96875 286.351562 160.566406 297.828125 170.773438 307.3125 L 169.5 307.65625 C 228.839844 372.144531 374.882812 374.644531 374.882812 374.644531 C 338.152344 349.417969 336.382812 317.148438 343.121094 292.019531 " fill-opacity="1" fill-rule="nonzero"/></g></svg>