<svg xmlns="http://www.w3.org/2000/svg" xmlns:xlink="http://www.w3.org/1999/xlink" width="500" zoomAndPan="magnify" viewBox="0 0 375 374.999991" height="500" preserveAspectRatio="xMidYMid meet" version="1.0"><defs><clipPath id="8b0e94cd30"><path d="M 112.308594 13.195312 L 282.082031 13.195312 L 282.082031 182.96875 L 112.308594 182.96875 Z M 112.308594 13.195312 " clip-rule="nonzero"/></clipPath><clipPath id="a2193c27bf"><path d="M 197.195312 13.195312 C 150.316406 13.195312 112.308594 51.203125 112.308594 98.082031 C 112.308594 144.964844 150.316406 182.96875 197.195312 182.96875 C 244.078125 182.96875 282.082031 144.964844 282.082031 98.082031 C 282.082031 51.203125 244.078125 13.195312 197.195312 13.195312 Z M 197.195312 13.195312 " clip-rule="nonzero"/></clipPath><clipPath id="5245fb41dc"><path d="M 46 102 L 247 102 L 247 351 L 46 351 Z M 46 102 " clip-rule="nonzero"/></clipPath><clipPath id="52a7975a6b"><path d="M 9.585938 120.628906 L 190.046875 80.363281 L 246.625 333.921875 L 66.164062 374.191406 Z M 9.585938 120.628906 " clip-rule="nonzero"/></clipPath><clipPath id="8eeb7fcb92"><path d="M 9.585938 120.628906 L 190.046875 80.363281 L 246.625 333.921875 L 66.164062 374.191406 Z M 9.585938 120.628906 " clip-rule="nonzero"/></clipPath><clipPath id="faf79f413a"><path d="M 41.554688 178.722656 L 352.367188 178.722656 L 352.367188 355.148438 L 41.554688 355.148438 Z M 41.554688 178.722656 " clip-rule="nonzero"/></clipPath><clipPath id="b32e9e49e3"><path d="M 145.191406 186.960938 C 161.070312 181.988281 179.234375 178.722656 197.007812 178.722656 C 214.785156 178.722656 231.890625 181.519531 247.652344 186.492188 C 247.988281 186.648438 248.324219 186.648438 248.660156 186.804688 C 307.855469 206.699219 351.457031 259.226562 352.296875 316.734375 L 352.296875 355.148438 L 41.554688 355.148438 L 41.554688 316.761719 C 42.394531 258.914062 85.324219 206.386719 145.191406 186.960938 Z M 145.191406 186.960938 " clip-rule="nonzero"/></clipPath><clipPath id="8214675294"><path d="M 29 0 L 366 0 L 366 365.117188 L 29 365.117188 Z M 29 0 " clip-rule="nonzero"/></clipPath><clipPath id="907300be8e"><path d="M 91.617188 19.121094 L 302.261719 19.121094 L 302.261719 152.53125 L 91.617188 152.53125 Z M 91.617188 19.121094 " clip-rule="nonzero"/></clipPath></defs><g clip-path="url(#8b0e94cd30)"><g clip-path="url(#a2193c27bf)"><path fill="#ffffff" d="M 112.308594 13.195312 L 282.082031 13.195312 L 282.082031 182.96875 L 112.308594 182.96875 Z M 112.308594 13.195312 " fill-opacity="1" fill-rule="nonzero"/></g></g><g clip-path="url(#5245fb41dc)"><g clip-path="url(#52a7975a6b)"><g clip-path="url(#8eeb7fcb92)"><path fill="#ffdb99" d="M 93.261719 106.339844 C 99.769531 120.664062 103.246094 136.246094 103.722656 151.914062 C 104.222656 167.675781 101.90625 183.480469 96.773438 198.453125 C 91.714844 213.3125 83.933594 227.320312 73.625 239.164062 C 63.554688 250.757812 48.277344 261.277344 47.023438 277.914062 C 46.410156 285.648438 49.417969 293.449219 54.8125 298.867188 C 60.878906 305.105469 69.304688 307.511719 77.902344 306.761719 C 98.539062 304.980469 112.089844 288.03125 128.738281 277.988281 C 132.953125 275.488281 137.320312 273.25 142.011719 272.007812 C 145.214844 271.097656 149.855469 270.0625 150.550781 274.484375 C 151.191406 278.238281 149.609375 282.484375 148.117188 285.835938 C 146.738281 289.261719 144.71875 292.4375 142.453125 295.378906 C 137.964844 301.441406 132.433594 306.765625 127.832031 312.761719 C 122.539062 319.589844 117.917969 328.117188 121.707031 336.816406 C 125.324219 345.160156 134.695312 348.328125 143.039062 349.484375 C 151.789062 350.746094 160.738281 349.820312 169.394531 348.472656 C 178.519531 347.023438 187.648438 345.179688 196.730469 343.542969 C 207.40625 341.648438 218.085938 339.75 228.785156 337.949219 C 233.929688 336.996094 239.089844 336.136719 244.234375 335.183594 C 247.222656 334.613281 246.1875 329.976562 243.199219 330.542969 C 222.492188 334.191406 201.835938 337.632812 181.171875 341.464844 C 172.667969 343.070312 164.207031 344.859375 155.621094 345.21875 C 151.28125 345.40625 146.972656 345.296875 142.632812 344.609375 C 138.703125 344.027344 134.558594 342.90625 131.226562 340.632812 C 128.027344 338.519531 125.574219 335.367188 125.09375 331.484375 C 124.648438 327.296875 126.386719 323.308594 128.550781 319.902344 C 132.585938 313.550781 137.929688 308.265625 142.78125 302.511719 C 147.773438 296.527344 152.179688 290.089844 154.195312 282.53125 C 155.261719 278.59375 156.199219 273.613281 153.730469 269.976562 C 151.109375 266.082031 146.316406 265.984375 142.160156 267.007812 C 122.167969 271.664062 109.542969 289.28125 91.613281 297.957031 C 83.886719 301.726562 74.425781 303.839844 66.0625 300.835938 C 59.484375 298.40625 54.28125 292.558594 52.402344 285.867188 C 47.964844 269.914062 62.292969 257.757812 72.191406 247.566406 C 83.367188 236.113281 92.054688 222.683594 98.195312 207.875 C 104.285156 193.273438 107.703125 177.609375 108.269531 161.808594 C 108.925781 145.984375 106.816406 129.996094 101.640625 115.085938 C 100.328125 111.386719 98.921875 107.707031 97.257812 104.183594 C 96.132812 101.316406 91.972656 103.609375 93.261719 106.339844 Z M 93.261719 106.339844 " fill-opacity="1" fill-rule="nonzero"/></g></g></g><g clip-path="url(#faf79f413a)"><g clip-path="url(#b32e9e49e3)"><path fill="#ffffff" d="M 41.554688 178.722656 L 352.367188 178.722656 L 352.367188 355.148438 L 41.554688 355.148438 Z M 41.554688 178.722656 " fill-opacity="1" fill-rule="nonzero"/></g></g><g clip-path="url(#8214675294)"><path fill="#8cb3e4" d="M 365.375 332.878906 L 365.375 329.183594 C 365.375 306.488281 360.925781 284.460938 352.148438 263.710938 C 343.679688 243.679688 331.554688 225.695312 316.113281 210.257812 C 300.675781 194.816406 282.691406 182.695312 262.660156 174.222656 C 261.34375 173.664062 260.015625 173.125 258.683594 172.601562 C 261.203125 170.542969 263.632812 168.347656 265.957031 166.023438 C 274.882812 157.097656 281.890625 146.699219 286.792969 135.117188 C 291.867188 123.113281 294.441406 110.375 294.441406 97.253906 C 294.441406 84.132812 291.867188 71.394531 286.792969 59.390625 C 281.890625 47.808594 274.882812 37.410156 265.957031 28.484375 C 257.03125 19.558594 246.632812 12.546875 235.046875 7.648438 C 223.046875 2.574219 210.308594 0 197.1875 0 C 184.066406 0 171.328125 2.574219 159.324219 7.648438 C 147.742188 12.546875 137.34375 19.558594 128.417969 28.484375 C 119.492188 37.410156 112.480469 47.808594 107.582031 59.390625 C 102.503906 71.394531 99.933594 84.132812 99.933594 97.253906 C 99.933594 110.375 102.507812 123.113281 107.582031 135.117188 C 112.480469 146.699219 119.492188 157.097656 128.417969 166.023438 C 130.742188 168.347656 133.167969 170.539062 135.6875 172.601562 C 134.355469 173.125 133.03125 173.664062 131.714844 174.222656 C 111.683594 182.695312 93.699219 194.816406 78.257812 210.257812 C 62.820312 225.695312 50.695312 243.679688 42.222656 263.710938 C 33.449219 284.460938 29 306.488281 29 329.183594 L 29 332.878906 C 29 350.140625 42.246094 364.367188 59.113281 365.925781 L 337.550781 365.632812 L 337.652344 365.625 C 340.546875 365.324219 343.355469 364.464844 345.921875 363.089844 C 357.386719 357.855469 365.375 346.285156 365.375 332.878906 Z M 125.503906 127.535156 C 121.449219 117.945312 119.390625 107.757812 119.390625 97.253906 C 119.390625 86.75 121.449219 76.5625 125.503906 66.972656 C 129.421875 57.707031 135.035156 49.390625 142.175781 42.246094 C 149.320312 35.101562 157.640625 29.492188 166.90625 25.574219 C 176.496094 21.515625 186.683594 19.457031 197.1875 19.457031 C 207.6875 19.457031 217.875 21.515625 227.46875 25.574219 C 236.730469 29.492188 245.050781 35.101562 252.195312 42.246094 C 259.339844 49.390625 264.949219 57.707031 268.867188 66.972656 C 272.925781 76.5625 274.980469 86.75 274.980469 97.253906 C 274.980469 107.757812 272.921875 117.945312 268.867188 127.535156 C 264.949219 136.796875 259.339844 145.117188 252.195312 152.261719 C 245.050781 159.40625 236.730469 165.015625 227.46875 168.933594 C 217.875 172.992188 207.6875 175.046875 197.1875 175.046875 C 186.683594 175.046875 176.496094 172.992188 166.90625 168.933594 C 157.640625 165.015625 149.320312 159.40625 142.175781 152.261719 C 135.035156 145.117188 129.421875 136.796875 125.503906 127.535156 Z M 345.914062 332.878906 C 345.914062 340.449219 339.757812 346.609375 332.183594 346.609375 L 62.1875 346.609375 C 54.617188 346.609375 48.457031 340.449219 48.457031 332.878906 L 48.457031 329.183594 C 48.457031 309.105469 52.390625 289.628906 60.144531 271.292969 C 67.636719 253.582031 78.359375 237.675781 92.019531 224.015625 C 105.675781 210.359375 121.582031 199.632812 139.292969 192.144531 C 143.195312 190.492188 147.207031 188.996094 151.214844 187.691406 C 152.613281 187.238281 154.035156 186.796875 155.441406 186.386719 C 155.964844 186.234375 156.464844 186.039062 156.941406 185.808594 C 157.730469 186.167969 158.523438 186.519531 159.324219 186.855469 C 171.328125 191.933594 184.066406 194.507812 197.1875 194.507812 C 210.304688 194.507812 223.046875 191.933594 235.046875 186.855469 C 235.847656 186.519531 236.640625 186.167969 237.433594 185.808594 C 237.90625 186.039062 238.40625 186.234375 238.929688 186.386719 C 244.378906 187.980469 249.8125 189.914062 255.078125 192.144531 C 272.789062 199.632812 288.695312 210.359375 302.351562 224.015625 C 316.011719 237.675781 326.734375 253.582031 334.226562 271.292969 C 341.980469 289.628906 345.914062 309.105469 345.914062 329.183594 Z M 345.914062 332.878906 " fill-opacity="1" fill-rule="nonzero"/></g><g clip-path="url(#907300be8e)"><path fill="#ffdb99" d="M 197.195312 19.121094 C 168.011719 19.121094 145.605469 23.488281 129.039062 31.34375 C 127.003906 29.570312 123.992188 27.8125 120.777344 29.234375 L 112.984375 33.847656 C 110 35.738281 110.480469 39.980469 111.296875 42.972656 C 97.84375 55.1875 91.65625 71.59375 91.65625 91.078125 C 91.65625 129.457031 118.042969 153.445312 144.425781 153.445312 C 170.8125 153.445312 184.003906 131.058594 197.195312 131.058594 C 210.390625 131.058594 223.582031 153.445312 249.964844 153.445312 C 276.351562 153.445312 302.734375 129.457031 302.734375 91.078125 C 302.734375 47.425781 271.957031 19.121094 197.195312 19.121094 Z M 197.195312 19.121094 " fill-opacity="1" fill-rule="nonzero"/></g></svg>