<svg xmlns="http://www.w3.org/2000/svg" xmlns:xlink="http://www.w3.org/1999/xlink" width="500" zoomAndPan="magnify" viewBox="0 0 375 374.999991" height="500" preserveAspectRatio="xMidYMid meet" version="1.0"><path fill="#ffdb99" d="M 316.796875 0 L 58.179688 0 C 26.132812 0.0390625 0.03125 26.148438 0 58.203125 L 0 316.820312 C 0.0390625 348.859375 26.140625 374.960938 58.195312 375 L 316.8125 375 C 348.859375 374.96875 374.960938 348.867188 375 316.804688 L 375 58.1875 C 374.96875 26.132812 348.859375 0.03125 316.796875 0 Z M 316.796875 0 " fill-opacity="1" fill-rule="nonzero"/><path fill="#ffffff" d="M 316.796875 4.648438 L 58.1875 4.648438 C 28.699219 4.6875 4.679688 28.707031 4.648438 58.203125 L 4.648438 316.8125 C 4.6875 346.292969 28.699219 370.3125 58.195312 370.351562 L 316.804688 370.351562 C 346.292969 370.320312 370.3125 346.300781 370.351562 316.804688 L 370.351562 58.195312 C 370.320312 28.699219 346.300781 4.679688 316.796875 4.648438 Z M 316.796875 4.648438 " fill-opacity="1" fill-rule="nonzero"/><path fill="#8cb3e4" d="M 316.796875 13.945312 L 58.195312 13.945312 C 33.765625 13.976562 13.96875 33.773438 13.945312 58.203125 L 13.945312 316.804688 C 13.976562 341.226562 33.773438 361.023438 58.195312 361.054688 L 316.796875 361.054688 C 341.226562 361.03125 361.023438 341.234375 361.054688 316.804688 L 361.054688 58.203125 C 361.03125 33.773438 341.226562 13.96875 316.796875 13.945312 Z M 329.242188 279.148438 L 304.371094 279.148438 L 316.882812 300.84375 C 323.777344 312.785156 319.6875 328.054688 307.746094 334.949219 C 295.808594 341.847656 280.539062 337.753906 273.640625 325.808594 L 246.71875 279.164062 L 124.742188 279.164062 L 101.34375 319.703125 C 94.449219 331.640625 79.175781 335.726562 67.238281 328.828125 C 55.296875 321.933594 51.214844 306.664062 58.109375 294.722656 L 67.097656 279.148438 L 45.757812 279.148438 C 40.109375 279.136719 34.632812 277.214844 30.21875 273.6875 C 29.488281 273.113281 28.792969 272.496094 28.132812 271.835938 C 18.386719 262.089844 18.386719 246.285156 28.140625 236.527344 C 32.820312 231.847656 39.171875 229.214844 45.789062 229.222656 L 95.964844 229.222656 L 156.949219 123.609375 L 131.933594 80.277344 C 125.035156 68.335938 129.128906 53.066406 141.066406 46.175781 C 153.007812 39.289062 168.277344 43.371094 175.164062 55.3125 L 185.765625 73.675781 L 199.898438 49.214844 C 206.730469 37.246094 221.976562 33.074219 233.957031 39.917969 C 245.925781 46.75 250.09375 62 243.253906 73.976562 C 243.214844 74.046875 243.167969 74.117188 243.128906 74.195312 L 214.59375 123.609375 L 275.570312 229.230469 L 329.273438 229.230469 C 343.054688 229.230469 354.234375 240.410156 354.234375 254.195312 C 354.234375 267.976562 343.054688 279.15625 329.273438 279.15625 L 329.242188 279.15625 Z M 329.242188 279.148438 " fill-opacity="1" fill-rule="nonzero"/><path fill="#8cb3e4" d="M 114.027344 279.148438 L 93.308594 315.039062 C 89.210938 322.664062 79.710938 325.523438 72.09375 321.421875 C 64.46875 317.324219 61.613281 307.824219 65.710938 300.210938 C 65.863281 299.921875 66.019531 299.652344 66.191406 299.371094 L 77.875 279.148438 Z M 114.027344 279.148438 " fill-opacity="1" fill-rule="nonzero"/><path fill="#8cb3e4" d="M 344.914062 254.179688 C 344.898438 262.832031 337.894531 269.835938 329.242188 269.851562 L 299.023438 269.851562 L 280.933594 238.519531 L 329.265625 238.519531 C 337.902344 238.542969 344.898438 245.539062 344.914062 254.179688 Z M 344.914062 254.179688 " fill-opacity="1" fill-rule="nonzero"/><path fill="#8cb3e4" d="M 180.371094 82.980469 L 162.289062 114.3125 L 139.949219 75.628906 C 135.851562 68.003906 138.710938 58.503906 146.335938 54.414062 C 153.625 50.492188 162.707031 52.925781 167.070312 59.960938 Z M 180.371094 82.980469 " fill-opacity="1" fill-rule="nonzero"/><path fill="#8cb3e4" d="M 241.347656 269.851562 L 122.417969 269.851562 C 122.214844 269.851562 122.023438 269.851562 121.820312 269.851562 L 75.464844 269.851562 C 75.261719 269.851562 75.070312 269.851562 74.867188 269.851562 L 45.757812 269.851562 C 42.195312 269.859375 38.738281 268.644531 35.964844 266.40625 C 35.515625 266.054688 35.082031 265.667969 34.679688 265.265625 C 28.558594 259.144531 28.558594 249.226562 34.679688 243.105469 C 37.617188 240.171875 41.605469 238.511719 45.757812 238.519531 L 223.257812 238.519531 Z M 241.347656 269.851562 " fill-opacity="1" fill-rule="nonzero"/><path fill="#8cb3e4" d="M 235.050781 69.539062 L 205.171875 121.277344 C 205.148438 121.308594 205.132812 121.347656 205.117188 121.386719 L 205.117188 121.441406 L 181.710938 161.933594 L 142.871094 229.214844 L 106.6875 229.214844 L 166.164062 126.167969 C 166.261719 126.019531 166.347656 125.863281 166.433594 125.710938 L 189.675781 85.484375 C 189.746094 85.375 189.808594 85.265625 189.871094 85.15625 L 207.960938 53.824219 C 212.292969 46.347656 221.863281 43.800781 229.339844 48.128906 C 236.832031 52.460938 239.394531 62.046875 235.074219 69.539062 Z M 235.050781 69.539062 " fill-opacity="1" fill-rule="nonzero"/><path fill="#8cb3e4" d="M 310.398438 317.363281 C 308.152344 325.722656 299.558594 330.683594 291.191406 328.433594 C 287.183594 327.359375 283.769531 324.738281 281.691406 321.144531 L 253.496094 272.332031 C 253.488281 272.308594 253.472656 272.285156 253.457031 272.261719 L 253.304688 272 L 230.058594 231.710938 L 229.898438 231.421875 L 191.15625 164.289062 L 209.195312 132.914062 L 268.769531 236.078125 L 292.191406 276.648438 L 292.253906 276.765625 L 308.832031 305.476562 C 310.925781 309.074219 311.480469 313.351562 310.398438 317.363281 Z M 310.398438 317.363281 " fill-opacity="1" fill-rule="nonzero"/><path fill="#8cb3e4" d="M 217.886719 229.222656 L 153.59375 229.222656 L 185.742188 173.539062 Z M 217.886719 229.222656 " fill-opacity="1" fill-rule="nonzero"/></svg>