<svg xmlns="http://www.w3.org/2000/svg" xmlns:xlink="http://www.w3.org/1999/xlink" width="500" zoomAndPan="magnify" viewBox="0 0 375 374.999991" height="500" preserveAspectRatio="xMidYMid meet" version="1.0"><defs><clipPath id="dd19f432a2"><path d="M 123.269531 125.382812 L 290.261719 125.382812 L 290.261719 292.375 L 123.269531 292.375 Z M 123.269531 125.382812 " clip-rule="nonzero"/></clipPath><clipPath id="b73ca992f1"><path d="M 206.765625 125.382812 C 160.652344 125.382812 123.269531 162.765625 123.269531 208.878906 C 123.269531 254.992188 160.652344 292.375 206.765625 292.375 C 252.878906 292.375 290.261719 254.992188 290.261719 208.878906 C 290.261719 162.765625 252.878906 125.382812 206.765625 125.382812 Z M 206.765625 125.382812 " clip-rule="nonzero"/></clipPath></defs><path fill="#8cb3e4" d="M 347.089844 310.203125 C 346.417969 309.53125 345.742188 308.917969 344.949219 308.304688 L 276.4375 251.050781 C 292.585938 224.867188 292.769531 191.652344 276.925781 165.347656 L 276.925781 77.566406 C 276.925781 77.503906 276.925781 77.445312 276.925781 77.445312 C 276.925781 77.261719 276.804688 77.078125 276.804688 76.832031 C 276.804688 76.710938 276.742188 76.527344 276.742188 76.464844 C 276.496094 75.058594 275.945312 73.773438 274.90625 72.855469 L 203.886719 1.773438 C 202.722656 0.671875 201.132812 0 199.480469 0 L 33.03125 0 C 16.148438 0 2.445312 13.703125 2.445312 30.585938 L 2.445312 324.210938 C 2.445312 341.09375 16.148438 354.796875 33.03125 354.796875 L 246.339844 354.796875 C 263.222656 354.796875 276.925781 341.09375 276.925781 324.210938 L 276.925781 310.9375 L 306.65625 346.476562 C 331.429688 374.984375 372.660156 337.914062 347.089844 310.203125 Z M 276.558594 207.800781 C 276.558594 226.519531 269.277344 244.136719 256.003906 257.351562 C 242.730469 270.5625 225.171875 277.902344 206.457031 277.902344 C 187.738281 277.902344 170.117188 270.625 156.90625 257.351562 C 129.5625 230.007812 129.5625 185.535156 156.90625 158.25 C 170.117188 145.039062 187.738281 137.699219 206.457031 137.699219 C 225.171875 137.699219 242.792969 144.976562 256.003906 158.25 C 269.21875 171.527344 276.558594 189.082031 276.558594 207.800781 Z M 264.691406 324.210938 C 264.691406 334.304688 256.433594 342.5625 246.339844 342.5625 L 33.03125 342.5625 C 22.941406 342.5625 14.679688 334.304688 14.679688 324.210938 L 14.679688 30.585938 C 14.679688 20.492188 22.941406 12.234375 33.03125 12.234375 L 193.363281 12.234375 L 193.363281 77.445312 C 193.363281 80.808594 196.117188 83.5625 199.480469 83.5625 L 264.691406 83.5625 L 264.691406 149.625 C 249.152344 134.089844 228.476562 125.523438 206.515625 125.523438 C 185.472656 125.523438 165.652344 133.414062 150.359375 147.730469 L 56.890625 147.730469 C 53.527344 147.730469 50.773438 150.484375 50.773438 153.847656 C 50.773438 157.210938 53.527344 159.964844 56.890625 159.964844 L 139.65625 159.964844 C 133.414062 168.710938 129.074219 178.378906 126.625 188.46875 L 56.890625 188.46875 C 53.527344 188.46875 50.773438 191.222656 50.773438 194.585938 C 50.773438 197.953125 53.527344 200.703125 56.890625 200.703125 L 124.546875 200.703125 C 123.75 210.246094 124.605469 219.851562 127.054688 229.148438 L 56.890625 229.148438 C 53.527344 229.148438 50.773438 231.902344 50.773438 235.265625 C 50.773438 238.632812 53.527344 241.382812 56.890625 241.382812 L 131.457031 241.382812 C 135.433594 250.316406 141 258.695312 148.34375 266.035156 C 149.6875 267.382812 151.15625 268.667969 152.625 269.890625 L 56.890625 269.890625 C 53.527344 269.890625 50.773438 272.644531 50.773438 276.007812 C 50.773438 279.371094 53.527344 282.125 56.890625 282.125 L 171.28125 282.125 C 182.414062 287.386719 194.402344 290.078125 206.515625 290.078125 C 221.441406 290.078125 236.246094 285.980469 249.398438 277.964844 L 264.691406 296.253906 Z M 264.691406 324.210938 " fill-opacity="1" fill-rule="nonzero"/><path fill="#8cb3e4" d="M 56.890625 119.222656 L 139.65625 119.222656 C 143.019531 119.222656 145.773438 116.472656 145.773438 113.105469 C 145.773438 109.742188 143.019531 106.988281 139.65625 106.988281 L 56.890625 106.988281 C 53.527344 106.988281 50.773438 109.742188 50.773438 113.105469 C 50.773438 116.472656 53.527344 119.222656 56.890625 119.222656 Z M 56.890625 119.222656 " fill-opacity="1" fill-rule="nonzero"/><g clip-path="url(#dd19f432a2)"><g clip-path="url(#b73ca992f1)"><path stroke-linecap="butt" transform="matrix(2.398457, 0, 0, 2.398457, 123.270553, 125.383453)" fill="none" stroke-linejoin="miter" d="M 34.811999 -0.0002672 C 15.585768 -0.0002672 -0.000426089 15.585927 -0.000426089 34.812157 C -0.000426089 54.038388 15.585768 69.624582 34.811999 69.624582 C 54.038229 69.624582 69.624423 54.038388 69.624423 34.812157 C 69.624423 15.585927 54.038229 -0.0002672 34.811999 -0.0002672 Z M 34.811999 -0.0002672 " stroke="#ffdb99" stroke-width="13.133444" stroke-opacity="1" stroke-miterlimit="4"/></g></g></svg>