<svg xmlns="http://www.w3.org/2000/svg" xmlns:xlink="http://www.w3.org/1999/xlink" width="500" zoomAndPan="magnify" viewBox="0 0 375 374.999991" height="500" preserveAspectRatio="xMidYMid meet" version="1.0"><defs><clipPath id="89379e8db5"><path d="M 0 0 L 374.160156 0 L 374.160156 374.160156 L 0 374.160156 Z M 0 0 " clip-rule="nonzero"/></clipPath></defs><g clip-path="url(#89379e8db5)"><path fill="#8cb3e4" d="M 52.542969 0.0234375 C 23.546875 0.0234375 0 23.570312 0 52.566406 L 0 139.835938 C 0 168.636719 23.742188 195.953125 52.542969 195.953125 L 53.433594 195.953125 L 53.433594 258.292969 C 53.433594 261.972656 55.699219 265.265625 59.125 266.59375 C 62.546875 267.929688 66.429688 267.011719 68.914062 264.296875 L 106.871094 222.707031 L 106.871094 246.707031 C 106.871094 275.507812 130.613281 302.824219 159.414062 302.824219 L 242.773438 302.824219 L 305.132812 371.167969 C 307.617188 373.882812 311.5 374.800781 314.921875 373.464844 C 318.347656 372.136719 320.613281 368.84375 320.613281 365.164062 L 320.613281 302.824219 L 321.503906 302.824219 C 350.304688 302.824219 374.046875 275.507812 374.046875 246.707031 L 374.046875 159.4375 C 374.046875 130.441406 350.5 106.894531 321.503906 106.894531 L 267.175781 106.894531 L 267.175781 52.566406 C 267.175781 23.570312 243.628906 0.0234375 214.632812 0.0234375 Z M 52.542969 17.835938 L 214.632812 17.835938 C 233.796875 17.835938 249.363281 33.402344 249.363281 52.566406 L 249.363281 139.835938 C 249.363281 159.207031 234 178.140625 214.632812 178.140625 L 127.363281 178.140625 C 124.859375 178.140625 122.464844 179.191406 120.773438 181.042969 L 71.246094 235.335938 L 71.246094 187.046875 C 71.246094 182.128906 67.257812 178.140625 62.339844 178.140625 L 52.542969 178.140625 C 33.175781 178.140625 17.8125 159.207031 17.8125 139.835938 L 17.8125 52.566406 C 17.8125 33.402344 33.378906 17.835938 52.542969 17.835938 Z M 133.589844 35.648438 C 113.925781 35.648438 97.964844 51.605469 97.964844 71.269531 C 97.964844 76.1875 101.953125 80.175781 106.871094 80.175781 C 111.785156 80.175781 115.777344 76.1875 115.777344 71.269531 C 115.777344 61.4375 123.757812 53.457031 133.589844 53.457031 C 143.421875 53.457031 151.398438 61.4375 151.398438 71.269531 C 151.398438 81.101562 143.421875 89.082031 133.589844 89.082031 C 128.671875 89.082031 124.683594 93.070312 124.683594 97.988281 L 124.683594 115.800781 C 124.683594 120.714844 128.671875 124.707031 133.589844 124.707031 C 138.503906 124.707031 142.492188 120.714844 142.492188 115.800781 L 142.492188 105.761719 C 157.847656 101.800781 169.210938 87.863281 169.210938 71.269531 C 169.210938 51.605469 153.253906 35.648438 133.589844 35.648438 Z M 267.175781 124.707031 L 321.503906 124.707031 C 340.667969 124.707031 356.234375 140.273438 356.234375 159.4375 L 356.234375 246.707031 C 356.234375 266.078125 340.871094 285.011719 321.503906 285.011719 L 311.707031 285.011719 C 306.789062 285.011719 302.800781 289 302.800781 293.917969 L 302.800781 342.203125 L 253.273438 287.914062 C 251.582031 286.0625 249.1875 285.011719 246.683594 285.011719 L 159.414062 285.011719 C 140.042969 285.011719 124.683594 266.078125 124.683594 246.707031 L 124.683594 204.859375 C 124.683594 204.339844 124.628906 203.84375 124.539062 203.34375 L 131.273438 195.953125 L 214.632812 195.953125 C 243.433594 195.953125 267.175781 168.636719 267.175781 139.835938 Z M 133.589844 133.609375 C 128.671875 133.609375 124.683594 137.601562 124.683594 142.515625 L 124.683594 151.421875 C 124.683594 156.339844 128.671875 160.328125 133.589844 160.328125 C 138.503906 160.328125 142.492188 156.339844 142.492188 151.421875 L 142.492188 142.515625 C 142.492188 137.601562 138.503906 133.609375 133.589844 133.609375 Z M 293.894531 151.421875 C 288.976562 151.421875 284.988281 155.414062 284.988281 160.328125 C 284.988281 165.246094 288.976562 169.234375 293.894531 169.234375 L 329.515625 169.234375 C 334.433594 169.234375 338.421875 165.246094 338.421875 160.328125 C 338.421875 155.414062 334.433594 151.421875 329.515625 151.421875 Z M 276.082031 187.046875 C 271.167969 187.046875 267.175781 191.035156 267.175781 195.953125 C 267.175781 200.867188 271.167969 204.859375 276.082031 204.859375 L 329.515625 204.859375 C 334.433594 204.859375 338.421875 200.867188 338.421875 195.953125 C 338.421875 191.035156 334.433594 187.046875 329.515625 187.046875 Z M 160.304688 222.671875 C 155.398438 222.671875 151.382812 226.660156 151.382812 231.574219 C 151.382812 236.492188 155.398438 240.480469 160.304688 240.480469 L 329.515625 240.480469 C 334.425781 240.480469 338.441406 236.492188 338.441406 231.574219 C 338.441406 226.660156 334.425781 222.671875 329.515625 222.671875 Z M 160.304688 222.671875 " fill-opacity="1" fill-rule="evenodd"/></g><path stroke-linecap="round" transform="matrix(2.398457, 0, 0, 2.398457, 282.001246, 150.132705)" fill="none" stroke-linejoin="miter" d="M 4.499444 4.500009 L 19.399977 4.500009 " stroke="#ffdb99" stroke-width="9" stroke-opacity="1" stroke-miterlimit="4"/><path stroke-linecap="round" transform="matrix(2.398457, 0, 0, 2.398457, 265.685495, 186.060926)" fill="none" stroke-linejoin="miter" d="M 4.5008 4.50062 L 26.20258 4.50062 " stroke="#ffdb99" stroke-width="9" stroke-opacity="1" stroke-miterlimit="4"/><path stroke-linecap="round" transform="matrix(2.398457, 0, 0, 2.398457, 150.077455, 222.037778)" fill="none" stroke-linejoin="miter" d="M 4.500243 4.500499 L 74.403592 4.500499 " stroke="#ffdb99" stroke-width="9" stroke-opacity="1" stroke-miterlimit="4"/></svg>