<svg xmlns="http://www.w3.org/2000/svg" xmlns:xlink="http://www.w3.org/1999/xlink" width="500" zoomAndPan="magnify" viewBox="0 0 375 374.999991" height="500" preserveAspectRatio="xMidYMid meet" version="1.0"><defs><clipPath id="3494aa7b78"><path d="M 57.421875 30 L 316.457031 30 L 316.457031 374.160156 L 57.421875 374.160156 Z M 57.421875 30 " clip-rule="nonzero"/></clipPath></defs><g clip-path="url(#3494aa7b78)"><path fill="#8cb3e4" d="M 290.519531 30.144531 L 245.769531 30.144531 C 247.257812 33.546875 248.085938 37.324219 248.085938 41.261719 C 248.085938 43.550781 247.792969 45.796875 247.285156 47.933594 L 290.519531 47.933594 C 295.636719 47.933594 299.792969 52.09375 299.792969 57.207031 L 299.792969 347.800781 C 299.792969 352.917969 295.636719 357.078125 290.519531 357.078125 L 84.417969 357.078125 C 79.300781 357.078125 75.167969 352.917969 75.167969 347.800781 L 75.167969 57.207031 C 75.167969 52.09375 79.300781 47.933594 84.417969 47.933594 L 127.652344 47.933594 C 127.144531 45.796875 126.851562 43.550781 126.851562 41.261719 C 126.851562 37.324219 127.679688 33.546875 129.167969 30.144531 L 84.417969 30.144531 C 69.496094 30.144531 57.378906 42.285156 57.378906 57.207031 L 57.378906 347.800781 C 57.378906 362.726562 69.496094 374.867188 84.417969 374.867188 L 290.519531 374.867188 C 305.445312 374.867188 317.585938 362.726562 317.585938 347.800781 L 317.585938 57.207031 C 317.585938 42.285156 305.445312 30.144531 290.519531 30.144531 " fill-opacity="1" fill-rule="nonzero"/></g><path fill="#8cb3e4" d="M 220.289062 50.15625 L 154.675781 50.15625 C 149.765625 50.15625 145.777344 46.175781 145.777344 41.261719 C 145.777344 36.34375 149.765625 32.367188 154.675781 32.367188 L 220.289062 32.367188 C 225.179688 32.367188 229.183594 36.34375 229.183594 41.261719 C 229.183594 46.175781 225.179688 50.15625 220.289062 50.15625 Z M 187.457031 11.242188 C 193.664062 11.242188 198.890625 15.503906 200.382812 21.25 L 174.558594 21.25 C 176.03125 15.503906 181.273438 11.242188 187.457031 11.242188 Z M 220.289062 21.25 L 211.679688 21.25 C 210.078125 9.324219 199.820312 0.117188 187.457031 0.117188 C 175.117188 0.117188 164.84375 9.324219 163.242188 21.25 L 154.675781 21.25 C 143.625 21.25 134.664062 30.230469 134.664062 41.261719 C 134.664062 52.292969 143.625 61.28125 154.675781 61.28125 L 220.289062 61.28125 C 231.320312 61.28125 240.300781 52.292969 240.300781 41.261719 C 240.300781 30.230469 231.320312 21.25 220.289062 21.25 " fill-opacity="1" fill-rule="nonzero"/><path fill="#8cb3e4" d="M 120.816406 322.597656 C 119.378906 322.597656 117.929688 322.132812 116.726562 321.195312 L 96.707031 305.625 C 93.792969 303.359375 93.277344 299.175781 95.535156 296.265625 C 97.796875 293.355469 101.992188 292.828125 104.902344 295.09375 L 120.703125 307.382812 L 154.382812 279.644531 C 157.230469 277.296875 161.433594 277.707031 163.777344 280.550781 C 166.117188 283.402344 165.714844 287.601562 162.871094 289.945312 L 125.0625 321.082031 C 123.828125 322.089844 122.324219 322.597656 120.816406 322.597656 " fill-opacity="1" fill-rule="nonzero"/><path fill="#8cb3e4" d="M 270.9375 292.582031 L 179.757812 292.582031 C 175.476562 292.582031 171.972656 296.085938 171.972656 300.363281 C 171.972656 304.644531 175.476562 308.148438 179.757812 308.148438 L 270.9375 308.148438 C 275.21875 308.148438 278.722656 304.644531 278.722656 300.363281 C 278.722656 296.085938 275.21875 292.582031 270.9375 292.582031 " fill-opacity="1" fill-rule="nonzero"/><path fill="#8cb3e4" d="M 120.816406 260.332031 C 119.378906 260.332031 117.929688 259.867188 116.726562 258.917969 L 96.707031 243.359375 C 93.792969 241.09375 93.277344 236.902344 95.535156 233.992188 C 97.796875 231.082031 101.992188 230.5625 104.902344 232.820312 L 120.703125 245.117188 L 154.382812 217.371094 C 157.230469 215.03125 161.433594 215.425781 163.777344 218.277344 C 166.117188 221.125 165.714844 225.328125 162.871094 227.671875 L 125.0625 258.808594 C 123.828125 259.824219 122.324219 260.332031 120.816406 260.332031 " fill-opacity="1" fill-rule="nonzero"/><path fill="#8cb3e4" d="M 270.9375 230.304688 L 179.757812 230.304688 C 175.476562 230.304688 171.972656 233.808594 171.972656 238.089844 C 171.972656 242.371094 175.476562 245.875 179.757812 245.875 L 270.9375 245.875 C 275.21875 245.875 278.722656 242.371094 278.722656 238.089844 C 278.722656 233.808594 275.21875 230.304688 270.9375 230.304688 " fill-opacity="1" fill-rule="nonzero"/><path fill="#8cb3e4" d="M 271.078125 106.59375 L 179.894531 106.59375 C 175.617188 106.59375 172.113281 110.097656 172.113281 114.375 C 172.113281 118.65625 175.617188 122.160156 179.894531 122.160156 L 271.078125 122.160156 C 275.355469 122.160156 278.863281 118.65625 278.863281 114.375 C 278.863281 110.097656 275.355469 106.59375 271.078125 106.59375 " fill-opacity="1" fill-rule="nonzero"/><path fill="#8cb3e4" d="M 109.929688 105.480469 C 108.527344 105.480469 107.339844 106.667969 107.339844 108.074219 L 107.339844 120.679688 C 107.339844 122.082031 108.527344 123.269531 109.929688 123.269531 L 136.4375 123.269531 C 137.839844 123.269531 139.027344 122.082031 139.027344 120.679688 L 139.027344 108.074219 C 139.027344 106.667969 137.839844 105.480469 136.4375 105.480469 Z M 136.4375 136.617188 L 109.929688 136.617188 C 101.140625 136.617188 93.992188 129.472656 93.992188 120.679688 L 93.992188 108.074219 C 93.992188 99.289062 101.140625 92.132812 109.929688 92.132812 L 136.4375 92.132812 C 145.21875 92.132812 152.375 99.289062 152.375 108.074219 L 152.375 120.679688 C 152.375 129.472656 145.21875 136.617188 136.4375 136.617188 " fill-opacity="1" fill-rule="nonzero"/><path fill="#8cb3e4" d="M 271.078125 168.867188 L 179.894531 168.867188 C 175.617188 168.867188 172.113281 172.371094 172.113281 176.652344 C 172.113281 180.929688 175.617188 184.433594 179.894531 184.433594 L 271.078125 184.433594 C 275.355469 184.433594 278.863281 180.929688 278.863281 176.652344 C 278.863281 172.371094 275.355469 168.867188 271.078125 168.867188 " fill-opacity="1" fill-rule="nonzero"/><path fill="#8cb3e4" d="M 109.929688 167.753906 C 108.527344 167.753906 107.339844 168.945312 107.339844 170.347656 L 107.339844 182.953125 C 107.339844 184.359375 108.527344 185.546875 109.929688 185.546875 L 136.4375 185.546875 C 137.839844 185.546875 139.027344 184.359375 139.027344 182.953125 L 139.027344 170.347656 C 139.027344 168.945312 137.839844 167.753906 136.4375 167.753906 Z M 136.4375 198.894531 L 109.929688 198.894531 C 101.140625 198.894531 93.992188 191.738281 93.992188 182.953125 L 93.992188 170.347656 C 93.992188 161.554688 101.140625 154.410156 109.929688 154.410156 L 136.4375 154.410156 C 145.21875 154.410156 152.375 161.554688 152.375 170.347656 L 152.375 182.953125 C 152.375 191.738281 145.21875 198.894531 136.4375 198.894531 " fill-opacity="1" fill-rule="nonzero"/><path stroke-linecap="round" transform="matrix(2.398457, 0, 0, 2.398457, 171.253044, 106.052731)" fill="none" stroke-linejoin="miter" d="M 3.500331 3.500788 L 42.146601 3.500788 " stroke="#ffdb99" stroke-width="7" stroke-opacity="1" stroke-miterlimit="4"/><path stroke-linecap="round" transform="matrix(2.398457, 0, 0, 2.398457, 171.732944, 168.60081)" fill="none" stroke-linejoin="miter" d="M 3.500569 3.500286 L 42.14521 3.500286 " stroke="#ffdb99" stroke-width="7" stroke-opacity="1" stroke-miterlimit="4"/><path stroke-linecap="round" transform="matrix(2.398457, 0, 0, 2.398457, 171.253044, 230.48187)" fill="none" stroke-linejoin="miter" d="M 3.500331 3.499388 L 42.146601 3.499388 " stroke="#ffdb99" stroke-width="7" stroke-opacity="1" stroke-miterlimit="4"/><path stroke-linecap="round" transform="matrix(2.398457, 0, 0, 2.398457, 171.253044, 292.841729)" fill="none" stroke-linejoin="miter" d="M 3.500331 3.499186 L 42.146601 3.499186 " stroke="#ffdb99" stroke-width="7" stroke-opacity="1" stroke-miterlimit="4"/></svg>